<svg width="203" height="210" xmlns="http://www.w3.org/2000/svg" xmlns:xlink="http://www.w3.org/1999/xlink" xml:space="preserve" overflow="hidden"><g transform="translate(-573 -1216)"><path d="M575.5 1402.5 674.5 1303.5" stroke="#FFFFFF" stroke-width="4.58333" stroke-linecap="round" stroke-linejoin="round" stroke-miterlimit="10" fill="none" fill-rule="evenodd"/><path d="M742.5 1256.06 742.5 1256.06C742.5 1261.73 738.037 1266.5 732.5 1266.5 726.963 1266.5 722.5 1261.73 722.5 1256.06 722.5 1250.38 726.963 1245.5 732.5 1245.5 738.037 1245.5 742.5 1250.27 742.5 1256.06" stroke="#FFFFFF" stroke-width="4.58333" stroke-linecap="round" stroke-linejoin="round" stroke-miterlimit="10" fill="none" fill-rule="evenodd"/><path d="M666.377 1293.55 666.377 1293.55C657.179 1271.71 664.043 1244.1 684.772 1229.16 704.284 1214.18 733.034 1215.37 752.625 1230.31 779.021 1251.06 780.198 1290.13 757.214 1313.12 741.094 1329.23 718.11 1332.67 697.421 1325.77L687.066 1336.12C685.929 1337.27 684.772 1337.27 683.634 1337.27L673.24 1337.27C669.848 1337.27 667.514 1340.75 667.514 1344.19L667.514 1353.4C667.514 1355.69 666.377 1356.88 665.22 1357.98L654.826 1368.32C653.708 1369.47 652.57 1370.65 650.237 1370.65L641.04 1370.65C637.647 1370.65 634.156 1372.94 634.156 1376.38L634.156 1386.72C634.156 1387.87 634.156 1389.01 633.018 1390.2L622.625 1400.51C621.487 1401.66 619.232 1402.83 618.036 1402.83L607.681 1402.83C604.249 1402.83 601.955 1406.27 601.955 1408.56L601.955 1415.44C601.955 1418.92 599.621 1421.25 596.229 1422.39L582.403 1423.5C578.971 1423.5 575.5 1420.06 575.5 1416.62L575.5 1389.01C575.5 1386.72 576.637 1383.24 577.833 1380.99L666.337 1293.57" stroke="#FFCE00" stroke-width="4.58333" stroke-linecap="round" stroke-linejoin="round" stroke-miterlimit="10" fill="none" fill-rule="evenodd"/></g></svg>