<svg width="235" height="235" xmlns="http://www.w3.org/2000/svg" xmlns:xlink="http://www.w3.org/1999/xlink" xml:space="preserve" overflow="hidden"><g transform="translate(-557 -1654)"><path d="M673.5 1795.28 627.062 1841.72C630.319 1853.32 627.418 1866.31 618.28 1875.43 607.09 1886.62 590.137 1888.47 577.013 1881.05L601.821 1856.24 588.756 1843.18 563.949 1867.99C556.528 1854.86 558.383 1837.91 569.573 1826.72 578.711 1817.58 591.677 1814.68 603.281 1817.94L649.719 1771.5" stroke="#FFCE00" stroke-width="4.58333" stroke-linecap="round" stroke-linejoin="round" stroke-miterlimit="10" fill="none" fill-rule="evenodd"/><path d="M673.5 1747.51 720.345 1700.67C717.06 1688.96 719.987 1675.86 729.204 1666.66 740.492 1655.37 757.594 1653.5 770.833 1660.99L745.808 1686.01 758.987 1699.19 784.012 1674.17C791.498 1687.41 789.627 1704.51 778.339 1715.8 769.121 1725.01 756.041 1727.94 744.335 1724.66L697.49 1771.5" stroke="#FFCE00" stroke-width="4.58333" stroke-linecap="round" stroke-linejoin="round" stroke-miterlimit="10" fill="none" fill-rule="evenodd"/><path d="M606.305 1666.44 575.552 1657.5 560.5 1672.55 569.436 1703.31 587.92 1708.69 686.73 1807.5 710.5 1783.73 611.69 1684.92 606.305 1666.44Z" stroke="#FFFFFF" stroke-width="4.58333" stroke-linecap="round" stroke-linejoin="round" stroke-miterlimit="10" fill="none" fill-rule="evenodd"/><path d="M681.844 1811.68 714.552 1778.97C718.408 1775.12 724.667 1775.12 728.523 1778.97L780.972 1831.42C791.856 1842.3 791.856 1859.96 780.972 1870.85L773.707 1878.11C762.823 1889 745.163 1889 734.279 1878.11L681.831 1825.66C677.974 1821.81 677.974 1815.55 681.831 1811.69Z" stroke="#FFCE00" stroke-width="4.58333" stroke-linecap="round" stroke-linejoin="round" stroke-miterlimit="10" fill="none" fill-rule="evenodd"/><path d="M700.004 1824.31 708.931 1815.38 754.087 1860.53 745.159 1869.46Z" stroke="#FFFFFF" stroke-width="4.58333" stroke-linecap="round" stroke-linejoin="round" stroke-miterlimit="10" fill="none" fill-rule="evenodd"/><path d="M718.221 1806.1 727.149 1797.17 772.305 1842.33 763.377 1851.25Z" stroke="#FFFFFF" stroke-width="4.58333" stroke-linecap="round" stroke-linejoin="round" stroke-miterlimit="10" fill="none" fill-rule="evenodd"/></g></svg>