<svg width="249" height="184" xmlns="http://www.w3.org/2000/svg" xmlns:xlink="http://www.w3.org/1999/xlink" xml:space="preserve" overflow="hidden"><g transform="translate(-3535 -1673)"><path d="M3537.5 1675.5 3781.5 1675.5 3781.5 1854.5 3537.5 1854.5Z" stroke="#FFCE00" stroke-width="4.58333" stroke-linecap="round" stroke-linejoin="round" stroke-miterlimit="10" fill="none" fill-rule="evenodd"/><path d="M3553.5 1719.5 3765.5 1719.5 3765.5 1838.5 3553.5 1838.5Z" stroke="#FFFFFF" stroke-width="4.58333" stroke-linecap="round" stroke-linejoin="round" stroke-miterlimit="10" fill="none" fill-rule="evenodd"/><path d="M3584.5 1742.5 3612.5 1742.5 3612.5 1770.5 3584.5 1770.5Z" stroke="#FFCE00" stroke-width="4.58333" stroke-linecap="round" stroke-linejoin="round" stroke-miterlimit="10" fill="none" fill-rule="evenodd"/><path d="M3643.5 1742.5 3670.5 1742.5 3670.5 1770.5 3643.5 1770.5Z" stroke="#FFCE00" stroke-width="4.58333" stroke-linecap="round" stroke-linejoin="round" stroke-miterlimit="10" fill="none" fill-rule="evenodd"/><path d="M3701.5 1742.5 3729.5 1742.5 3729.5 1770.5 3701.5 1770.5Z" stroke="#FFCE00" stroke-width="4.58333" stroke-linecap="round" stroke-linejoin="round" stroke-miterlimit="10" fill="none" fill-rule="evenodd"/><path d="M3584.5 1789.5 3612.5 1789.5 3612.5 1816.5 3584.5 1816.5Z" stroke="#FFCE00" stroke-width="4.58333" stroke-linecap="round" stroke-linejoin="round" stroke-miterlimit="10" fill="none" fill-rule="evenodd"/><path d="M3643.5 1789.5 3670.5 1789.5 3670.5 1816.5 3643.5 1816.5Z" stroke="#FFCE00" stroke-width="4.58333" stroke-linecap="round" stroke-linejoin="round" stroke-miterlimit="10" fill="none" fill-rule="evenodd"/><path d="M3701.5 1789.5 3729.5 1789.5 3729.5 1816.5 3701.5 1816.5Z" stroke="#FFCE00" stroke-width="4.58333" stroke-linecap="round" stroke-linejoin="round" stroke-miterlimit="10" fill="none" fill-rule="evenodd"/><path d="M3568.5 1698C3568.5 1702.14 3565.14 1705.5 3561 1705.5 3556.86 1705.5 3553.5 1702.14 3553.5 1698 3553.5 1693.86 3556.86 1690.5 3561 1690.5 3565.14 1690.5 3568.5 1693.86 3568.5 1698Z" stroke="#FFCE00" stroke-width="4.58333" stroke-linecap="round" stroke-linejoin="round" stroke-miterlimit="10" fill="none" fill-rule="evenodd"/><path d="M3595.5 1698C3595.5 1702.14 3592.14 1705.5 3588 1705.5 3583.86 1705.5 3580.5 1702.14 3580.5 1698 3580.5 1693.86 3583.86 1690.5 3588 1690.5 3592.14 1690.5 3595.5 1693.86 3595.5 1698Z" stroke="#FFFFFF" stroke-width="4.58333" stroke-linecap="round" stroke-linejoin="round" stroke-miterlimit="10" fill="none" fill-rule="evenodd"/><path d="M3623.5 1698C3623.5 1702.14 3620.14 1705.5 3616 1705.5 3611.86 1705.5 3608.5 1702.14 3608.5 1698 3608.5 1693.86 3611.86 1690.5 3616 1690.5 3620.14 1690.5 3623.5 1693.86 3623.5 1698Z" stroke="#FFFFFF" stroke-width="4.58333" stroke-linecap="round" stroke-linejoin="round" stroke-miterlimit="10" fill="none" fill-rule="evenodd"/></g></svg>