<svg width="249" height="184" xmlns="http://www.w3.org/2000/svg" xmlns:xlink="http://www.w3.org/1999/xlink" xml:space="preserve" overflow="hidden"><g transform="translate(-3039 -1673)"><path d="M3041.5 1675.5 3285.5 1675.5 3285.5 1854.5 3041.5 1854.5Z" stroke="#FFCE00" stroke-width="4.58333" stroke-linecap="round" stroke-linejoin="round" stroke-miterlimit="10" fill="none" fill-rule="evenodd"/><path d="M3057.5 1719.5 3269.5 1719.5 3269.5 1838.5 3057.5 1838.5Z" stroke="#FFFFFF" stroke-width="4.58333" stroke-linecap="round" stroke-linejoin="round" stroke-miterlimit="10" fill="none" fill-rule="evenodd"/><path d="M3071.5 1698C3071.5 1702.14 3068.37 1705.5 3064.5 1705.5 3060.63 1705.5 3057.5 1702.14 3057.5 1698 3057.5 1693.86 3060.63 1690.5 3064.5 1690.5 3068.37 1690.5 3071.5 1693.86 3071.5 1698Z" stroke="#FFCE00" stroke-width="4.58333" stroke-linecap="round" stroke-linejoin="round" stroke-miterlimit="10" fill="none" fill-rule="evenodd"/><path d="M3099.5 1698C3099.5 1702.14 3096.14 1705.5 3092 1705.5 3087.86 1705.5 3084.5 1702.14 3084.5 1698 3084.5 1693.86 3087.86 1690.5 3092 1690.5 3096.14 1690.5 3099.5 1693.86 3099.5 1698Z" stroke="#FFFFFF" stroke-width="4.58333" stroke-linecap="round" stroke-linejoin="round" stroke-miterlimit="10" fill="none" fill-rule="evenodd"/><path d="M3126.5 1698C3126.5 1702.14 3123.37 1705.5 3119.5 1705.5 3115.63 1705.5 3112.5 1702.14 3112.5 1698 3112.5 1693.86 3115.63 1690.5 3119.5 1690.5 3123.37 1690.5 3126.5 1693.86 3126.5 1698Z" stroke="#FFFFFF" stroke-width="4.58333" stroke-linecap="round" stroke-linejoin="round" stroke-miterlimit="10" fill="none" fill-rule="evenodd"/><path d="M3269.5 1697.5 3246.5 1697.5" stroke="#FFCE00" stroke-width="4.58333" stroke-linecap="round" stroke-linejoin="round" stroke-miterlimit="10" fill="none" fill-rule="evenodd"/><path d="M3206.5 1778.5C3206.5 1802.8 3186.8 1822.5 3162.5 1822.5 3138.2 1822.5 3118.5 1802.8 3118.5 1778.5 3118.5 1754.2 3138.2 1734.5 3162.5 1734.5 3186.8 1734.5 3206.5 1754.2 3206.5 1778.5Z" stroke="#FFCE00" stroke-width="4.58333" stroke-linecap="round" stroke-linejoin="round" stroke-miterlimit="10" fill="none" fill-rule="evenodd"/><path d="M3164.25 1822.5C3148.39 1818.18 3136.5 1800.14 3136.5 1778.54 3136.5 1756.94 3148.52 1738.7 3164.5 1734.5" stroke="#FFCE00" stroke-width="4.58333" stroke-linecap="round" stroke-linejoin="round" stroke-miterlimit="10" fill="none" fill-rule="evenodd"/><path d="M3159.75 1822.5C3176.18 1818.18 3188.5 1800.14 3188.5 1778.54 3188.5 1756.94 3176.05 1738.7 3159.5 1734.5" stroke="#FFCE00" stroke-width="4.58333" stroke-linecap="round" stroke-linejoin="round" stroke-miterlimit="10" fill="none" fill-rule="evenodd"/><path d="M3162.5 1734.5 3162.5 1822.5" stroke="#FFFFFF" stroke-width="4.58333" stroke-linecap="round" stroke-linejoin="round" stroke-miterlimit="10" fill="none" fill-rule="evenodd"/><path d="M3162.5 1734.5 3162.5 1822.5" stroke="#FFCE00" stroke-width="4.58333" stroke-linecap="round" stroke-linejoin="round" stroke-miterlimit="10" fill="none" fill-rule="evenodd"/><path d="M3125.5 1800.5 3135.7 1802.22C3153.8 1805.26 3172.2 1805.26 3190.3 1802.22L3200.5 1800.5" stroke="#FFCE00" stroke-width="4.58333" stroke-linecap="round" stroke-linejoin="round" stroke-miterlimit="10" fill="none" fill-rule="evenodd"/><path d="M3118.5 1778.5 3206.5 1778.5" stroke="#FFCE00" stroke-width="4.58333" stroke-linecap="round" stroke-linejoin="round" stroke-miterlimit="10" fill="none" fill-rule="evenodd"/><path d="M3125.5 1755.5 3135.7 1754.21C3153.8 1751.93 3172.2 1751.93 3190.3 1754.21L3200.5 1755.5" stroke="#FFCE00" stroke-width="4.58333" stroke-linecap="round" stroke-linejoin="round" stroke-miterlimit="10" fill="none" fill-rule="evenodd"/></g></svg>