<svg width="257" height="158" xmlns="http://www.w3.org/2000/svg" xmlns:xlink="http://www.w3.org/1999/xlink" xml:space="preserve" overflow="hidden"><g transform="translate(-3530 -1237)"><path d="M3774.7 1239.5C3780.11 1239.5 3784.5 1243.9 3784.5 1249.32L3784.5 1382.68C3784.5 1388.1 3780.11 1392.5 3774.7 1392.5L3542.3 1392.5C3536.89 1392.5 3532.5 1388.1 3532.5 1382.68L3532.5 1249.32C3532.5 1243.9 3536.89 1239.5 3542.3 1239.5Z" stroke="#FFFFFF" stroke-width="4.58333" stroke-linecap="round" stroke-linejoin="round" stroke-miterlimit="10" fill="none" fill-rule="evenodd"/><path d="M3553.5 1283.5 3661.5 1283.5" stroke="#FFCE00" stroke-width="4.58333" stroke-linecap="round" stroke-linejoin="round" stroke-miterlimit="10" fill="none" fill-rule="evenodd"/><path d="M3553.5 1305.5 3661.5 1305.5" stroke="#FFCE00" stroke-width="4.58333" stroke-linecap="round" stroke-linejoin="round" stroke-miterlimit="10" fill="none" fill-rule="evenodd"/><path d="M3553.5 1326.5 3661.5 1326.5" stroke="#FFCE00" stroke-width="4.58333" stroke-linecap="round" stroke-linejoin="round" stroke-miterlimit="10" fill="none" fill-rule="evenodd"/><path d="M3553.5 1348.5 3607.5 1348.5" stroke="#FFCE00" stroke-width="4.58333" stroke-linecap="round" stroke-linejoin="round" stroke-miterlimit="10" fill="none" fill-rule="evenodd"/><path d="M3748.5 1297.5C3748.5 1311.31 3737.31 1322.5 3723.5 1322.5 3709.69 1322.5 3698.5 1311.31 3698.5 1297.5 3698.5 1283.69 3709.69 1272.5 3723.5 1272.5 3737.31 1272.5 3748.5 1283.69 3748.5 1297.5Z" stroke="#FFCE00" stroke-width="4.58333" stroke-linecap="round" stroke-linejoin="round" stroke-miterlimit="10" fill="none" fill-rule="evenodd"/><path d="M3748.5 1330.5 3748.5 1375.5 3724.49 1361.91 3700.5 1375.5 3700.5 1332.03" stroke="#FFCE00" stroke-width="4.58333" stroke-linecap="round" stroke-linejoin="round" stroke-miterlimit="10" fill="none" fill-rule="evenodd"/><path d="M3762.72 1284.82C3761.28 1280.42 3758.06 1277.1 3754.13 1275.38 3753.68 1271.11 3751.51 1267.04 3747.74 1264.32 3743.98 1261.61 3739.42 1260.8 3735.2 1261.7 3732.33 1258.51 3728.16 1256.5 3723.5 1256.5 3718.84 1256.5 3714.69 1258.51 3711.8 1261.7 3707.6 1260.8 3703.04 1261.61 3699.26 1264.32 3695.49 1267.04 3693.32 1271.11 3692.87 1275.38 3688.94 1277.12 3685.72 1280.44 3684.28 1284.82 3682.85 1289.23 3683.49 1293.78 3685.64 1297.5 3683.48 1301.22 3682.83 1305.77 3684.28 1310.18 3685.72 1314.58 3688.94 1317.9 3692.87 1319.62 3693.32 1323.89 3695.49 1327.96 3699.26 1330.68 3703.04 1333.39 3707.58 1334.2 3711.8 1333.3 3714.69 1336.49 3718.84 1338.5 3723.5 1338.5 3728.16 1338.5 3732.31 1336.49 3735.2 1333.3 3739.4 1334.2 3743.98 1333.39 3747.74 1330.68 3751.49 1327.96 3753.68 1323.89 3754.13 1319.62 3758.06 1317.88 3761.28 1314.56 3762.72 1310.18 3764.15 1305.77 3763.51 1301.22 3761.36 1297.5 3763.53 1293.78 3764.17 1289.23 3762.72 1284.82Z" stroke="#FFFFFF" stroke-width="4.58333" stroke-linecap="round" stroke-linejoin="round" stroke-miterlimit="10" fill="none" fill-rule="evenodd"/></g></svg>