<?xml version="1.0" encoding="UTF-8"?>
<svg width="1200pt" height="1200pt" version="1.1" viewBox="0 0 1200 1200" xmlns="http://www.w3.org/2000/svg">
 <path d="m1200 600c0 214.36-114.36 412.44-300 519.62-185.64 107.18-414.36 107.18-600 0-185.64-107.18-300-305.26-300-519.62s114.36-412.44 300-519.62c185.64-107.18 414.36-107.18 600 0 185.64 107.18 300 305.26 300 519.62z" fill="#ffd001"/>
 <path d="m520.65 728.47c22.969 0 41.562 18.625 41.562 41.562 0 22.969-18.598 41.562-41.562 41.562-22.969 0-41.562-18.598-41.562-41.562 0-22.938 18.598-41.562 41.562-41.562z" fill="#131313"/>
 <path d="m747.37 637.79c22.969 0 41.562 18.625 41.562 41.562 0 22.969-18.598 41.562-41.562 41.562-22.969 0-41.562-18.598-41.562-41.562 0-22.938 18.598-41.562 41.562-41.562z" fill="#131313"/>
 <path d="m581.11 592.45c22.969 0 41.562 18.625 41.562 41.562 0 22.969-18.598 41.562-41.562 41.562-22.969 0-41.562-18.598-41.562-41.562 0-22.938 18.598-41.562 41.562-41.562z" fill="#131313"/>
 <path d="m482.87 441.3c22.969 0 41.562 18.625 41.562 41.562 0 22.969-18.598 41.562-41.562 41.562-22.969 0-41.562-18.598-41.562-41.562 0-22.938 18.598-41.562 41.562-41.562z" fill="#131313"/>
 <path d="m259.93 600c0-192.77 166.32-349.75 358.38-339.57l36.695 1.9492-8.9727 35.629c-1.3281 5.1641-2.0078 10.598-2.0078 16.234 0 20.695 9.3867 38.762 23.586 50.094l17.949 14.348-9.0039 21.137c-3.2188 7.5273-4.9883 15.824-4.9883 24.59 0 34.656 28.074 62.73 62.699 62.73 13.992 0 26.832-4.5469 37.254-12.25l24.68-18.242 17.891 24.914c11.426 15.941 30.023 26.242 51.012 26.242 8.8867 0 17.27-1.832 24.887-5.1367l33.359-14.438 8.1172 35.426c5.6367 24.562 8.6211 50.125 8.6211 76.344 0 187.81-152.26 340.07-340.07 340.07-187.81 0-340.07-152.26-340.07-340.07zm323.78-279.05c-143.94 9.0039-263.32 131.63-263.32 279.05 0 154.42 125.19 279.61 279.61 279.61s279.61-125.19 279.61-279.61c0-10.953-0.64844-21.758-1.8594-32.383-4.1641 0.41406-8.3828 0.64844-12.664 0.64844-31.32 0-59.895-11.719-81.594-30.938-15.086 6.6133-31.734 10.273-49.238 10.273-68.016 0-123.16-55.145-123.16-123.19 0-9.5352 1.0625-18.863 3.1602-27.809-17.801-20.34-29.02-46.73-30.555-75.664z" fill="#131313" fill-rule="evenodd"/>
</svg>
