<svg width="273" height="225" xmlns="http://www.w3.org/2000/svg" xmlns:xlink="http://www.w3.org/1999/xlink" xml:space="preserve" overflow="hidden"><g transform="translate(-1532 -1201)"><path d="M1544.38 1203.5 1792.64 1203.5C1798.08 1203.5 1802.5 1207.94 1802.5 1213.41L1802.5 1386.5 1534.5 1386.5 1534.5 1213.41C1534.5 1207.94 1538.92 1203.5 1544.36 1203.5Z" stroke="#FFCE00" stroke-width="4.58333" stroke-linecap="round" stroke-linejoin="round" stroke-miterlimit="10" fill="none" fill-rule="evenodd"/><path d="M1534.5 1386.5 1802.5 1386.5 1802.5 1413.71C1802.5 1419.11 1798.08 1423.5 1792.64 1423.5L1544.38 1423.5C1538.94 1423.5 1534.52 1419.11 1534.52 1413.71L1534.52 1386.5 1534.52 1386.5Z" stroke="#FFFFFF" stroke-width="4.58333" stroke-linecap="round" stroke-linejoin="round" stroke-miterlimit="10" fill="none" fill-rule="evenodd"/><path d="M1655.6 1341.5C1658.86 1341.5 1661.5 1344.15 1661.5 1347.41L1661.5 1366.59C1661.5 1369.85 1658.86 1372.5 1655.6 1372.5L1551.4 1372.5C1548.14 1372.5 1545.5 1369.85 1545.5 1366.59L1545.5 1347.41C1545.5 1344.15 1548.14 1341.5 1551.4 1341.5Z" stroke="#FFFFFF" stroke-width="4.58333" stroke-linecap="round" stroke-linejoin="round" stroke-miterlimit="10" fill="none" fill-rule="evenodd"/><path d="M1557.5 1363.5 1557.5 1349.5" stroke="#FFCE00" stroke-width="4.58333" stroke-linecap="round" stroke-linejoin="round" stroke-miterlimit="10" fill="none" fill-rule="evenodd"/><path d="M1569.5 1363.5 1569.5 1349.5" stroke="#FFCE00" stroke-width="4.58333" stroke-linecap="round" stroke-linejoin="round" stroke-miterlimit="10" fill="none" fill-rule="evenodd"/><path d="M1645.5 1356.5C1645.5 1359.26 1643.26 1361.5 1640.5 1361.5 1637.74 1361.5 1635.5 1359.26 1635.5 1356.5 1635.5 1353.74 1637.74 1351.5 1640.5 1351.5 1643.26 1351.5 1645.5 1353.74 1645.5 1356.5Z" stroke="#FFCE00" stroke-width="4.58333" stroke-linecap="round" stroke-linejoin="round" stroke-miterlimit="10" fill="none" fill-rule="evenodd"/><path d="M1655.6 1299.5C1658.86 1299.5 1661.5 1302.15 1661.5 1305.41L1661.5 1324.59C1661.5 1327.85 1658.86 1330.5 1655.6 1330.5L1551.4 1330.5C1548.14 1330.5 1545.5 1327.85 1545.5 1324.59L1545.5 1305.41C1545.5 1302.15 1548.14 1299.5 1551.4 1299.5Z" stroke="#FFFFFF" stroke-width="4.58333" stroke-linecap="round" stroke-linejoin="round" stroke-miterlimit="10" fill="none" fill-rule="evenodd"/><path d="M1557.5 1322.5 1557.5 1308.5" stroke="#FFCE00" stroke-width="4.58333" stroke-linecap="round" stroke-linejoin="round" stroke-miterlimit="10" fill="none" fill-rule="evenodd"/><path d="M1569.5 1322.5 1569.5 1308.5" stroke="#FFCE00" stroke-width="4.58333" stroke-linecap="round" stroke-linejoin="round" stroke-miterlimit="10" fill="none" fill-rule="evenodd"/><path d="M1645.5 1315.5C1645.5 1318.26 1643.26 1320.5 1640.5 1320.5 1637.74 1320.5 1635.5 1318.26 1635.5 1315.5 1635.5 1312.74 1637.74 1310.5 1640.5 1310.5 1643.26 1310.5 1645.5 1312.74 1645.5 1315.5Z" stroke="#FFCE00" stroke-width="4.58333" stroke-linecap="round" stroke-linejoin="round" stroke-miterlimit="10" fill="none" fill-rule="evenodd"/><path d="M1655.6 1258.5C1658.86 1258.5 1661.5 1261.15 1661.5 1264.41L1661.5 1283.59C1661.5 1286.85 1658.86 1289.5 1655.6 1289.5L1551.4 1289.5C1548.14 1289.5 1545.5 1286.85 1545.5 1283.59L1545.5 1264.41C1545.5 1261.15 1548.14 1258.5 1551.4 1258.5Z" stroke="#FFFFFF" stroke-width="4.58333" stroke-linecap="round" stroke-linejoin="round" stroke-miterlimit="10" fill="none" fill-rule="evenodd"/><path d="M1557.5 1281.5 1557.5 1267.5" stroke="#FFCE00" stroke-width="4.58333" stroke-linecap="round" stroke-linejoin="round" stroke-miterlimit="10" fill="none" fill-rule="evenodd"/><path d="M1569.5 1281.5 1569.5 1267.5" stroke="#FFCE00" stroke-width="4.58333" stroke-linecap="round" stroke-linejoin="round" stroke-miterlimit="10" fill="none" fill-rule="evenodd"/><path d="M1645.5 1274.5C1645.5 1277.26 1643.26 1279.5 1640.5 1279.5 1637.74 1279.5 1635.5 1277.26 1635.5 1274.5 1635.5 1271.74 1637.74 1269.5 1640.5 1269.5 1643.26 1269.5 1645.5 1271.74 1645.5 1274.5Z" stroke="#FFCE00" stroke-width="4.58333" stroke-linecap="round" stroke-linejoin="round" stroke-miterlimit="10" fill="none" fill-rule="evenodd"/><path d="M1655.6 1217.5C1658.86 1217.5 1661.5 1220.15 1661.5 1223.41L1661.5 1242.59C1661.5 1245.85 1658.86 1248.5 1655.6 1248.5L1551.4 1248.5C1548.14 1248.5 1545.5 1245.85 1545.5 1242.59L1545.5 1223.41C1545.5 1220.15 1548.14 1217.5 1551.4 1217.5Z" stroke="#FFFFFF" stroke-width="4.58333" stroke-linecap="round" stroke-linejoin="round" stroke-miterlimit="10" fill="none" fill-rule="evenodd"/><path d="M1557.5 1240.5 1557.5 1226.5" stroke="#FFCE00" stroke-width="4.58333" stroke-linecap="round" stroke-linejoin="round" stroke-miterlimit="10" fill="none" fill-rule="evenodd"/><path d="M1569.5 1240.5 1569.5 1226.5" stroke="#FFCE00" stroke-width="4.58333" stroke-linecap="round" stroke-linejoin="round" stroke-miterlimit="10" fill="none" fill-rule="evenodd"/><path d="M1645.5 1233.5C1645.5 1236.26 1643.26 1238.5 1640.5 1238.5 1637.74 1238.5 1635.5 1236.26 1635.5 1233.5 1635.5 1230.74 1637.74 1228.5 1640.5 1228.5 1643.26 1228.5 1645.5 1230.74 1645.5 1233.5Z" stroke="#FFCE00" stroke-width="4.58333" stroke-linecap="round" stroke-linejoin="round" stroke-miterlimit="10" fill="none" fill-rule="evenodd"/><path d="M1782.6 1341.5C1785.86 1341.5 1788.5 1344.15 1788.5 1347.41L1788.5 1366.59C1788.5 1369.85 1785.86 1372.5 1782.6 1372.5L1678.4 1372.5C1675.14 1372.5 1672.5 1369.85 1672.5 1366.59L1672.5 1347.41C1672.5 1344.15 1675.14 1341.5 1678.4 1341.5Z" stroke="#FFFFFF" stroke-width="4.58333" stroke-linecap="round" stroke-linejoin="round" stroke-miterlimit="10" fill="none" fill-rule="evenodd"/><path d="M1684.5 1363.5 1684.5 1349.5" stroke="#FFCE00" stroke-width="4.58333" stroke-linecap="round" stroke-linejoin="round" stroke-miterlimit="10" fill="none" fill-rule="evenodd"/><path d="M1696.5 1363.5 1696.5 1349.5" stroke="#FFCE00" stroke-width="4.58333" stroke-linecap="round" stroke-linejoin="round" stroke-miterlimit="10" fill="none" fill-rule="evenodd"/><path d="M1772.5 1356.5C1772.5 1359.26 1770.26 1361.5 1767.5 1361.5 1764.74 1361.5 1762.5 1359.26 1762.5 1356.5 1762.5 1353.74 1764.74 1351.5 1767.5 1351.5 1770.26 1351.5 1772.5 1353.74 1772.5 1356.5Z" stroke="#FFCE00" stroke-width="4.58333" stroke-linecap="round" stroke-linejoin="round" stroke-miterlimit="10" fill="none" fill-rule="evenodd"/><path d="M1782.6 1299.5C1785.86 1299.5 1788.5 1302.15 1788.5 1305.41L1788.5 1324.59C1788.5 1327.85 1785.86 1330.5 1782.6 1330.5L1678.4 1330.5C1675.14 1330.5 1672.5 1327.85 1672.5 1324.59L1672.5 1305.41C1672.5 1302.15 1675.14 1299.5 1678.4 1299.5Z" stroke="#FFFFFF" stroke-width="4.58333" stroke-linecap="round" stroke-linejoin="round" stroke-miterlimit="10" fill="none" fill-rule="evenodd"/><path d="M1684.5 1322.5 1684.5 1308.5" stroke="#FFCE00" stroke-width="4.58333" stroke-linecap="round" stroke-linejoin="round" stroke-miterlimit="10" fill="none" fill-rule="evenodd"/><path d="M1696.5 1322.5 1696.5 1308.5" stroke="#FFCE00" stroke-width="4.58333" stroke-linecap="round" stroke-linejoin="round" stroke-miterlimit="10" fill="none" fill-rule="evenodd"/><path d="M1772.5 1315.5C1772.5 1318.26 1770.26 1320.5 1767.5 1320.5 1764.74 1320.5 1762.5 1318.26 1762.5 1315.5 1762.5 1312.74 1764.74 1310.5 1767.5 1310.5 1770.26 1310.5 1772.5 1312.74 1772.5 1315.5Z" stroke="#FFCE00" stroke-width="4.58333" stroke-linecap="round" stroke-linejoin="round" stroke-miterlimit="10" fill="none" fill-rule="evenodd"/><path d="M1782.6 1258.5C1785.86 1258.5 1788.5 1261.15 1788.5 1264.41L1788.5 1283.59C1788.5 1286.85 1785.86 1289.5 1782.6 1289.5L1678.4 1289.5C1675.14 1289.5 1672.5 1286.85 1672.5 1283.59L1672.5 1264.41C1672.5 1261.15 1675.14 1258.5 1678.4 1258.5Z" stroke="#FFFFFF" stroke-width="4.58333" stroke-linecap="round" stroke-linejoin="round" stroke-miterlimit="10" fill="none" fill-rule="evenodd"/><path d="M1684.5 1281.5 1684.5 1267.5" stroke="#FFCE00" stroke-width="4.58333" stroke-linecap="round" stroke-linejoin="round" stroke-miterlimit="10" fill="none" fill-rule="evenodd"/><path d="M1696.5 1281.5 1696.5 1267.5" stroke="#FFCE00" stroke-width="4.58333" stroke-linecap="round" stroke-linejoin="round" stroke-miterlimit="10" fill="none" fill-rule="evenodd"/><path d="M1772.5 1274.5C1772.5 1277.26 1770.26 1279.5 1767.5 1279.5 1764.74 1279.5 1762.5 1277.26 1762.5 1274.5 1762.5 1271.74 1764.74 1269.5 1767.5 1269.5 1770.26 1269.5 1772.5 1271.74 1772.5 1274.5Z" stroke="#FFCE00" stroke-width="4.58333" stroke-linecap="round" stroke-linejoin="round" stroke-miterlimit="10" fill="none" fill-rule="evenodd"/><path d="M1782.6 1217.5C1785.86 1217.5 1788.5 1220.15 1788.5 1223.41L1788.5 1242.59C1788.5 1245.85 1785.86 1248.5 1782.6 1248.5L1678.4 1248.5C1675.14 1248.5 1672.5 1245.85 1672.5 1242.59L1672.5 1223.41C1672.5 1220.15 1675.14 1217.5 1678.4 1217.5Z" stroke="#FFFFFF" stroke-width="4.58333" stroke-linecap="round" stroke-linejoin="round" stroke-miterlimit="10" fill="none" fill-rule="evenodd"/><path d="M1684.5 1240.5 1684.5 1226.5" stroke="#FFCE00" stroke-width="4.58333" stroke-linecap="round" stroke-linejoin="round" stroke-miterlimit="10" fill="none" fill-rule="evenodd"/><path d="M1696.5 1240.5 1696.5 1226.5" stroke="#FFCE00" stroke-width="4.58333" stroke-linecap="round" stroke-linejoin="round" stroke-miterlimit="10" fill="none" fill-rule="evenodd"/><path d="M1772.5 1233.5C1772.5 1236.26 1770.26 1238.5 1767.5 1238.5 1764.74 1238.5 1762.5 1236.26 1762.5 1233.5 1762.5 1230.74 1764.74 1228.5 1767.5 1228.5 1770.26 1228.5 1772.5 1230.74 1772.5 1233.5Z" stroke="#FFCE00" stroke-width="4.58333" stroke-linecap="round" stroke-linejoin="round" stroke-miterlimit="10" fill="none" fill-rule="evenodd"/><path d="M1784.5 1405C1784.5 1408.59 1781.59 1411.5 1778 1411.5 1774.41 1411.5 1771.5 1408.59 1771.5 1405 1771.5 1401.41 1774.41 1398.5 1778 1398.5 1781.59 1398.5 1784.5 1401.41 1784.5 1405Z" stroke="#FFCE00" stroke-width="4.58333" stroke-linecap="round" stroke-linejoin="round" stroke-miterlimit="10" fill="none" fill-rule="evenodd"/></g></svg>