<svg width="293" height="210" xmlns="http://www.w3.org/2000/svg" xmlns:xlink="http://www.w3.org/1999/xlink" xml:space="preserve" overflow="hidden"><g transform="translate(-2491 -739)"><path d="M2503.55 905.5C2498 905.5 2493.5 901.008 2493.5 895.473L2493.5 751.527C2493.5 745.992 2498 741.5 2503.55 741.5L2727.45 741.5C2733 741.5 2737.5 745.992 2737.5 751.527L2737.5 818.908" stroke="#FFCE00" stroke-width="4.58333" stroke-linecap="round" stroke-linejoin="round" stroke-miterlimit="10" fill="none" fill-rule="evenodd"/><path d="M2700.63 905.5 2504.75 905.5C2498.53 905.5 2493.5 900.568 2493.5 894.472L2493.5 876.5 2701.5 876.5" stroke="#FFFFFF" stroke-width="4.58333" stroke-linecap="round" stroke-linejoin="round" stroke-miterlimit="10" fill="none" fill-rule="evenodd"/><path d="M2645.5 946.5 2585.5 946.5 2592.64 905.5 2638.36 905.5 2645.5 946.5Z" stroke="#FFFFFF" stroke-width="4.58333" stroke-linecap="round" stroke-linejoin="round" stroke-miterlimit="10" fill="none" fill-rule="evenodd"/><path d="M2556.5 946.5 2674.5 946.5" stroke="#FFFFFF" stroke-width="4.58333" stroke-linecap="round" stroke-linejoin="round" stroke-miterlimit="10" fill="none" fill-rule="evenodd"/><path d="M2621.5 891C2621.5 894.59 2618.81 897.5 2615.5 897.5 2612.19 897.5 2609.5 894.59 2609.5 891 2609.5 887.41 2612.19 884.5 2615.5 884.5 2618.81 884.5 2621.5 887.41 2621.5 891Z" stroke="#FFFFFF" stroke-width="4.58333" stroke-linecap="round" stroke-linejoin="round" stroke-miterlimit="10" fill="none" fill-rule="evenodd"/><path d="M2773.5 920.618 2773.5 946.5 2701.5 946.5 2701.5 819.5 2773.5 819.5 2773.5 933.629" stroke="#FFCE00" stroke-width="4.58333" stroke-linecap="round" stroke-linejoin="round" stroke-miterlimit="10" fill="none" fill-rule="evenodd"/><path d="M2723.5 845.5 2750.5 845.5" stroke="#FFFFFF" stroke-width="4.58333" stroke-linecap="round" stroke-linejoin="round" stroke-miterlimit="10" fill="none" fill-rule="evenodd"/><path d="M2723.5 862.5 2750.5 862.5" stroke="#FFFFFF" stroke-width="4.58333" stroke-linecap="round" stroke-linejoin="round" stroke-miterlimit="10" fill="none" fill-rule="evenodd"/><path d="M2693.5 946.5 2781.5 946.5" stroke="#FFFFFF" stroke-width="4.58333" stroke-linecap="round" stroke-linejoin="round" stroke-miterlimit="10" fill="none" fill-rule="evenodd"/></g></svg>