<svg width="262" height="200" xmlns="http://www.w3.org/2000/svg" xmlns:xlink="http://www.w3.org/1999/xlink" xml:space="preserve" overflow="hidden"><g transform="translate(-2032 -1215)"><path d="M2123.5 1303.53 2161.02 1303.53 2161.02 1260.95C2161.02 1259.25 2163.58 1257.53 2166.13 1259.25L2214.75 1303.53 2234.37 1303.53 2234.37 1260.1C2234.37 1257.53 2236.92 1256.68 2238.62 1258.4L2288.95 1300.94C2290.63 1302.66 2291.5 1305.19 2291.5 1307.77L2291.5 1412.5 2123.5 1412.5" stroke="#FFCE00" stroke-width="4.58333" stroke-linecap="round" stroke-linejoin="round" stroke-miterlimit="10" fill="none" fill-rule="evenodd"/><path d="M2034.5 1217.5 2123.5 1217.5 2123.5 1412.5 2034.5 1412.5Z" stroke="#FFCE00" stroke-width="4.58333" stroke-linecap="round" stroke-linejoin="round" stroke-miterlimit="10" fill="none" fill-rule="evenodd"/><path d="M2056.5 1345.5 2101.5 1345.5 2101.5 1412.5 2056.5 1412.5Z" stroke="#FFCE00" stroke-width="4.58333" stroke-linecap="round" stroke-linejoin="round" stroke-miterlimit="10" fill="none" fill-rule="evenodd"/><path d="M2056.5 1251.5 2101.5 1251.5" stroke="#FFFFFF" stroke-width="4.58333" stroke-linecap="round" stroke-linejoin="round" stroke-miterlimit="10" fill="none" fill-rule="evenodd"/><path d="M2146.5 1369.5 2170.5 1369.5 2170.5 1393.5 2146.5 1393.5Z" stroke="#FFFFFF" stroke-width="4.58333" stroke-linecap="round" stroke-linejoin="round" stroke-miterlimit="10" fill="none" fill-rule="evenodd"/><path d="M2195.5 1369.5 2219.5 1369.5 2219.5 1393.5 2195.5 1393.5Z" stroke="#FFFFFF" stroke-width="4.58333" stroke-linecap="round" stroke-linejoin="round" stroke-miterlimit="10" fill="none" fill-rule="evenodd"/><path d="M2244.5 1369.5 2268.5 1369.5 2268.5 1393.5 2244.5 1393.5Z" stroke="#FFFFFF" stroke-width="4.58333" stroke-linecap="round" stroke-linejoin="round" stroke-miterlimit="10" fill="none" fill-rule="evenodd"/><path d="M2146.5 1327.5 2170.5 1327.5 2170.5 1350.5 2146.5 1350.5Z" stroke="#FFFFFF" stroke-width="4.58333" stroke-linecap="round" stroke-linejoin="round" stroke-miterlimit="10" fill="none" fill-rule="evenodd"/><path d="M2195.5 1327.5 2219.5 1327.5 2219.5 1350.5 2195.5 1350.5Z" stroke="#FFFFFF" stroke-width="4.58333" stroke-linecap="round" stroke-linejoin="round" stroke-miterlimit="10" fill="none" fill-rule="evenodd"/><path d="M2244.5 1327.5 2268.5 1327.5 2268.5 1350.5 2244.5 1350.5Z" stroke="#FFFFFF" stroke-width="4.58333" stroke-linecap="round" stroke-linejoin="round" stroke-miterlimit="10" fill="none" fill-rule="evenodd"/></g></svg>