<svg width="253" height="252" xmlns="http://www.w3.org/2000/svg" xmlns:xlink="http://www.w3.org/1999/xlink" xml:space="preserve" overflow="hidden"><g transform="translate(-3035 -1181)"><path d="M3078.5 1268.5 3111.5 1268.5 3111.5 1367.5 3078.5 1367.5Z" stroke="#FFCE00" stroke-width="4.58333" stroke-linecap="round" stroke-linejoin="round" stroke-miterlimit="10" fill="none" fill-rule="evenodd"/><path d="M3145.5 1268.5 3178.5 1268.5 3178.5 1367.5 3145.5 1367.5Z" stroke="#FFCE00" stroke-width="4.58333" stroke-linecap="round" stroke-linejoin="round" stroke-miterlimit="10" fill="none" fill-rule="evenodd"/><path d="M3212.5 1268.5 3245.5 1268.5 3245.5 1367.5 3212.5 1367.5Z" stroke="#FFCE00" stroke-width="4.58333" stroke-linecap="round" stroke-linejoin="round" stroke-miterlimit="10" fill="none" fill-rule="evenodd"/><path d="M3069.5 1379.5 3069.5 1379.5 3069.5 1370.47C3069.5 1368.97 3070.6 1367.5 3071.75 1367.5L3116.19 1367.5C3118.4 1367.5 3119.5 1368.99 3119.5 1370.47L3119.5 1379.5" stroke="#FFFFFF" stroke-width="4.58333" stroke-linecap="round" stroke-linejoin="round" stroke-miterlimit="10" fill="none" fill-rule="evenodd"/><path d="M3134.5 1379.5 3134.5 1379.5 3134.5 1370.47C3134.5 1368.97 3135.74 1367.5 3136.98 1367.5L3186.98 1367.5C3188.26 1367.5 3189.5 1368.99 3189.5 1370.47L3189.5 1379.5" stroke="#FFFFFF" stroke-width="4.58333" stroke-linecap="round" stroke-linejoin="round" stroke-miterlimit="10" fill="none" fill-rule="evenodd"/><path d="M3199.5 1379.5 3199.5 1379.5 3199.5 1370.47C3199.5 1368.97 3200.72 1367.5 3203.15 1367.5L3252.04 1367.5C3253.28 1367.5 3254.5 1368.99 3254.5 1370.47L3254.5 1379.5" stroke="#FFFFFF" stroke-width="4.58333" stroke-linecap="round" stroke-linejoin="round" stroke-miterlimit="10" fill="none" fill-rule="evenodd"/><path d="M3069.5 1256.5 3069.5 1256.5 3069.5 1265.53C3069.5 1267.03 3070.6 1268.5 3071.75 1268.5L3116.19 1268.5C3118.4 1268.5 3119.5 1267 3119.5 1265.53L3119.5 1256.5" stroke="#FFFFFF" stroke-width="4.58333" stroke-linecap="round" stroke-linejoin="round" stroke-miterlimit="10" fill="none" fill-rule="evenodd"/><path d="M3134.5 1256.5 3134.5 1256.5 3134.5 1265.53C3134.5 1267.03 3135.74 1268.5 3136.98 1268.5L3186.98 1268.5C3188.26 1268.5 3189.5 1267 3189.5 1265.53L3189.5 1256.5" stroke="#FFFFFF" stroke-width="4.58333" stroke-linecap="round" stroke-linejoin="round" stroke-miterlimit="10" fill="none" fill-rule="evenodd"/><path d="M3199.5 1256.5 3199.5 1256.5 3199.5 1265.53C3199.5 1267.03 3200.72 1268.5 3203.15 1268.5L3252.04 1268.5C3253.28 1268.5 3254.5 1267 3254.5 1265.53L3254.5 1256.5" stroke="#FFFFFF" stroke-width="4.58333" stroke-linecap="round" stroke-linejoin="round" stroke-miterlimit="10" fill="none" fill-rule="evenodd"/><path d="M3055.5 1379.5 3268.5 1379.5 3268.5 1396.5 3055.5 1396.5Z" stroke="#FFFFFF" stroke-width="4.58333" stroke-linecap="round" stroke-linejoin="round" stroke-miterlimit="10" fill="none" fill-rule="evenodd"/><path d="M3037.5 1396.5 3285.5 1396.5 3285.5 1430.5 3037.5 1430.5Z" stroke="#FFCE00" stroke-width="4.58333" stroke-linecap="round" stroke-linejoin="round" stroke-miterlimit="10" fill="none" fill-rule="evenodd"/><path d="M3285.5 1227.75 3161.06 1183.5 3037.5 1227.75 3037.5 1256.5 3285.5 1256.5 3285.5 1227.75Z" stroke="#FFCE00" stroke-width="4.58333" stroke-linecap="round" stroke-linejoin="round" stroke-miterlimit="10" fill="none" fill-rule="evenodd"/><path d="M3177.5 1222C3177.5 1230.56 3170.56 1237.5 3162 1237.5 3153.44 1237.5 3146.5 1230.56 3146.5 1222 3146.5 1213.44 3153.44 1206.5 3162 1206.5 3170.56 1206.5 3177.5 1213.44 3177.5 1222Z" stroke="#FFFFFF" stroke-width="4.58333" stroke-linecap="round" stroke-linejoin="round" stroke-miterlimit="10" fill="none" fill-rule="evenodd"/></g></svg>