<svg width="253" height="253" xmlns="http://www.w3.org/2000/svg" xmlns:xlink="http://www.w3.org/1999/xlink" xml:space="preserve" overflow="hidden"><g transform="translate(-2527 -1180)"><path d="M2653.5 1430.5 2653.5 1377.5" stroke="#FFFFFF" stroke-width="4.58333" stroke-linecap="round" stroke-linejoin="round" stroke-miterlimit="10" fill="none" fill-rule="evenodd"/><path d="M2703.76 1214.5 2739.5 1214.5 2739.5 1430.5 2567.5 1430.5 2567.5 1214.5 2603.24 1214.5" stroke="#FFCE00" stroke-width="4.58333" stroke-linecap="round" stroke-linejoin="round" stroke-miterlimit="10" fill="none" fill-rule="evenodd"/><path d="M2529.5 1325.5 2567.5 1325.5 2567.5 1430.5 2529.5 1430.5Z" stroke="#FFCE00" stroke-width="4.58333" stroke-linecap="round" stroke-linejoin="round" stroke-miterlimit="10" fill="none" fill-rule="evenodd"/><path d="M2739.5 1325.5 2777.5 1325.5 2777.5 1430.5 2739.5 1430.5Z" stroke="#FFCE00" stroke-width="4.58333" stroke-linecap="round" stroke-linejoin="round" stroke-miterlimit="10" fill="none" fill-rule="evenodd"/><path d="M2591.5 1325.5 2615.5 1325.5 2615.5 1349.5 2591.5 1349.5Z" stroke="#FFFFFF" stroke-width="4.58333" stroke-linecap="round" stroke-linejoin="round" stroke-miterlimit="10" fill="none" fill-rule="evenodd"/><path d="M2641.5 1325.5 2665.5 1325.5 2665.5 1349.5 2641.5 1349.5Z" stroke="#FFFFFF" stroke-width="4.58333" stroke-linecap="round" stroke-linejoin="round" stroke-miterlimit="10" fill="none" fill-rule="evenodd"/><path d="M2691.5 1325.5 2715.5 1325.5 2715.5 1349.5 2691.5 1349.5Z" stroke="#FFFFFF" stroke-width="4.58333" stroke-linecap="round" stroke-linejoin="round" stroke-miterlimit="10" fill="none" fill-rule="evenodd"/><path d="M2591.5 1273.5 2615.5 1273.5 2615.5 1297.5 2591.5 1297.5Z" stroke="#FFFFFF" stroke-width="4.58333" stroke-linecap="round" stroke-linejoin="round" stroke-miterlimit="10" fill="none" fill-rule="evenodd"/><path d="M2641.5 1273.5 2665.5 1273.5 2665.5 1297.5 2641.5 1297.5Z" stroke="#FFFFFF" stroke-width="4.58333" stroke-linecap="round" stroke-linejoin="round" stroke-miterlimit="10" fill="none" fill-rule="evenodd"/><path d="M2691.5 1273.5 2715.5 1273.5 2715.5 1297.5 2691.5 1297.5Z" stroke="#FFFFFF" stroke-width="4.58333" stroke-linecap="round" stroke-linejoin="round" stroke-miterlimit="10" fill="none" fill-rule="evenodd"/><path d="M2615.5 1377.5 2691.5 1377.5 2691.5 1430.5 2615.5 1430.5Z" stroke="#FFFFFF" stroke-width="4.58333" stroke-linecap="round" stroke-linejoin="round" stroke-miterlimit="10" fill="none" fill-rule="evenodd"/><path d="M2591.5 1377.5 2715.5 1377.5" stroke="#FFCE00" stroke-width="4.58333" stroke-linecap="round" stroke-linejoin="round" stroke-miterlimit="10" fill="none" fill-rule="evenodd"/><path d="M2660.33 1183.92 2660.33 1207.68 2684.08 1207.68 2684.08 1222.19 2660.33 1222.19 2660.33 1246.08 2645.81 1246.08 2645.81 1222.19 2621.92 1222.19 2621.92 1207.68 2645.81 1207.68 2645.81 1183.92 2660.33 1183.92M2660.33 1180 2645.81 1180C2643.66 1180 2641.9 1181.76 2641.9 1183.92L2641.9 1203.76 2621.92 1203.76C2619.76 1203.76 2618 1205.52 2618 1207.68L2618 1222.19C2618 1224.34 2619.76 1226.11 2621.92 1226.11L2641.9 1226.11 2641.9 1246.08C2641.9 1248.24 2643.66 1250 2645.81 1250L2660.33 1250C2662.48 1250 2664.24 1248.24 2664.24 1246.08L2664.24 1226.11 2684.08 1226.11C2686.24 1226.11 2688 1224.34 2688 1222.19L2688 1207.68C2688 1205.52 2686.24 1203.76 2684.08 1203.76L2664.24 1203.76 2664.24 1183.92C2664.24 1181.76 2662.48 1180 2660.33 1180L2660.33 1180Z" fill="#FFFFFF" fill-rule="evenodd"/></g></svg>