<svg width="640" height="537" xmlns="http://www.w3.org/2000/svg" xmlns:xlink="http://www.w3.org/1999/xlink" xml:space="preserve" overflow="hidden"><defs><clipPath id="clip0"><rect x="640" y="183" width="640" height="537"/></clipPath></defs><g clip-path="url(#clip0)" transform="translate(-640 -183)"><path d="M258.012 372.559 128.438 666.069 128.326 666.065 257.949 372.494 258.012 372.559 258.012 372.559Z" stroke="#FED108" stroke-width="1.33251" stroke-linecap="round" stroke-linejoin="round" fill="#FFD101" transform="matrix(1.0006 0 0 1 640.017 183)"/><path d="M326.562 390.714 258.012 372.559 257.949 372.494 326.511 390.649 326.562 390.714 326.562 390.714Z" stroke="#FED108" stroke-width="1.33251" stroke-linecap="round" stroke-linejoin="round" fill="#FFD101" transform="matrix(1.0006 0 0 1 640.017 183)"/><path d="M128.438 666.069 206.412 709.057 206.315 709.065 128.327 666.065C128.365 666.065 128.401 666.067 128.439 666.069Z" stroke="#FED108" stroke-width="1.33251" stroke-linecap="round" stroke-linejoin="round" fill="#FFD101" transform="matrix(1.0006 0 0 1 640.017 183)"/><path d="M206.412 709.057 326.562 390.713 326.511 390.648 206.314 709.064C206.347 709.062 206.379 709.058 206.411 709.055Z" stroke="#FED108" stroke-width="1.33251" stroke-linecap="round" stroke-linejoin="round" fill="#FFD101" transform="matrix(1.0006 0 0 1 640.017 183)"/><path d="M206.315 709.065 326.511 390.649 257.949 372.494 128.326 666.065 206.315 709.065 206.315 709.065Z" stroke="#FED108" stroke-width="1.33251" stroke-linecap="round" stroke-linejoin="round" fill="#FFD101" transform="matrix(1.0006 0 0 1 640.017 183)"/><path d="M326.562 390.714 206.412 709.058 128.438 666.07 258.012 372.56C280.863 378.612 303.712 384.664 326.562 390.715Z" stroke="#FED108" stroke-width="1.33251" stroke-linecap="round" stroke-linejoin="round" fill="#FFD101" transform="matrix(1.0006 0 0 1 640.017 183)"/><path d="M237.559 197.916 87.1399 178.389 87.0704 178.315 237.505 197.834 237.559 197.916 237.559 197.916Z" stroke="#FED108" stroke-width="1.33251" stroke-linecap="round" stroke-linejoin="round" fill="#FFD101" transform="matrix(1.0006 0 0 1 640.017 183)"/><path d="M210.231 248.641 237.559 197.916 237.505 197.834 210.171 248.564 210.231 248.641 210.231 248.641Z" stroke="#FED108" stroke-width="1.33251" stroke-linecap="round" stroke-linejoin="round" fill="#FFD101" transform="matrix(1.0006 0 0 1 640.017 183)"/><path d="M87.1399 178.389 56.5818 221.892 56.5038 221.822 87.0704 178.315 87.1399 178.389 87.1399 178.389Z" stroke="#FED108" stroke-width="1.33251" stroke-linecap="round" stroke-linejoin="round" fill="#FFD101" transform="matrix(1.0006 0 0 1 640.017 183)"/><path d="M56.5818 221.892 210.231 248.641 210.171 248.564 56.5038 221.822 56.5818 221.892 56.5818 221.892Z" stroke="#FED108" stroke-width="1.33251" stroke-linecap="round" stroke-linejoin="round" fill="#FFD101" transform="matrix(1.0006 0 0 1 640.017 183)"/><path d="M56.5038 221.822 210.171 248.564 237.505 197.834 87.0704 178.315 56.5038 221.822 56.5038 221.822Z" stroke="#FED108" stroke-width="1.33251" stroke-linecap="round" stroke-linejoin="round" fill="#FFD101" transform="matrix(1.0006 0 0 1 640.017 183)"/><path d="M210.231 248.641 56.5818 221.892 87.1399 178.389 237.559 197.916 210.231 248.641 210.231 248.641Z" stroke="#FED108" stroke-width="1.33251" stroke-linecap="round" stroke-linejoin="round" fill="#FFD101" transform="matrix(1.0006 0 0 1 640.017 183)"/><path d="M492.492 297.778 815.227 353.962 815.297 353.875 492.479 297.694 492.492 297.778 492.492 297.778Z" stroke="#FED108" stroke-width="1.33251" stroke-linecap="round" stroke-linejoin="round" fill="#FFD101" transform="matrix(1.0006 0 0 1 640.017 183)"/><path d="M509.205 233.182 492.492 297.778 492.479 297.694 509.197 233.09 509.205 233.182 509.205 233.182Z" stroke="#FED108" stroke-width="1.33251" stroke-linecap="round" stroke-linejoin="round" fill="#FFD101" transform="matrix(1.0006 0 0 1 640.017 183)"/><path d="M815.227 353.962 812.597 272.569 812.661 272.468 815.297 353.875 815.227 353.962 815.227 353.962Z" stroke="#FED108" stroke-width="1.33251" stroke-linecap="round" stroke-linejoin="round" fill="#FFD101" transform="matrix(1.0006 0 0 1 640.017 183)"/><path d="M812.597 272.569 509.205 233.182 509.197 233.09 812.661 272.468 812.597 272.569 812.597 272.569Z" stroke="#FED108" stroke-width="1.33251" stroke-linecap="round" stroke-linejoin="round" fill="#FFD101" transform="matrix(1.0006 0 0 1 640.017 183)"/><path d="M812.661 272.468 509.197 233.09 492.479 297.694 815.297 353.875 812.661 272.468 812.661 272.468Z" stroke="#FED108" stroke-width="1.33251" stroke-linecap="round" stroke-linejoin="round" fill="#FFD101" transform="matrix(1.0006 0 0 1 640.017 183)"/><path d="M509.205 233.182 812.597 272.569 815.227 353.962 492.492 297.778 509.205 233.182 509.205 233.182Z" stroke="#FED108" stroke-width="1.33251" stroke-linecap="round" stroke-linejoin="round" fill="#FFD101" transform="matrix(1.0006 0 0 1 640.017 183)"/><path d="M385.052 382.249 553.562 694.555 553.562 694.56 385.013 382.181 385.052 382.249 385.052 382.249Z" stroke="#FED108" stroke-width="1.33251" stroke-linecap="round" stroke-linejoin="round" fill="#FFD101" transform="matrix(1.0006 0 0 1 640.017 183)"/><path d="M456.789 341.905 385.052 382.249 385.013 382.181 456.767 341.829 456.789 341.905 456.789 341.905Z" stroke="#FED108" stroke-width="1.33251" stroke-linecap="round" stroke-linejoin="round" fill="#FFD101" transform="matrix(1.0006 0 0 1 640.017 183)"/><path d="M553.562 694.555C586.198 674.934 618.823 655.295 651.473 635.697L553.562 694.56 553.562 694.555 553.562 694.555Z" stroke="#FED108" stroke-width="1.33251" stroke-linecap="round" stroke-linejoin="round" fill="#FFD101" transform="matrix(1.0006 0 0 1 640.017 183)"/><path d="M651.441 635.711 456.789 341.905 456.767 341.829 651.472 635.697 651.441 635.711 651.441 635.711Z" stroke="#FED108" stroke-width="1.33251" stroke-linecap="round" stroke-linejoin="round" fill="#FFD101" transform="matrix(1.0006 0 0 1 640.017 183)"/><path d="M651.472 635.697 456.767 341.829 385.013 382.181 553.562 694.56 651.472 635.697 651.472 635.697Z" stroke="#FED108" stroke-width="1.33251" stroke-linecap="round" stroke-linejoin="round" fill="#FFD101" transform="matrix(1.0006 0 0 1 640.017 183)"/><path d="M456.789 341.905 651.441 635.711 553.562 694.555 385.052 382.249 456.789 341.905 456.789 341.905Z" stroke="#FED108" stroke-width="1.33251" stroke-linecap="round" stroke-linejoin="round" fill="#FFD101" transform="matrix(1.0006 0 0 1 640.017 183)"/><path d="M3.89105 463.625 224.17 342.395 224.104 342.327 3.77894 463.58 3.89105 463.625 3.89105 463.625Z" stroke="#FED108" stroke-width="1.33251" stroke-linecap="round" stroke-linejoin="round" fill="#FFD101" transform="matrix(1.0006 0 0 1 640.017 183)"/><path d="M0.287594 401.186 3.89105 463.625 3.77894 463.58 0.182793 401.133 0.287594 401.186 0.287594 401.186Z" stroke="#FED108" stroke-width="1.33251" stroke-linecap="round" stroke-linejoin="round" fill="#FFD101" transform="matrix(1.0006 0 0 1 640.017 183)"/><path d="M224.17 342.395 205.331 289.536 205.266 289.463 224.104 342.327 224.17 342.395 224.17 342.395Z" stroke="#FED108" stroke-width="1.33251" stroke-linecap="round" stroke-linejoin="round" fill="#FFD101" transform="matrix(1.0006 0 0 1 640.017 183)"/><path d="M205.331 289.536 0.287594 401.186 0.182793 401.133 205.266 289.463 205.331 289.536 205.331 289.536Z" stroke="#FED108" stroke-width="1.33251" stroke-linecap="round" stroke-linejoin="round" fill="#FFD101" transform="matrix(1.0006 0 0 1 640.017 183)"/><path d="M205.266 289.463 0.182793 401.133 3.77894 463.58 224.104 342.327 205.266 289.463 205.266 289.463Z" stroke="#FED108" stroke-width="1.33251" stroke-linecap="round" stroke-linejoin="round" fill="#FFD101" transform="matrix(1.0006 0 0 1 640.017 183)"/><path d="M0.287594 401.186 205.331 289.536 224.17 342.395 3.89105 463.625 0.287594 401.186 0.287594 401.186Z" stroke="#FED108" stroke-width="1.33251" stroke-linecap="round" stroke-linejoin="round" fill="#FFD101" transform="matrix(1.0006 0 0 1 640.017 183)"/><path d="M650.372 47.2008 461.958 149.794 461.942 149.698 650.389 47.0875 650.372 47.2008 650.372 47.2008Z" stroke="#FED108" stroke-width="1.33251" stroke-linecap="round" stroke-linejoin="round" fill="#FFD101" transform="matrix(1.0006 0 0 1 640.017 183)"/><path d="M700.144 80.4399 650.372 47.2008 650.389 47.0875 700.172 80.3254 700.144 80.4399 700.144 80.4399Z" stroke="#FED108" stroke-width="1.33251" stroke-linecap="round" stroke-linejoin="round" fill="#FFD101" transform="matrix(1.0006 0 0 1 640.017 183)"/><path d="M461.958 149.794 498.991 191.145 498.98 191.049 461.942 149.698 461.958 149.794 461.958 149.794Z" stroke="#FED108" stroke-width="1.33251" stroke-linecap="round" stroke-linejoin="round" fill="#FFD101" transform="matrix(1.0006 0 0 1 640.017 183)"/><path d="M498.991 191.145 700.144 80.4399 700.172 80.3254 498.98 191.049 498.991 191.145 498.991 191.145Z" stroke="#FED108" stroke-width="1.33251" stroke-linecap="round" stroke-linejoin="round" fill="#FFD101" transform="matrix(1.0006 0 0 1 640.017 183)"/><path d="M498.98 191.049 700.172 80.3254 650.389 47.0875 461.942 149.698 498.98 191.049 498.98 191.049Z" stroke="#FED108" stroke-width="1.33251" stroke-linecap="round" stroke-linejoin="round" fill="#FFD101" transform="matrix(1.0006 0 0 1 640.017 183)"/><path d="M700.144 80.4399 498.991 191.145 461.958 149.794 650.372 47.2008 700.144 80.4399 700.144 80.4399Z" stroke="#FED108" stroke-width="1.33251" stroke-linecap="round" stroke-linejoin="round" fill="#FFD101" transform="matrix(1.0006 0 0 1 640.017 183)"/><path d="M322.338 138.968C301.433 107.414 280.459 75.903 259.634 44.2981 280.54 75.8506 301.532 107.353 322.338 138.968L322.338 138.968Z" stroke="#FED108" stroke-width="1.33251" stroke-linecap="round" stroke-linejoin="round" fill="#FFD101" transform="matrix(1.0006 0 0 1 640.017 183)"/><path d="M269.175 167.486 322.338 138.968 322.301 138.878 269.127 167.401 269.175 167.486 269.175 167.486Z" stroke="#FED108" stroke-width="1.33251" stroke-linecap="round" stroke-linejoin="round" fill="#FFD101" transform="matrix(1.0006 0 0 1 640.017 183)"/><path d="M259.675 44.3846 215.311 67.6566 215.263 67.5725 259.634 44.2981 259.675 44.3846 259.675 44.3846Z" stroke="#FED108" stroke-width="1.33251" stroke-linecap="round" stroke-linejoin="round" fill="#FFD101" transform="matrix(1.0006 0 0 1 640.017 183)"/><path d="M215.311 67.6566 269.175 167.486C251.199 134.185 233.233 100.877 215.263 67.5725L215.311 67.6566 215.311 67.6566Z" stroke="#FED108" stroke-width="1.33251" stroke-linecap="round" stroke-linejoin="round" fill="#FFD101" transform="matrix(1.0006 0 0 1 640.017 183)"/><path d="M215.263 67.5725 269.127 167.401 322.301 138.878 259.634 44.2981 215.263 67.5725 215.263 67.5725Z" stroke="#FED108" stroke-width="1.33251" stroke-linecap="round" stroke-linejoin="round" fill="#FFD101" transform="matrix(1.0006 0 0 1 640.017 183)"/><path d="M269.175 167.486 215.311 67.6566 259.675 44.3846 322.338 138.968 269.175 167.486 269.175 167.486Z" stroke="#FED108" stroke-width="1.33251" stroke-linecap="round" stroke-linejoin="round" fill="#FFD101" transform="matrix(1.0006 0 0 1 640.017 183)"/><path d="M421.822 1.505 365.475 129.138 365.444 129.047 421.802 1.40751 421.822 1.505 421.822 1.505Z" stroke="#FED108" stroke-width="1.33251" stroke-linecap="round" stroke-linejoin="round" fill="#FFD101" transform="matrix(1.0006 0 0 1 640.017 183)"/><path d="M473.921 0.285157 421.822 1.505 421.802 1.40751 473.909 0.182793 473.921 0.285157 473.921 0.285157Z" stroke="#FED108" stroke-width="1.33251" stroke-linecap="round" stroke-linejoin="round" fill="#FFD101" transform="matrix(1.0006 0 0 1 640.017 183)"/><path d="M365.475 129.138 423.791 133.105 423.769 133.01 365.444 129.047 365.475 129.138 365.475 129.138Z" stroke="#FED108" stroke-width="1.33251" stroke-linecap="round" stroke-linejoin="round" fill="#FFD101" transform="matrix(1.0006 0 0 1 640.017 183)"/><path d="M423.791 133.105 473.921 0.285157 473.909 0.182793 423.769 133.01 423.791 133.105 423.791 133.105Z" stroke="#FED108" stroke-width="1.33251" stroke-linecap="round" stroke-linejoin="round" fill="#FFD101" transform="matrix(1.0006 0 0 1 640.017 183)"/><path d="M423.769 133.01 473.909 0.182793 421.803 1.40751 365.445 129.047C384.887 130.368 404.328 131.689 423.77 133.01Z" stroke="#FED108" stroke-width="1.33251" stroke-linecap="round" stroke-linejoin="round" fill="#FFD101" transform="matrix(1.0006 0 0 1 640.017 183)"/><path d="M473.921 0.285157 423.792 133.105 365.476 129.138 421.822 1.505C439.188 1.09798 456.555 0.690958 473.921 0.283938Z" stroke="#FED108" stroke-width="1.33251" stroke-linecap="round" stroke-linejoin="round" fill="#FFD101" transform="matrix(1.0006 0 0 1 640.017 183)"/></g></svg>