<svg width="263" height="131" xmlns="http://www.w3.org/2000/svg" xmlns:xlink="http://www.w3.org/1999/xlink" xml:space="preserve" overflow="hidden"><g transform="translate(-2525 -1254)"><path d="M2531.51 1319.5 2780.49 1319.5C2782.69 1319.5 2784.5 1321.31 2784.5 1323.51L2784.5 1372.47C2784.5 1378 2780.01 1382.5 2774.47 1382.5L2537.53 1382.5C2531.99 1382.5 2527.5 1378 2527.5 1372.47L2527.5 1323.51C2527.5 1321.31 2529.31 1319.5 2531.51 1319.5Z" stroke="#FFFFFF" stroke-width="4.58333" stroke-linecap="round" stroke-linejoin="round" stroke-miterlimit="10" fill="none" fill-rule="evenodd"/><path d="M2537.43 1256.5 2564.53 1256.5C2566.71 1256.5 2568.5 1258.31 2568.5 1260.52L2568.5 1303.48C2568.5 1305.69 2566.71 1307.5 2564.53 1307.5L2531.47 1307.5C2529.29 1307.5 2527.5 1305.69 2527.5 1303.48L2527.5 1266.55C2527.5 1261 2531.95 1256.5 2537.43 1256.5Z" stroke="#FFCE00" stroke-width="4.58333" stroke-linecap="round" stroke-linejoin="round" stroke-miterlimit="10" fill="none" fill-rule="evenodd"/><path d="M2618.53 1256.5C2620.72 1256.5 2622.5 1258.3 2622.5 1260.52L2622.5 1303.48C2622.5 1305.7 2620.72 1307.5 2618.53 1307.5L2585.47 1307.5C2583.28 1307.5 2581.5 1305.7 2581.5 1303.48L2581.5 1260.52C2581.5 1258.3 2583.28 1256.5 2585.47 1256.5Z" stroke="#FFCE00" stroke-width="4.58333" stroke-linecap="round" stroke-linejoin="round" stroke-miterlimit="10" fill="none" fill-rule="evenodd"/><path d="M2672.53 1256.5C2674.72 1256.5 2676.5 1258.3 2676.5 1260.52L2676.5 1303.48C2676.5 1305.7 2674.72 1307.5 2672.53 1307.5L2639.47 1307.5C2637.28 1307.5 2635.5 1305.7 2635.5 1303.48L2635.5 1260.52C2635.5 1258.3 2637.28 1256.5 2639.47 1256.5Z" stroke="#FFCE00" stroke-width="4.58333" stroke-linecap="round" stroke-linejoin="round" stroke-miterlimit="10" fill="none" fill-rule="evenodd"/><path d="M2727.43 1256.5C2729.68 1256.5 2731.5 1258.3 2731.5 1260.52L2731.5 1303.48C2731.5 1305.7 2729.68 1307.5 2727.43 1307.5L2693.57 1307.5C2691.32 1307.5 2689.5 1305.7 2689.5 1303.48L2689.5 1260.52C2689.5 1258.3 2691.32 1256.5 2693.57 1256.5Z" stroke="#FFCE00" stroke-width="4.58333" stroke-linecap="round" stroke-linejoin="round" stroke-miterlimit="10" fill="none" fill-rule="evenodd"/><path d="M2747.57 1256.5 2775.33 1256.5C2780.94 1256.5 2785.5 1261 2785.5 1266.55L2785.5 1303.48C2785.5 1305.69 2783.67 1307.5 2781.43 1307.5L2747.57 1307.5C2745.33 1307.5 2743.5 1305.69 2743.5 1303.48L2743.5 1260.52C2743.5 1258.31 2745.33 1256.5 2747.57 1256.5Z" stroke="#FFCE00" stroke-width="4.58333" stroke-linecap="round" stroke-linejoin="round" stroke-miterlimit="10" fill="none" fill-rule="evenodd"/><path d="M2594 1364 2594 1338 2596 1338 2596 1364 2594 1364Z" fill="#FFFFFF" fill-rule="evenodd"/><path d="M2612.23 1365C2610.36 1365 2608.64 1364.67 2607.13 1364.02 2605.62 1363.36 2604.33 1362.42 2603.27 1361.19 2602.21 1359.96 2601.39 1358.5 2600.84 1356.76 2600.29 1355.02 2600 1353.11 2600 1350.98 2600 1348.17 2600.49 1345.71 2601.47 1343.62 2602.45 1341.53 2603.84 1339.89 2605.66 1338.74 2607.48 1337.57 2609.66 1337 2612.23 1337 2615.09 1337 2617.4 1337.68 2619.2 1339.01 2621 1340.34 2622.24 1342.14 2622.96 1344.4L2620.2 1345.08C2619.63 1343.44 2618.67 1342.12 2617.32 1341.14 2615.97 1340.16 2614.32 1339.66 2612.34 1339.66 2610.23 1339.66 2608.5 1340.12 2607.11 1341.08 2605.72 1342.04 2604.68 1343.35 2603.96 1345.08 2603.27 1346.78 2602.9 1348.77 2602.9 1351 2602.9 1353.23 2603.23 1355.2 2603.94 1356.9 2604.66 1358.6 2605.7 1359.94 2607.09 1360.9 2608.48 1361.86 2610.23 1362.36 2612.34 1362.38 2614.26 1362.38 2615.85 1362.01 2617.1 1361.25 2618.34 1360.51 2619.3 1359.42 2619.96 1358.03 2620.61 1356.64 2620.98 1355 2621.06 1353.09L2614.89 1353.09 2614.89 1350.73 2623.94 1350.73C2623.98 1351.02 2624 1351.33 2624 1351.64 2624 1351.94 2624 1352.19 2624 1352.31 2624 1354.73 2623.57 1356.9 2622.69 1358.81 2621.81 1360.72 2620.53 1362.23 2618.77 1363.32 2617.03 1364.43 2614.85 1364.98 2612.21 1364.98Z" fill="#FFFFFF" fill-rule="evenodd"/><path d="M2628 1364 2628 1338 2644 1338 2644 1340.56 2630.61 1340.56 2630.61 1349.55 2641.87 1349.55 2641.87 1352.09 2630.61 1352.09 2630.61 1361.46 2644 1361.46 2644 1364 2628 1364Z" fill="#FFFFFF" fill-rule="evenodd"/><path d="M2649 1364 2649 1338 2651.66 1338 2651.66 1361.44 2664 1361.44 2664 1363.98 2649 1363.98Z" fill="#FFFFFF" fill-rule="evenodd"/><path d="M2682.99 1365C2680.39 1365 2678.21 1364.41 2676.42 1363.22 2674.63 1362.03 2673.28 1360.39 2672.37 1358.28 2671.46 1356.17 2671 1353.75 2671 1351 2671 1348.25 2671.46 1345.81 2672.37 1343.72 2673.28 1341.63 2674.63 1339.97 2676.42 1338.78 2678.21 1337.59 2680.39 1337 2682.99 1337 2685.59 1337 2687.79 1337.59 2689.56 1338.78 2691.33 1339.97 2692.7 1341.61 2693.61 1343.72 2694.52 1345.83 2695 1348.25 2695 1351 2695 1353.75 2694.54 1356.19 2693.61 1358.28 2692.68 1360.39 2691.33 1362.03 2689.56 1363.22 2687.79 1364.41 2685.59 1365 2682.99 1365ZM2682.99 1362.38C2685.03 1362.38 2686.72 1361.9 2688.09 1360.94 2689.46 1359.98 2690.47 1358.65 2691.15 1356.94 2691.82 1355.22 2692.16 1353.25 2692.16 1351.02 2692.16 1348.79 2691.82 1346.8 2691.15 1345.1 2690.47 1343.4 2689.44 1342.06 2688.09 1341.1 2686.74 1340.14 2685.03 1339.64 2682.99 1339.64 2680.95 1339.64 2679.26 1340.12 2677.91 1341.08 2676.56 1342.04 2675.55 1343.37 2674.85 1345.08 2674.18 1346.78 2673.82 1348.77 2673.82 1351 2673.82 1353.23 2674.14 1355.2 2674.83 1356.9 2675.53 1358.6 2676.54 1359.94 2677.89 1360.9 2679.24 1361.86 2680.95 1362.36 2682.99 1362.38Z" fill="#FFFFFF" fill-rule="evenodd"/><path d="M2708.41 1365C2706.57 1365 2704.93 1364.69 2703.47 1364.06 2702.02 1363.42 2700.8 1362.54 2699.86 1361.38 2698.92 1360.21 2698.28 1358.84 2698 1357.26L2700.74 1356.79C2701.18 1358.53 2702.1 1359.9 2703.51 1360.89 2704.93 1361.87 2706.61 1362.36 2708.55 1362.36 2709.83 1362.36 2710.99 1362.16 2712.01 1361.73 2713.03 1361.32 2713.82 1360.72 2714.4 1359.94 2714.98 1359.17 2715.28 1358.27 2715.28 1357.2 2715.28 1356.51 2715.16 1355.91 2714.92 1355.42 2714.68 1354.93 2714.36 1354.52 2713.96 1354.19 2713.56 1353.87 2713.12 1353.6 2712.65 1353.37 2712.17 1353.15 2711.71 1352.99 2711.27 1352.84L2704.61 1350.82C2703.81 1350.57 2703.07 1350.28 2702.4 1349.92 2701.72 1349.55 2701.12 1349.1 2700.62 1348.58 2700.12 1348.07 2699.72 1347.46 2699.44 1346.76 2699.16 1346.07 2699.02 1345.27 2699.02 1344.37 2699.02 1342.85 2699.4 1341.54 2700.18 1340.44 2700.96 1339.33 2702.02 1338.47 2703.35 1337.88 2704.69 1337.29 2706.23 1337 2707.95 1337 2709.69 1337 2711.27 1337.33 2712.65 1337.96 2714.02 1338.6 2715.16 1339.5 2716.06 1340.68 2716.96 1341.85 2717.56 1343.24 2717.84 1344.86L2715.04 1345.37C2714.86 1344.2 2714.44 1343.2 2713.78 1342.34 2713.12 1341.48 2712.29 1340.83 2711.29 1340.36 2710.27 1339.89 2709.17 1339.66 2707.95 1339.64 2706.77 1339.64 2705.73 1339.84 2704.81 1340.25 2703.89 1340.66 2703.17 1341.22 2702.64 1341.91 2702.1 1342.61 2701.84 1343.41 2701.84 1344.31 2701.84 1345.21 2702.08 1345.94 2702.58 1346.5 2703.07 1347.05 2703.67 1347.48 2704.39 1347.79 2705.11 1348.09 2705.81 1348.36 2706.49 1348.54L2711.63 1350.1C2712.17 1350.24 2712.79 1350.47 2713.5 1350.73 2714.22 1351.02 2714.92 1351.41 2715.62 1351.92 2716.3 1352.43 2716.88 1353.11 2717.32 1353.95 2717.76 1354.79 2718 1355.83 2718 1357.12 2718 1358.41 2717.76 1359.47 2717.28 1360.46 2716.8 1361.44 2716.12 1362.26 2715.26 1362.93 2714.4 1363.61 2713.38 1364.12 2712.23 1364.47 2711.07 1364.82 2709.81 1365 2708.43 1365Z" fill="#FFFFFF" fill-rule="evenodd"/></g></svg>