<svg width="186" height="255" xmlns="http://www.w3.org/2000/svg" xmlns:xlink="http://www.w3.org/1999/xlink" xml:space="preserve" overflow="hidden"><g transform="translate(-2566 -1648)"><path d="M2739.49 1726.5C2745.02 1726.5 2749.5 1731 2749.5 1736.56L2749.5 1890.44C2749.5 1896 2745.02 1900.5 2739.49 1900.5L2654.52 1900.5C2648.98 1900.5 2644.5 1896 2644.5 1890.44L2644.5 1736.56C2644.5 1731 2648.98 1726.5 2654.52 1726.5Z" stroke="#FFCE00" stroke-width="4.58333" stroke-linecap="round" stroke-linejoin="round" stroke-miterlimit="10" fill="none" fill-rule="evenodd"/><path d="M2697 1866.5C2701.14 1866.5 2704.5 1869.86 2704.5 1874L2704.5 1874C2704.5 1878.14 2701.14 1881.5 2697 1881.5L2697 1881.5C2692.86 1881.5 2689.5 1878.14 2689.5 1874L2689.5 1874C2689.5 1869.86 2692.86 1866.5 2697 1866.5Z" stroke="#FFFFFF" stroke-width="4.58333" stroke-linecap="round" stroke-linejoin="round" stroke-miterlimit="10" fill="none" fill-rule="evenodd"/><path d="M2618.5 1738.5 2618.5 1738.5C2618.5 1716.97 2635.97 1699.5 2657.5 1699.5" stroke="#FFFFFF" stroke-width="4.58333" stroke-linecap="round" stroke-linejoin="round" stroke-miterlimit="10" fill="none" fill-rule="evenodd"/><path d="M2600.5 1738.5 2600.5 1738.5C2600.5 1709.19 2625.97 1685.5 2657.5 1685.5" stroke="#FFFFFF" stroke-width="4.58333" stroke-linecap="round" stroke-linejoin="round" stroke-miterlimit="10" fill="none" fill-rule="evenodd"/><path d="M2586.5 1738.5 2586.5 1738.5C2586.5 1699.33 2618.35 1667.5 2657.5 1667.5" stroke="#FFFFFF" stroke-width="4.58333" stroke-linecap="round" stroke-linejoin="round" stroke-miterlimit="10" fill="none" fill-rule="evenodd"/><path d="M2568.5 1738.5 2568.5 1738.5C2568.5 1690.03 2608.26 1650.5 2657.5 1650.5" stroke="#FFFFFF" stroke-width="4.58333" stroke-linecap="round" stroke-linejoin="round" stroke-miterlimit="10" fill="none" fill-rule="evenodd"/></g></svg>