<svg width="292" height="197" xmlns="http://www.w3.org/2000/svg" xmlns:xlink="http://www.w3.org/1999/xlink" xml:space="preserve" overflow="hidden"><g transform="translate(-2002 -731)"><path d="M2027.51 733.5 2269.49 733.5C2275.02 733.5 2279.5 737.991 2279.5 743.524L2279.5 899.5 2017.5 899.5 2017.5 743.524C2017.5 737.991 2021.98 733.5 2027.51 733.5Z" stroke="#FFCE00" stroke-width="4.58333" stroke-linecap="round" stroke-linejoin="round" stroke-miterlimit="10" fill="none" fill-rule="evenodd"/><path d="M2004.5 899.5 2291.5 899.5 2291.5 914.414C2291.5 920.542 2286.47 925.5 2280.3 925.5L2015.7 925.5C2009.51 925.5 2004.5 920.522 2004.5 914.414L2004.5 899.5 2004.5 899.5Z" stroke="#FFFFFF" stroke-width="4.58333" stroke-linecap="round" stroke-linejoin="round" stroke-miterlimit="10" fill="none" fill-rule="evenodd"/><path d="M2127.5 748.5 2169.5 748.5" stroke="#FFFFFF" stroke-width="4.58333" stroke-linecap="round" stroke-linejoin="round" stroke-miterlimit="10" fill="none" fill-rule="evenodd"/><path d="M2087 840 2087 814 2089 814 2089 840 2087 840Z" fill="#FFFFFF" fill-rule="evenodd"/><path d="M2105.22 840C2103.35 840 2101.63 839.684 2100.12 839.052 2098.61 838.42 2097.33 837.512 2096.27 836.326 2095.2 835.161 2094.39 833.739 2093.84 832.06 2093.29 830.381 2093 828.544 2093 826.49 2093 823.784 2093.49 821.414 2094.47 819.38 2095.45 817.365 2096.84 815.785 2098.67 814.679 2100.51 813.573 2102.69 813 2105.25 813 2108.1 813 2110.43 813.652 2112.2 814.936 2114 816.219 2115.24 817.957 2115.96 820.13L2113.2 820.782C2112.61 819.202 2111.65 817.938 2110.33 816.99 2109 816.042 2107.33 815.568 2105.35 815.568 2103.24 815.568 2101.51 816.002 2100.12 816.93 2098.73 817.839 2097.69 819.143 2096.98 820.782 2096.29 822.441 2095.92 824.337 2095.92 826.49 2095.92 828.643 2096.25 830.559 2096.96 832.198 2097.65 833.838 2098.71 835.122 2100.12 836.05 2101.53 836.978 2103.27 837.452 2105.37 837.472 2107.29 837.472 2108.88 837.116 2110.12 836.385 2111.37 835.674 2112.33 834.628 2112.98 833.285 2113.63 831.941 2114 830.342 2114.08 828.505L2107.9 828.505 2107.9 826.234 2116.94 826.234C2116.98 826.51 2117 826.806 2117 827.102 2117 827.419 2117 827.636 2117 827.754 2117 830.105 2116.57 832.179 2115.69 834.035 2114.82 835.872 2113.51 837.334 2111.78 838.4 2110.04 839.467 2107.86 840 2105.22 840Z" fill="#FFFFFF" fill-rule="evenodd"/><path d="M2120 839.981 2120 814 2137 814 2137 816.552 2122.8 816.552 2122.8 825.536 2134.74 825.536 2134.74 828.088 2122.8 828.088 2122.8 837.448 2137 837.448 2137 840 2120 840Z" fill="#FFFFFF" fill-rule="evenodd"/><path d="M2142 840 2142 814 2144.65 814 2144.65 837.446 2157 837.446 2157 840 2142 840Z" fill="#FFFFFF" fill-rule="evenodd"/><path d="M2175.99 840C2173.39 840 2171.21 839.428 2169.42 838.283 2167.63 837.138 2166.28 835.559 2165.37 833.526 2164.46 831.494 2164 829.165 2164 826.5 2164 823.836 2164.46 821.507 2165.37 819.474 2166.28 817.441 2167.63 815.862 2169.42 814.717 2171.21 813.572 2173.39 813 2175.99 813 2178.59 813 2180.79 813.572 2182.56 814.717 2184.35 815.862 2185.7 817.441 2186.61 819.474 2187.52 821.507 2188 823.836 2188 826.5 2188 829.165 2187.54 831.494 2186.61 833.526 2185.68 835.559 2184.33 837.138 2182.56 838.283 2180.77 839.428 2178.59 840 2175.99 840ZM2175.99 837.474C2178.03 837.474 2179.72 837.02 2181.09 836.092 2182.46 835.165 2183.47 833.882 2184.15 832.224 2184.82 830.586 2185.18 828.671 2185.18 826.52 2185.18 824.369 2184.84 822.454 2184.15 820.816 2183.45 819.178 2182.44 817.895 2181.09 816.967 2179.72 816.04 2178.03 815.566 2175.99 815.566 2173.95 815.566 2172.26 816.02 2170.91 816.948 2169.56 817.875 2168.55 819.158 2167.85 820.816 2167.18 822.474 2166.82 824.369 2166.82 826.52 2166.82 828.671 2167.14 830.586 2167.83 832.224 2168.51 833.862 2169.54 835.145 2170.91 836.073 2172.28 837 2173.97 837.474 2176.01 837.494Z" fill="#FFFFFF" fill-rule="evenodd"/><path d="M2201.39 840C2199.55 840 2197.92 839.704 2196.46 839.091 2195.01 838.479 2193.79 837.63 2192.85 836.504 2191.92 835.378 2191.28 834.055 2191 832.534L2193.73 832.08C2194.17 833.759 2195.09 835.082 2196.5 836.03 2197.9 836.978 2199.59 837.472 2201.53 837.472 2202.8 837.472 2203.96 837.275 2204.98 836.859 2206 836.465 2206.79 835.892 2207.37 835.141 2207.95 834.391 2208.25 833.522 2208.25 832.495 2208.25 831.823 2208.13 831.25 2207.89 830.776 2207.65 830.302 2207.33 829.907 2206.93 829.591 2206.53 829.275 2206.09 829.018 2205.62 828.801 2205.14 828.584 2204.68 828.426 2204.24 828.287L2197.6 826.332C2196.8 826.095 2196.06 825.818 2195.39 825.463 2194.71 825.107 2194.11 824.673 2193.61 824.179 2193.11 823.685 2192.71 823.093 2192.44 822.421 2192.16 821.75 2192.02 820.98 2192.02 820.11 2192.02 818.649 2192.4 817.385 2193.17 816.318 2193.95 815.252 2195.01 814.422 2196.36 813.849 2197.72 813.276 2199.24 813 2200.97 813 2202.73 813 2204.28 813.316 2205.66 813.909 2207.03 814.521 2208.17 815.39 2209.07 816.535 2209.96 817.681 2210.56 819.004 2210.84 820.565L2208.05 821.059C2207.87 819.933 2207.45 818.945 2206.79 818.116 2206.13 817.286 2205.3 816.654 2204.3 816.2 2203.28 815.745 2202.17 815.528 2200.97 815.508 2199.79 815.508 2198.76 815.706 2197.84 816.101 2196.92 816.496 2196.2 817.029 2195.67 817.701 2195.13 818.372 2194.87 819.143 2194.87 820.012 2194.87 820.881 2195.11 821.592 2195.61 822.125 2196.1 822.658 2196.7 823.073 2197.42 823.369 2198.14 823.666 2198.84 823.922 2199.51 824.1L2204.64 825.601C2205.18 825.74 2205.8 825.957 2206.51 826.214 2207.23 826.49 2207.93 826.865 2208.63 827.359 2209.31 827.853 2209.88 828.505 2210.32 829.315 2210.76 830.125 2211 831.132 2211 832.376 2211 833.62 2210.76 834.647 2210.28 835.596 2209.8 836.544 2209.13 837.334 2208.27 837.986 2207.41 838.637 2206.39 839.131 2205.24 839.467 2204.08 839.803 2202.82 839.98 2201.45 839.98Z" fill="#FFFFFF" fill-rule="evenodd"/></g></svg>