<?xml version="1.0" encoding="UTF-8"?>
<svg width="1200pt" height="1200pt" version="1.1" viewBox="0 0 1200 1200" xmlns="http://www.w3.org/2000/svg">
 <path d="m600 290.24c-137.23 0-248.88 111.65-248.88 248.88 0 7.4727 6.0586 13.531 13.531 13.531 7.4727 0 13.531-6.0586 13.531-13.531 0-122.31 99.508-221.82 221.82-221.82 7.4727 0 13.531-6.0586 13.531-13.531 0-7.4688-6.0547-13.531-13.531-13.531z" fill="#131313"/>
 <path d="m600 192.88c-92.797 0-180.04 36.434-245.65 102.6-65.629 66.176-101.35 153.75-100.57 246.58 0.80078 96.543 42.379 189.09 114.07 253.92 48.898 44.215 76.941 106.57 76.941 171.07v34.145c0 11.988 5.3633 23.168 14.719 30.664 1.9805 1.5898 4.0977 2.9414 6.293 4.1055v56.059 0.011718 13.883c0 16.121 7.2148 31.152 19.797 41.234 6.7148 5.3828 14.484 8.9297 22.648 10.566 3.5156 23.879 24.074 42.281 48.906 42.281h85.688c27.289 0 49.488-22.199 49.488-49.484v-29.23c24.73-6.3008 41.875-28.188 41.875-53.871v-29.613-0.011719-54.832c12.844-8.1328 21-22.359 21-38.383v-9.3047c0-49.137 21.812-94.625 59.84-124.8 83.375-66.152 131.19-165.05 131.19-271.35 0-190.91-155.32-346.23-346.23-346.24zm107.14 834.29-214.27 47.762v-35.422l214.27-47.762zm-64.301 145.77h-85.688c-10.355 0-19.07-7.0664-21.637-16.625l129.75-28.922v23.125c0 12.363-10.062 22.422-22.426 22.422zm41.93-77.621-160.5 35.777c-7.6836 1.7031-15.602-0.13281-21.742-5.0508-6.1367-4.918-9.6562-12.25-9.6562-20.121v-3.2656l214.27-47.762v12.52c0 13.492-9.1992 24.965-22.371 27.902zm113.45-306.05c-44.539 35.34-70.082 88.551-70.082 146v9.3047c0 8.6992-5.9297 16.094-14.418 17.988l-226.96 50.59c-3.6484 0.79688-7.4102-0.058594-10.324-2.4023-2.9141-2.332-4.582-5.8125-4.582-9.5469l-0.003906-34.152c0-72.141-31.293-141.81-85.855-191.14-66.094-59.766-104.43-145.08-105.16-234.07-0.71094-85.562 32.219-166.28 92.73-227.3 60.492-60.996 140.91-94.59 226.44-94.59 175.99 0.003907 319.17 143.19 319.17 319.18-0.003907 97.988-44.09 189.16-120.95 250.15z" fill="#131313"/>
 <path d="m600 156.63c7.4727 0 13.531-6.0586 13.531-13.531v-129.57c0-7.4727-6.0586-13.531-13.531-13.531s-13.531 6.0586-13.531 13.531v129.57c0 7.4727 6.0586 13.535 13.531 13.535z" fill="#131313"/>
 <path d="m1125.6 525.59h-129.57c-7.4727 0-13.531 6.0586-13.531 13.531s6.0586 13.531 13.531 13.531h129.57c7.4727 0 13.531-6.0586 13.531-13.531 0.003906-7.4727-6.0547-13.531-13.531-13.531z" fill="#131313"/>
 <path d="m203.98 525.59h-129.57c-7.4727 0-13.531 6.0586-13.531 13.531s6.0586 13.531 13.531 13.531h129.57c7.4727 0 13.531-6.0586 13.531-13.531s-6.0586-13.531-13.531-13.531z" fill="#131313"/>
 <path d="m889.6 809.59c-5.2852-5.2852-13.852-5.2852-19.137 0-5.2852 5.2812-5.2852 13.852 0 19.133l91.617 91.617c2.6445 2.6445 6.1055 3.9648 9.5703 3.9648 3.4609 0 6.9258-1.3203 9.5703-3.9648 5.2852-5.2812 5.2852-13.852 0-19.133z" fill="#131313"/>
 <path d="m310.4 268.66c2.6406 2.6445 6.1055 3.9648 9.5664 3.9648 3.4648 0 6.9258-1.3203 9.5664-3.9648 5.2852-5.2812 5.2852-13.852 0-19.133l-91.617-91.617c-5.2852-5.2852-13.852-5.2852-19.137 0-5.2852 5.2812-5.2852 13.852 0 19.133z" fill="#131313"/>
 <path d="m310.4 809.59-91.617 91.617c-5.2852 5.2812-5.2852 13.852 0 19.133 2.6406 2.6445 6.1055 3.9648 9.5664 3.9648 3.4609 0 6.9258-1.3203 9.5664-3.9648l91.617-91.617c5.2852-5.2812 5.2852-13.852 0-19.133-5.2773-5.2812-13.848-5.2852-19.133 0z" fill="#131313"/>
 <path d="m880.03 272.62c3.4609 0 6.9258-1.3203 9.5703-3.9648l91.617-91.617c5.2852-5.2812 5.2852-13.852 0-19.133-5.2852-5.2852-13.852-5.2852-19.137 0l-91.617 91.617c-5.2852 5.2812-5.2852 13.852 0 19.133 2.6406 2.6445 6.1016 3.9648 9.5664 3.9648z" fill="#131313"/>
</svg>
