<svg width="148" height="223" xmlns="http://www.w3.org/2000/svg" xmlns:xlink="http://www.w3.org/1999/xlink" xml:space="preserve" overflow="hidden"><g transform="translate(-1096 -1204)"><path d="M1184.5 1345.77C1184.5 1337.9 1178.02 1331.5 1170 1331.5 1161.98 1331.5 1155.5 1337.88 1155.5 1345.77 1155.5 1351.59 1159.03 1356.57 1164.08 1358.79L1164.08 1369.69C1164.08 1372.91 1166.73 1375.5 1169.98 1375.5L1169.98 1375.5C1173.25 1375.5 1175.88 1372.89 1175.88 1369.69L1175.88 1358.79C1180.93 1356.57 1184.46 1351.59 1184.46 1345.77Z" stroke="#FFCE00" stroke-width="4.58333" stroke-linecap="round" stroke-linejoin="round" stroke-miterlimit="10" fill="none" fill-rule="evenodd"/><path d="M1169.5 1206.5 1169.5 1206.5C1198.75 1206.5 1222.5 1230.34 1222.5 1259.71L1222.5 1281.5 1116.5 1281.5 1116.5 1259.71C1116.5 1230.34 1140.25 1206.5 1169.5 1206.5Z" stroke="#FFCE00" stroke-width="4.58333" stroke-linecap="round" stroke-linejoin="round" stroke-miterlimit="10" fill="none" fill-rule="evenodd"/><path d="M1231.72 1281.5C1237.12 1281.5 1241.5 1285.88 1241.5 1291.28L1241.5 1414.72C1241.5 1420.12 1237.12 1424.5 1231.72 1424.5L1108.28 1424.5C1102.88 1424.5 1098.5 1420.12 1098.5 1414.72L1098.5 1291.28C1098.5 1285.88 1102.88 1281.5 1108.28 1281.5Z" stroke="#FFFFFF" stroke-width="4.58333" stroke-linecap="round" stroke-linejoin="round" stroke-miterlimit="10" fill="none" fill-rule="evenodd"/></g></svg>