<?xml version="1.0" encoding="UTF-8"?>
<svg id="icons" xmlns="http://www.w3.org/2000/svg" viewBox="0 0 512 512">
  <defs>
    <style>
      .cls-1 {
        fill: #141414;
      }
    </style>
  </defs>
  <path class="cls-1" d="M256,394c-76.21,0-138-61.79-138-138s61.79-138,138-138,138,61.79,138,138-61.79,138-138,138ZM256,385.38c71.45,0,129.37-57.93,129.37-129.37s-57.93-129.38-129.37-129.38-129.38,57.93-129.38,129.38,57.93,129.37,129.38,129.37ZM256,141c1.59,0,2.88,1.29,2.88,2.88v11.5c0,1.59-1.29,2.87-2.88,2.87s-2.88-1.29-2.88-2.87v-11.5c0-1.59,1.29-2.88,2.88-2.88ZM256,353.75c1.59,0,2.88,1.29,2.88,2.88v11.5c0,1.59-1.29,2.88-2.88,2.88s-2.88-1.29-2.88-2.88v-11.5c0-1.59,1.29-2.88,2.88-2.88ZM337.32,174.68c1.12,1.12,1.12,2.94,0,4.06l-8.13,8.14c-1.12,1.12-2.95,1.12-4.07,0-1.12-1.12-1.12-2.95,0-4.07l8.14-8.13c1.12-1.12,2.94-1.12,4.06,0ZM186.88,325.12c1.12,1.12,1.13,2.94,0,4.07,0,0,0,0,0,0l-8.14,8.13c-1.06,1.18-2.88,1.29-4.06.23-1.18-1.06-1.29-2.88-.23-4.06.07-.08.15-.16.23-.23l8.13-8.14c1.12-1.12,2.94-1.13,4.07,0,0,0,0,0,0,0ZM174.68,174.69c1.12-1.12,2.94-1.12,4.06,0l8.14,8.13c1.12,1.12,1.12,2.95,0,4.07-1.12,1.12-2.95,1.12-4.07,0l-8.13-8.14c-1.12-1.12-1.12-2.94,0-4.06ZM325.12,325.12c1.12-1.12,2.94-1.13,4.07,0h0s8.13,8.15,8.13,8.15c1.18,1.06,1.29,2.88.23,4.06-1.06,1.18-2.88,1.29-4.06.23-.08-.07-.16-.15-.23-.23l-8.14-8.13c-1.12-1.12-1.13-2.94,0-4.07h0ZM141,256c0-1.59,1.29-2.88,2.87-2.88h11.5c1.59,0,2.88,1.29,2.88,2.88s-1.29,2.87-2.88,2.87h-11.5c-1.59,0-2.87-1.29-2.87-2.87ZM353.75,256c0-1.59,1.29-2.88,2.88-2.88h11.5c1.59,0,2.87,1.29,2.87,2.88s-1.29,2.87-2.87,2.87h-11.5c-1.59,0-2.88-1.29-2.88-2.87ZM300.93,150.14c1.46.62,2.15,2.3,1.53,3.77,0,0,0,0,0,0l-4.5,10.58c-.56,1.48-2.22,2.23-3.71,1.67-1.48-.56-2.23-2.22-1.67-3.71.03-.07.06-.14.09-.21l4.49-10.58c.62-1.46,2.3-2.15,3.77-1.53,0,0,0,0,0,0ZM217.82,345.99c1.45.62,2.13,2.3,1.52,3.76l-4.49,10.58c-.68,1.44-2.39,2.05-3.83,1.38-1.36-.64-2-2.22-1.46-3.62l4.49-10.58c.62-1.46,2.3-2.15,3.77-1.53,0,0,0,0,0,0h0ZM362.63,212.91c.59,1.47-.12,3.14-1.59,3.74l-10.66,4.31c-1.47.6-3.15-.11-3.75-1.59-.6-1.47.11-3.15,1.59-3.75l10.66-4.3c1.47-.6,3.15.11,3.75,1.58,0,0,0,0,0,0ZM165.37,292.6c.6,1.47-.11,3.15-1.58,3.75,0,0,0,0,0,0l-10.66,4.3c-1.45.65-3.15,0-3.8-1.45-.65-1.45,0-3.15,1.45-3.8.06-.03.12-.05.18-.07l10.66-4.31c1.47-.6,3.15.11,3.75,1.58,0,0,0,0,0,0ZM212.92,149.37c1.47-.59,3.14.12,3.74,1.59l4.31,10.66c.6,1.47-.11,3.15-1.59,3.75-1.47.6-3.15-.11-3.75-1.59h0l-4.3-10.66c-.6-1.47.11-3.15,1.58-3.75,0,0,0,0,0,0ZM292.62,346.63c1.47-.6,3.15.11,3.75,1.58,0,0,0,0,0,0l4.3,10.66c.65,1.45,0,3.15-1.45,3.8-1.45.65-3.15,0-3.8-1.45-.03-.06-.05-.12-.07-.18l-4.31-10.66c-.6-1.47.11-3.15,1.58-3.75,0,0,0,0,0,0ZM150.14,211.07c.62-1.46,2.3-2.15,3.77-1.53,0,0,0,0,0,0l10.58,4.5c1.44.68,2.05,2.39,1.38,3.83-.64,1.36-2.22,2-3.62,1.46l-10.58-4.49c-1.46-.62-2.15-2.3-1.53-3.77,0,0,0,0,0,0ZM345.99,294.19c.62-1.45,2.3-2.13,3.76-1.52l10.58,4.49c1.48.56,2.23,2.22,1.67,3.71-.56,1.48-2.22,2.23-3.71,1.67-.07-.03-.14-.06-.21-.09l-10.58-4.49c-1.46-.62-2.15-2.3-1.53-3.77,0,0,0,0,0,0h.01ZM266.11,266.11l-20.23-20.23-47.62,67.85,67.84-47.63h.01ZM337.32,174.68l-67.09,95.54-95.54,67.09,67.09-95.54s95.54-67.09,95.54-67.09Z"/>
</svg>