<?xml version="1.0" encoding="UTF-8"?>
<svg id="icons" xmlns="http://www.w3.org/2000/svg" viewBox="0 0 512 512">
  <defs>
    <style>
      .cls-1 {
        fill: none;
        stroke: #141414;
        stroke-linecap: round;
        stroke-linejoin: round;
        stroke-width: 2px;
      }
    </style>
  </defs>
  <path class="cls-1" d="M276.91,299.52c0-11.55-9.36-20.91-20.91-20.91s-20.91,9.36-20.91,20.91c0,8.51,5.09,15.81,12.38,19.08v15.98c0,4.71,3.82,8.53,8.53,8.53h0c4.71,0,8.53-3.82,8.53-8.53v-15.98c7.29-3.27,12.38-10.57,12.38-19.08Z"/>
  <path class="cls-1" d="M330.39,150.86c-9.8-31.77-39.4-54.86-74.39-54.86h0c-42.99,0-77.84,34.85-77.84,77.84v31.88h155.68"/>
  <rect class="cls-1" x="150.86" y="205.72" width="210.28" height="210.28" rx="22.18" ry="22.18"/>
</svg>