<?xml version="1.0" encoding="UTF-8"?>
<svg id="icons" xmlns="http://www.w3.org/2000/svg" viewBox="0 0 512 512">
  <defs>
    <style>
      .cls-1, .cls-2 {
        fill: none;
        stroke: #141414;
        stroke-linecap: round;
        stroke-linejoin: round;
        stroke-width: 2px;
      }

      .cls-2 {
        stroke-dasharray: 6;
      }
    </style>
  </defs>
  <g>
    <path class="cls-2" d="M292.71,173.75H86.76c-12.27,0-22.22-9.95-22.22-22.22v-57.74c0-12.27,9.95-22.22,22.22-22.22h205.95"/>
    <path class="cls-1" d="M292.71,71.57h132.52c12.27,0,22.22,9.95,22.22,22.22v57.74c0,12.27-9.95,22.22-22.22,22.22h-132.52"/>
    <line class="cls-1" x1="105.66" y1="144.13" x2="105.66" y2="101.19"/>
    <line class="cls-1" x1="138.66" y1="144.13" x2="138.66" y2="101.19"/>
    <circle class="cls-1" cx="391.82" cy="122.66" r="14.78"/>
    <circle class="cls-1" cx="339.04" cy="122.66" r="14.78"/>
  </g>
  <g>
    <path class="cls-2" d="M292.71,307.09H86.76c-12.27,0-22.22-9.95-22.22-22.22v-57.74c0-12.27,9.95-22.22,22.22-22.22h205.95"/>
    <path class="cls-1" d="M292.71,204.91h132.52c12.27,0,22.22,9.95,22.22,22.22v57.74c0,12.27-9.95,22.22-22.22,22.22h-132.52"/>
    <line class="cls-1" x1="105.66" y1="277.47" x2="105.66" y2="234.53"/>
    <line class="cls-1" x1="138.66" y1="277.47" x2="138.66" y2="234.53"/>
    <circle class="cls-1" cx="391.82" cy="256" r="14.78"/>
    <circle class="cls-1" cx="339.04" cy="256" r="14.78"/>
  </g>
  <g>
    <path class="cls-2" d="M292.71,440.43H86.76c-12.27,0-22.22-9.95-22.22-22.22v-57.74c0-12.27,9.95-22.22,22.22-22.22h205.95"/>
    <path class="cls-1" d="M292.71,338.25h132.52c12.27,0,22.22,9.95,22.22,22.22v57.74c0,12.27-9.95,22.22-22.22,22.22h-132.52"/>
    <line class="cls-1" x1="105.66" y1="410.81" x2="105.66" y2="367.87"/>
    <line class="cls-1" x1="138.66" y1="410.81" x2="138.66" y2="367.87"/>
    <circle class="cls-1" cx="391.82" cy="389.34" r="14.78"/>
    <circle class="cls-1" cx="339.04" cy="389.34" r="14.78"/>
  </g>
</svg>