<?xml version="1.0" encoding="UTF-8"?>
<svg id="icons" xmlns="http://www.w3.org/2000/svg" viewBox="0 0 512 512">
  <defs>
    <style>
      .cls-1 {
        fill: none;
        stroke: #141414;
        stroke-linecap: round;
        stroke-linejoin: round;
        stroke-width: 2px;
      }

      .cls-2 {
        fill: #141414;
      }
    </style>
  </defs>
  <path class="cls-1" d="M103.81,408.2c-18.92-5.22-32.81-22.55-32.81-43.13V115.74c0-24.71,20.03-44.74,44.74-44.74h249.33c20.58,0,37.91,13.89,43.13,32.81"/>
  <rect class="cls-1" x="102.19" y="102.19" width="338.81" height="338.81" rx="51.75" ry="51.75"/>
  <g>
    <circle class="cls-1" cx="187.87" cy="277.84" r="27.45"/>
    <circle class="cls-1" cx="271.6" cy="277.84" r="27.45"/>
  </g>
  <g>
    <circle class="cls-1" cx="187.87" cy="277.84" r="27.45"/>
    <circle class="cls-1" cx="271.6" cy="277.84" r="27.45"/>
    <circle class="cls-1" cx="355.32" cy="277.84" r="27.45"/>
    <g>
      <circle class="cls-1" cx="187.87" cy="363.94" r="27.45"/>
      <circle class="cls-1" cx="271.6" cy="363.94" r="27.45"/>
      <circle class="cls-1" cx="355.32" cy="363.94" r="27.45"/>
    </g>
  </g>
  <g>
    <line class="cls-1" x1="187.87" y1="173.02" x2="187.87" y2="213.89"/>
    <line class="cls-1" x1="167.44" y1="193.45" x2="208.31" y2="193.45"/>
  </g>
  <g id="Layer_1-2" data-name="Layer 1-2">
    <g>
      <rect class="cls-2" x="372.81" y="165.56" width="3.82" height="10.4" transform="translate(-.83 1.83) rotate(-.28)"/>
      <rect class="cls-2" x="377.6" y="172.85" width="8.15" height="3.82" transform="translate(-11.07 322.99) rotate(-45.28)"/>
      <rect class="cls-2" x="365.88" y="170.7" width="3.82" height="8.15" transform="translate(-16.52 309.38) rotate(-44.72)"/>
      <rect class="cls-2" x="380.47" y="179.8" width="5.1" height="3.82" transform="translate(-.88 1.87) rotate(-.28)"/>
      <rect class="cls-2" x="324.96" y="179.87" width="3.85" height="21.88"/>
      <path class="cls-2" d="M342.5,192.35h5.85v4.63c-1.34,1-3.22,1.66-5.28,1.66-4.47,0-7.44-3.31-7.44-7.81v-.06c0-4.19,3.06-7.72,7.1-7.72,2.78,0,4.44.91,6.13,2.35l2.44-2.91c-2.25-1.91-4.59-2.97-8.41-2.97-6.6,0-11.28,5.19-11.28,11.32v.06c0,6.38,4.5,11.25,11.35,11.25,3.87,0,6.97-1.56,9.13-3.41v-9.72h-9.06l-.51,3.34h0Z"/>
      <polygon class="cls-2" points="359.66 192.44 368.09 192.44 368.09 189 359.66 189 359.66 183.31 368.99 183.31 368.99 179.87 355.81 179.87 355.81 201.76 369.98 201.76 369.98 198.32 359.66 198.32 359.66 192.44"/>
      <polygon class="cls-2" points="376.62 179.87 372.77 179.87 372.77 201.76 385.57 201.76 385.57 198.25 376.62 198.25 376.62 179.87"/>
    </g>
  </g>
</svg>