<?xml version="1.0" encoding="UTF-8"?>
<svg id="icons" xmlns="http://www.w3.org/2000/svg" viewBox="0 0 512 512">
  <defs>
    <style>
      .cls-1 {
        fill: #141414;
      }
    </style>
  </defs>
  <path class="cls-1" d="M219.19,201.41,186.75,185.18,380.81,210.22c-5.85-14.07-17.73-29.24-27.01-34.08,7.59,14.84,11.98,29.79,13.62,40.89l.04.24c-15.26-37.98-41.07-53.28-62.18-86.6-1.05-1.68-2.11-3.38-3.16-5.16-.55-.91-1.01-1.82-1.51-2.8-.87-1.68-1.5-3.47-1.97-5.34,0-.18-.13-.32-.32-.36h-.27l-.04.04s-.1.04-.1.04c0,0,0-.04.04-.1-29.98,17.55-42.36,48.3-45.56,67.81-9.27.55-18.32,2.88-26.68,6.81-1.61.82-2.32,2.66-1.73,4.29.68,1.87,2.78,2.8,4.61,1.97,7.31-3.43,15.17-5.48,23.26-6.03l.78-.1c1.1-.04,2.24-.1,3.33-.1,6.54-.04,13.06.87,19.33,2.69l1.1.32c1.05.32,2.06.68,3.11,1.05.73.27,1.51.55,2.24.87.6.22,1.19.5,1.78.73.92.42,1.83.88,2.75,1.33l1.23.59c.91.46,1.79.96,2.66,1.47.55.32,1.1.64,1.64,1.01,9.75,6.04,17.87,14.4,23.54,24.35-7.17-5.02-20.06-10.05-32.43-7.85,48.43,24.21,35.41,107.6-31.71,104.44-5.99-.22-11.89-1.37-17.5-3.38-1.37-.5-2.7-1.05-3.97-1.61-.77-.36-1.55-.73-2.28-1.09-16.46-8.5-30.03-24.59-31.71-44.1,0,0,6.21-23.16,44.5-23.16,4.17,0,16-11.57,16.22-14.91-.1-1.1-23.54-10.41-32.67-19.41-4.89-4.8-7.17-7.12-9.23-8.87-1.1-.96-2.28-1.82-3.52-2.64-3.05-10.74-3.19-22.12-.36-32.91-13.85,6.31-24.59,16.27-32.4,25.05h-.08c-5.34-6.76-4.94-29.07-4.67-33.72-.04-.32-3.97,2.01-4.48,2.38-4.7,3.38-9.13,7.13-13.16,11.29-4.61,4.66-8.81,9.69-12.61,15.08-8.63,12.25-14.8,26.13-18.05,40.75-.04.18-1.27,5.68-2.18,12.43-.18,1.05-.32,2.11-.46,3.15-.38,2.56-.64,5.17-.78,7.73l-.04.41c-.08,1.51-.18,2.97-.27,4.48v.68c0,74.4,60.31,134.71,134.71,134.71,66.61,0,121.95-48.39,132.78-111.91.24-1.73.41-3.47.6-5.2,2.69-23.08-.27-47.38-8.73-67.67h-.03Z"/>
</svg>