<?xml version="1.0" encoding="UTF-8"?>
<svg id="icons" xmlns="http://www.w3.org/2000/svg" viewBox="0 0 512 512">
  <defs>
    <style>
      .cls-1 {
        fill: none;
        stroke: #141414;
        stroke-linecap: round;
        stroke-linejoin: round;
        stroke-width: 2px;
      }
    </style>
  </defs>
  <path class="cls-1" d="M65.14,344.37c-7.91,0-14.32-6.41-14.32-14.32V124.48c0-7.91,6.41-14.32,14.32-14.32h319.16c7.91,0,14.32,6.41,14.32,14.32v96.22"/>
  <path class="cls-1" d="M345.59,344.37H66.84c-8.85,0-16.02-7.17-16.02-16.02v-26.1h295.96"/>
  <polygon class="cls-1" points="268.03 401.84 181.41 401.84 191.71 344.37 257.73 344.37 268.03 401.84"/>
  <line class="cls-1" x1="140.03" y1="401.84" x2="309.41" y2="401.84"/>
  <circle class="cls-1" cx="224.72" cy="323.31" r="9.09"/>
  <g id="Rectangle_58" data-name="Rectangle 58">
    <polyline class="cls-1" points="449.75 364.92 449.75 401.84 346.78 401.84 346.78 220.7 449.75 220.7 449.75 383.46"/>
  </g>
  <line class="cls-1" x1="378.71" y1="258.03" x2="417.82" y2="258.03"/>
  <line class="cls-1" x1="378.71" y1="281.86" x2="417.82" y2="281.86"/>
  <line class="cls-1" x1="335.35" y1="401.84" x2="461.18" y2="401.84"/>
</svg>