<?xml version="1.0" encoding="UTF-8"?>
<svg id="icons" xmlns="http://www.w3.org/2000/svg" viewBox="0 0 512 512">
  <defs>
    <style>
      .cls-1 {
        fill: #141414;
        fill-rule: evenodd;
      }
    </style>
  </defs>
  <path class="cls-1" d="M154.29,222.62h0c-23.01,39.81-8.45,100.22,17.43,136.86,13.3,18.49,26.06,34.52,44.22,34.52h1.26c7.91,0,14.38-2.47,19.95-5.46,6.65-2.29,13.3-5.28,24.09-5.28s17.08,2.99,23.01,5.28c6.65,2.99,12.76,5.46,22.47,5.46,19.95-.7,32.53-18.49,43.5-33.82,11.5-16.56,16.9-32.58,18.69-38.57.72-1.23,0-2.29-1.08-2.99-3.77-1.23-34.51-14.8-35.23-52.14,0-29.59,23.73-45.62,28.58-48.61.54-.53.54-1.23,1.08-1.76,0-.53,0-1.23-.54-1.23-16.36-23.6-41.16-27.12-51.41-27.83h-4.85c-11.5,0-23.01,4.23-31.99,7.75-6.65,2.29-12.22,4.76-15.82,4.76-4.13,0-9.71-2.47-15.64-4.76-8.45-2.99-18.15-7.05-28.4-7.05h-.72c-23.55.53-46.01,13.56-58.6,34.87"/>
  <path class="cls-1" d="M309.55,118h0c-14.48.73-31.29,9.86-41.49,22.28-9.12,9.68-17.52,27.03-15.02,44.2,0,1.28,1.07,2.37,1.79,2.37h3.04c13.77,0,28.79-7.85,38.98-20.82,10.91-12.97,16.27-30.14,15.02-45.48,0-1.28-1.07-2.56-2.32-2.56"/>
</svg>