<?xml version="1.0" encoding="UTF-8"?>
<svg id="icons" xmlns="http://www.w3.org/2000/svg" viewBox="0 0 512 512">
  <defs>
    <style>
      .cls-1 {
        fill: none;
        stroke: #141414;
        stroke-linecap: round;
        stroke-linejoin: round;
        stroke-width: 2px;
      }

      .cls-2 {
        fill: #141414;
      }
    </style>
  </defs>
  <rect class="cls-1" x="153.78" y="149.34" width="205.3" height="183.42" rx="2" ry="2"/>
  <rect class="cls-1" x="172.87" y="377.76" width="125.91" height="32.24"/>
  <rect class="cls-1" x="316.6" y="377.76" width="23.27" height="32.24"/>
  <g>
    <path class="cls-2" d="M209.59,248.25c-3.45,0-6.55-.58-9.3-1.73-2.75-1.15-5.02-2.79-6.81-4.91-1.79-2.12-2.96-4.64-3.51-7.57l5.14-.85c.82,3.2,2.56,5.7,5.21,7.52,2.65,1.82,5.81,2.72,9.48,2.72,2.42,0,4.59-.38,6.51-1.15,1.92-.77,3.42-1.86,4.52-3.27,1.1-1.42,1.64-3.1,1.64-5.03,0-1.28-.23-2.37-.68-3.27-.46-.9-1.06-1.65-1.82-2.24-.75-.59-1.58-1.09-2.47-1.49s-1.76-.73-2.6-.98l-12.5-3.73c-1.5-.43-2.9-.99-4.18-1.66-1.28-.67-2.39-1.48-3.34-2.43s-1.69-2.06-2.21-3.34c-.53-1.28-.79-2.74-.79-4.38,0-2.79.73-5.19,2.19-7.23,1.46-2.03,3.46-3.6,5.99-4.69,2.53-1.1,5.42-1.63,8.66-1.61,3.29,0,6.23.58,8.82,1.75,2.59,1.16,4.73,2.83,6.42,4.98,1.69,2.16,2.81,4.71,3.36,7.65l-5.27.96c-.34-2.15-1.13-4.01-2.36-5.58s-2.8-2.79-4.71-3.65c-1.91-.86-4-1.29-6.29-1.32-2.21,0-4.18.37-5.91,1.11s-3.09,1.75-4.09,3.03c-1,1.28-1.5,2.74-1.5,4.38s.46,3,1.39,4.01,2.07,1.79,3.42,2.36,2.68,1.04,3.96,1.4l9.66,2.84c1.01.27,2.18.67,3.54,1.18,1.36.51,2.68,1.24,3.97,2.19s2.36,2.18,3.2,3.72c.85,1.53,1.27,3.47,1.27,5.82s-.45,4.33-1.35,6.13-2.17,3.32-3.8,4.55c-1.63,1.23-3.54,2.18-5.72,2.83-2.18.65-4.56.98-7.14.98Z"/>
    <path class="cls-2" d="M252.84,248.25c-3.45,0-6.55-.58-9.3-1.73-2.75-1.15-5.02-2.79-6.81-4.91-1.79-2.12-2.96-4.64-3.51-7.57l5.14-.85c.82,3.2,2.56,5.7,5.21,7.52,2.65,1.82,5.81,2.72,9.48,2.72,2.42,0,4.59-.38,6.51-1.15,1.92-.77,3.42-1.86,4.52-3.27,1.1-1.42,1.64-3.1,1.64-5.03,0-1.28-.23-2.37-.68-3.27-.46-.9-1.06-1.65-1.82-2.24-.75-.59-1.58-1.09-2.47-1.49s-1.76-.73-2.6-.98l-12.5-3.73c-1.5-.43-2.9-.99-4.18-1.66-1.28-.67-2.39-1.48-3.34-2.43s-1.69-2.06-2.21-3.34c-.53-1.28-.79-2.74-.79-4.38,0-2.79.73-5.19,2.19-7.23,1.46-2.03,3.46-3.6,5.99-4.69,2.53-1.1,5.42-1.63,8.66-1.61,3.29,0,6.23.58,8.82,1.75,2.59,1.16,4.73,2.83,6.42,4.98,1.69,2.16,2.81,4.71,3.36,7.65l-5.27.96c-.34-2.15-1.13-4.01-2.36-5.58s-2.8-2.79-4.71-3.65c-1.91-.86-4-1.29-6.29-1.32-2.21,0-4.18.37-5.91,1.11s-3.09,1.75-4.09,3.03c-1,1.28-1.5,2.74-1.5,4.38s.46,3,1.39,4.01,2.07,1.79,3.42,2.36,2.68,1.04,3.96,1.4l9.66,2.84c1.01.27,2.18.67,3.54,1.18,1.36.51,2.68,1.24,3.97,2.19s2.36,2.18,3.2,3.72c.85,1.53,1.27,3.47,1.27,5.82s-.45,4.33-1.35,6.13c-.9,1.8-2.17,3.32-3.8,4.55-1.63,1.23-3.54,2.18-5.72,2.83-2.18.65-4.56.98-7.14.98Z"/>
    <path class="cls-2" d="M277.94,247.22v-49.31h14.97c.52,0,1.42.01,2.69.04,1.27.02,2.48.12,3.65.27,3.75.53,6.87,1.92,9.38,4.18,2.51,2.26,4.39,5.14,5.65,8.63s1.88,7.34,1.88,11.54-.63,8.05-1.88,11.54c-1.26,3.49-3.14,6.37-5.65,8.63-2.51,2.26-5.64,3.65-9.38,4.18-1.14.14-2.36.22-3.66.26-1.3.03-2.19.05-2.67.05h-14.97ZM283.14,242.39h9.76c.93,0,1.95-.03,3.03-.09,1.08-.06,2.01-.17,2.79-.33,2.88-.5,5.2-1.66,6.97-3.49,1.77-1.83,3.06-4.12,3.88-6.87.82-2.75,1.23-5.77,1.23-9.06s-.41-6.34-1.23-9.11c-.82-2.76-2.12-5.04-3.9-6.85s-4.1-2.96-6.95-3.46c-.78-.16-1.72-.27-2.83-.33-1.11-.06-2.11-.09-2.99-.09h-9.76v39.65Z"/>
  </g>
  <line class="cls-1" x1="191.14" y1="272.96" x2="264.64" y2="272.96"/>
  <line class="cls-1" x1="191.14" y1="291.13" x2="232.49" y2="291.13"/>
  <path class="cls-1" d="M408.77,102H104.09c-9.17,0-16.61,7.43-16.61,16.61v274.79c0,9.17,7.43,16.61,16.61,16.61h50.96v-25.6c0-3.67,2.97-6.64,6.64-6.64h189.48c3.67,0,6.64,2.97,6.64,6.64v25.6h50.96c9.17,0,16.61-7.43,16.61-16.61V118.61c0-9.17-7.43-16.61-16.61-16.61Z"/>
</svg>