<?xml version="1.0" encoding="UTF-8"?>
<svg id="icons" xmlns="http://www.w3.org/2000/svg" viewBox="0 0 512 512">
  <defs>
    <style>
      .cls-1 {
        fill: none;
        stroke: #141414;
        stroke-linecap: round;
        stroke-linejoin: round;
        stroke-width: 2px;
      }

      .cls-2 {
        fill: #141414;
      }
    </style>
  </defs>
  <line class="cls-1" x1="364.82" y1="352.69" x2="332.7" y2="352.69"/>
  <path class="cls-1" d="M205.81,203v-79.51c0-7.93,6.42-14.35,14.35-14.35h162.44c7.93,0,14.35,6.42,14.35,14.35v118.17"/>
  <line class="cls-1" x1="365.11" y1="324.76" x2="332.7" y2="324.76"/>
  <polyline class="cls-1" points="223.91 201.64 223.91 127.32 378.84 127.32 378.84 241.66"/>
  <rect class="cls-1" x="365.11" y="241.66" width="97.66" height="161.2" rx="10.89" ry="10.89"/>
  <path class="cls-1" d="M447.33,258.1h-24.19v2.83c0,2.07-1.63,3.76-3.64,3.76h-11.11c-2.01,0-3.64-1.68-3.64-3.76v-2.83h-24.19c-1.44,0-2.6,1.2-2.6,2.68v121.42c0,1.48,1.16,2.68,2.6,2.68h66.77c1.44,0,2.6-1.2,2.6-2.68v-121.42c0-1.48-1.16-2.68-2.6-2.68Z"/>
  <path class="cls-1" d="M67,203h260.71c2.76,0,5,2.24,5,5v166.27H62v-166.27c0-2.76,2.24-5,5-5Z"/>
  <path class="cls-1" d="M49.23,374.27h296.25v21.53c0,3.09-2.51,5.59-5.59,5.59H54.82c-3.09,0-5.59-2.51-5.59-5.59v-21.53h0Z"/>
  <line class="cls-1" x1="175.71" y1="224.14" x2="218.99" y2="224.14"/>
  <g>
    <path class="cls-2" d="M134.2,313.36v-27.16h2.77v27.16h-2.77Z"/>
    <path class="cls-2" d="M153.5,313.92c-1.91,0-3.63-.33-5.17-1-1.54-.67-2.84-1.61-3.92-2.85-1.07-1.23-1.89-2.72-2.46-4.46-.56-1.74-.85-3.69-.85-5.84,0-2.84.49-5.32,1.48-7.44s2.4-3.76,4.25-4.93,4.07-1.75,6.66-1.75c2.89,0,5.25.68,7.06,2.03,1.82,1.35,3.08,3.17,3.8,5.44l-2.79.68c-.59-1.66-1.56-2.99-2.91-3.98s-3.03-1.49-5.05-1.49c-2.12-.01-3.89.46-5.3,1.42-1.41.96-2.47,2.31-3.18,4.04-.71,1.73-1.07,3.72-1.08,5.99-.01,2.26.34,4.25,1.05,5.97.71,1.72,1.77,3.06,3.2,4.04,1.42.97,3.19,1.47,5.32,1.48,1.95,0,3.56-.38,4.83-1.13s2.23-1.84,2.9-3.24c.66-1.41,1.03-3.07,1.12-5h-6.26v-2.38h9.17c.04.29.06.59.07.92,0,.32,0,.55,0,.69,0,2.45-.44,4.64-1.32,6.57-.88,1.93-2.2,3.45-3.97,4.56-1.77,1.11-3.98,1.67-6.65,1.67Z"/>
    <path class="cls-2" d="M169.21,313.36v-27.16h16.97v2.66h-14.2v9.39h11.94v2.66h-11.94v9.79h14.2v2.66h-16.97Z"/>
    <path class="cls-2" d="M191.09,313.36v-27.16h2.77v24.5h12.9v2.66h-15.67Z"/>
    <path class="cls-2" d="M226.61,313.92c-2.7,0-4.98-.6-6.84-1.8-1.86-1.2-3.27-2.86-4.22-4.99-.96-2.12-1.43-4.57-1.43-7.35s.48-5.23,1.43-7.35c.96-2.12,2.36-3.79,4.22-4.99,1.86-1.2,4.14-1.8,6.84-1.8s5,.6,6.86,1.8,3.26,2.86,4.22,4.99,1.44,4.57,1.44,7.35-.48,5.23-1.44,7.35c-.96,2.13-2.37,3.79-4.22,4.99s-4.14,1.8-6.86,1.8ZM226.61,311.26c2.12,0,3.9-.48,5.32-1.45,1.42-.97,2.49-2.32,3.2-4.04.71-1.73,1.07-3.72,1.07-5.99s-.35-4.25-1.07-5.98c-.71-1.72-1.77-3.07-3.2-4.04-1.42-.97-3.2-1.46-5.32-1.47-2.12,0-3.89.48-5.3,1.45-1.41.97-2.47,2.32-3.18,4.04-.71,1.73-1.07,3.72-1.08,5.99-.01,2.26.34,4.25,1.05,5.97.71,1.72,1.77,3.06,3.2,4.04,1.42.97,3.19,1.47,5.32,1.48Z"/>
    <path class="cls-2" d="M252.34,313.92c-1.9,0-3.6-.32-5.12-.95-1.51-.64-2.77-1.54-3.75-2.71-.99-1.17-1.63-2.56-1.93-4.17l2.83-.47c.45,1.76,1.41,3.14,2.87,4.14,1.46,1,3.2,1.5,5.22,1.5,1.33,0,2.53-.21,3.58-.63,1.05-.42,1.89-1.02,2.49-1.8s.91-1.7.91-2.77c0-.7-.13-1.3-.38-1.8-.25-.5-.58-.91-1-1.23-.41-.33-.87-.6-1.36-.82-.49-.22-.97-.4-1.43-.54l-6.88-2.05c-.83-.24-1.6-.54-2.3-.91-.7-.37-1.32-.82-1.84-1.34s-.93-1.14-1.22-1.84-.43-1.51-.43-2.41c0-1.53.4-2.86,1.21-3.98s1.91-1.98,3.3-2.58c1.39-.6,2.98-.9,4.77-.89,1.81,0,3.43.32,4.85.96,1.43.64,2.61,1.56,3.54,2.74s1.55,2.59,1.85,4.22l-2.9.53c-.19-1.18-.62-2.21-1.3-3.07-.68-.87-1.54-1.54-2.59-2.01-1.05-.47-2.2-.71-3.46-.73-1.22,0-2.3.2-3.25.61-.95.41-1.7.96-2.25,1.67-.55.7-.83,1.51-.83,2.41s.26,1.65.77,2.21c.51.55,1.14.99,1.89,1.3s1.47.57,2.18.77l5.32,1.56c.55.15,1.21.37,1.95.65.75.28,1.48.69,2.19,1.21s1.3,1.2,1.76,2.05c.47.84.7,1.91.7,3.21s-.25,2.38-.75,3.37-1.19,1.83-2.09,2.51c-.9.68-1.95,1.2-3.15,1.56-1.2.36-2.51.54-3.93.54Z"/>
  </g>
</svg>