<?xml version="1.0" encoding="UTF-8"?>
<svg id="icons" xmlns="http://www.w3.org/2000/svg" viewBox="0 0 512 512">
  <defs>
    <style>
      .cls-1 {
        fill: none;
        stroke: #141414;
        stroke-linecap: round;
        stroke-linejoin: round;
        stroke-width: 2px;
      }
    </style>
  </defs>
  <path class="cls-1" d="M93.77,141.86h44.01v-48.86h-24.45c-14.65,0-24.4,11.37-24.4,24.4v19.55c0,3.28,1.62,4.9,4.85,4.9"/>
  <path class="cls-1" d="M164.46,419h0c14.14,0,26.68-12.72,26.68-27.02v-22.29c0-3.16,3.11-4.78,6.27-4.78h219.4c3.11,0,6.27,1.63,6.27,4.78v30.23c0,11.14-7.87,19.08-18.81,19.08h-249.19c-9.43,0-17.25-7.94-17.25-19.08V93h219.4c9.43,0,17.25,7.94,17.25,17.46,0,252.82,0-6.51,0,252.82"/>
  <g>
    <polyline class="cls-1" points="224.52 260.2 185.09 244.42 224.52 227.35"/>
    <polyline class="cls-1" points="287.47 260.2 326.9 244.42 287.47 227.35"/>
    <line class="cls-1" x1="273.36" y1="205.6" x2="238.64" y2="282"/>
  </g>
</svg>