<?xml version="1.0" encoding="UTF-8"?>
<svg id="icons" xmlns="http://www.w3.org/2000/svg" viewBox="0 0 512 512">
  <defs>
    <style>
      .cls-1 {
        fill: none;
        stroke: #141414;
        stroke-linecap: round;
        stroke-linejoin: round;
        stroke-width: 2px;
      }

      .cls-2 {
        fill: #141414;
      }
    </style>
  </defs>
  <rect class="cls-1" x="159.06" y="161.49" width="192.37" height="192.37" rx="5" ry="5"/>
  <g>
    <path class="cls-2" d="M218.16,282.82c-2.91,0-5.52-.51-7.85-1.52-2.33-1.01-4.31-2.46-5.94-4.33-1.63-1.87-2.88-4.13-3.74-6.78-.86-2.65-1.29-5.6-1.29-8.87,0-4.32.75-8.08,2.25-11.3,1.5-3.22,3.65-5.72,6.46-7.49,2.81-1.78,6.18-2.67,10.12-2.67,4.39,0,7.97,1.03,10.73,3.08,2.76,2.06,4.69,4.81,5.77,8.27l-4.24,1.03c-.9-2.52-2.37-4.54-4.42-6.05-2.06-1.51-4.61-2.26-7.67-2.26-3.23-.02-5.91.7-8.05,2.16-2.14,1.46-3.75,3.5-4.83,6.13s-1.63,5.66-1.65,9.1c-.02,3.44.51,6.46,1.59,9.07,1.08,2.61,2.7,4.65,4.86,6.13,2.16,1.48,4.85,2.23,8.08,2.25,2.96,0,5.4-.57,7.33-1.72,1.93-1.15,3.4-2.79,4.4-4.93,1-2.14,1.57-4.67,1.71-7.59h-9.51v-3.61h13.92c.06.44.09.9.1,1.39.01.49.02.83.02,1.05,0,3.72-.67,7.05-2.01,9.98-1.34,2.93-3.35,5.24-6.03,6.93-2.68,1.69-6.05,2.54-10.1,2.54Z"/>
    <path class="cls-2" d="M242.03,281.96v-41.26h15.93c.4,0,.86.01,1.36.04s1.02.09,1.53.19c2.16.33,3.99,1.07,5.49,2.25,1.5,1.17,2.63,2.65,3.41,4.42.77,1.78,1.16,3.75,1.16,5.9s-.39,4.1-1.17,5.88c-.78,1.78-1.93,3.25-3.42,4.43-1.5,1.17-3.32,1.92-5.46,2.25-.52.08-1.03.13-1.53.17-.51.04-.96.06-1.36.06h-11.72v15.67h-4.21ZM246.24,262.28h11.6c.34,0,.74-.02,1.21-.06.46-.04.91-.1,1.35-.2,1.41-.31,2.57-.89,3.48-1.75.91-.86,1.58-1.88,2.03-3.06.45-1.18.67-2.42.67-3.7s-.22-2.52-.67-3.71c-.45-1.2-1.13-2.22-2.03-3.08-.91-.86-2.07-1.44-3.48-1.75-.44-.09-.89-.16-1.35-.19-.46-.03-.86-.04-1.21-.04h-11.6v17.53Z"/>
    <path class="cls-2" d="M292.74,282.82c-3.15,0-5.94-.65-8.35-1.95-2.42-1.3-4.31-3.13-5.69-5.5-1.37-2.37-2.06-5.14-2.06-8.31v-26.33l4.24-.03v25.82c0,2.14.36,3.99,1.09,5.54.73,1.56,1.68,2.84,2.85,3.84s2.46,1.74,3.85,2.22c1.4.48,2.75.72,4.07.72s2.7-.24,4.1-.72c1.4-.48,2.67-1.22,3.84-2.22,1.16-1,2.11-2.28,2.84-3.84.73-1.56,1.09-3.4,1.09-5.54v-25.82h4.24v26.36c0,3.17-.69,5.94-2.06,8.29-1.37,2.36-3.27,4.19-5.69,5.5s-5.2,1.96-8.35,1.96Z"/>
  </g>
  <g>
    <line class="cls-1" x1="164.25" y1="108.47" x2="164.25" y2="83.78"/>
    <line class="cls-1" x1="200.65" y1="108.47" x2="200.65" y2="83.78"/>
    <line class="cls-1" x1="237.04" y1="108.47" x2="237.04" y2="83.78"/>
    <line class="cls-1" x1="273.44" y1="108.47" x2="273.44" y2="83.78"/>
    <line class="cls-1" x1="309.83" y1="108.47" x2="309.83" y2="83.78"/>
    <line class="cls-1" x1="346.23" y1="108.47" x2="346.23" y2="83.78"/>
  </g>
  <g>
    <line class="cls-1" x1="164.25" y1="428.22" x2="164.25" y2="405.74"/>
    <line class="cls-1" x1="200.65" y1="428.22" x2="200.65" y2="405.74"/>
    <line class="cls-1" x1="237.04" y1="428.22" x2="237.04" y2="405.74"/>
    <line class="cls-1" x1="273.44" y1="428.22" x2="273.44" y2="405.74"/>
    <line class="cls-1" x1="309.83" y1="428.22" x2="309.83" y2="405.74"/>
    <line class="cls-1" x1="346.23" y1="428.22" x2="346.23" y2="405.74"/>
  </g>
  <g>
    <line class="cls-1" x1="107.17" y1="347.52" x2="82.48" y2="347.52"/>
    <line class="cls-1" x1="107.17" y1="311.13" x2="82.48" y2="311.13"/>
    <line class="cls-1" x1="107.17" y1="274.74" x2="82.48" y2="274.74"/>
    <line class="cls-1" x1="107.17" y1="238.34" x2="82.48" y2="238.34"/>
    <line class="cls-1" x1="107.17" y1="201.95" x2="82.48" y2="201.95"/>
    <line class="cls-1" x1="107.17" y1="165.55" x2="82.48" y2="165.55"/>
  </g>
  <g>
    <line class="cls-1" x1="429.52" y1="347.52" x2="404.83" y2="347.52"/>
    <line class="cls-1" x1="429.52" y1="311.13" x2="404.83" y2="311.13"/>
    <line class="cls-1" x1="429.52" y1="274.74" x2="404.83" y2="274.74"/>
    <line class="cls-1" x1="429.52" y1="238.34" x2="404.83" y2="238.34"/>
    <line class="cls-1" x1="429.52" y1="201.95" x2="404.83" y2="201.95"/>
    <line class="cls-1" x1="429.52" y1="165.55" x2="404.83" y2="165.55"/>
  </g>
  <polygon class="cls-1" points="372.94 405.74 137.54 405.74 107.17 375.38 107.17 144.22 141.78 109.61 372.94 109.61 403.3 139.97 403.3 375.38 372.94 405.74"/>
</svg>