<?xml version="1.0" encoding="UTF-8"?>
<svg id="icons" xmlns="http://www.w3.org/2000/svg" viewBox="0 0 512 512">
  <defs>
    <style>
      .cls-1 {
        fill: none;
        stroke: #141414;
        stroke-linecap: round;
        stroke-linejoin: round;
        stroke-width: 2px;
      }
    </style>
  </defs>
  <rect class="cls-1" x="102" y="102" width="308" height="308" rx="5" ry="5"/>
  <path class="cls-1" d="M369.06,337.67l40.94-40.94v98.14c0,8.36-6.78,15.14-15.14,15.14h-98.14l40.98-40.98"/>
  <path class="cls-1" d="M317.1,342.83c-17.28,12.18-38.35,19.33-61.1,19.33-58.63,0-106.17-47.53-106.17-106.17s47.53-106.17,106.17-106.17,106.17,47.53,106.17,106.17c0,23.05-7.34,44.38-19.82,61.78"/>
  <path class="cls-1" d="M266.37,279.26c-3.17,1.41-6.68,2.2-10.37,2.2-14.06,0-25.46-11.4-25.46-25.46s11.4-25.46,25.46-25.46,25.46,11.4,25.46,25.46c0,3.89-.87,7.57-2.43,10.87"/>
  <path class="cls-1" d="M367.27,337.67c10.02,7.99,10.86,22.93,1.79,31.99h0c-9.06,9.06-23.99,8.23-31.99-1.79"/>
  <path class="cls-1" d="M337.07,367.86l-84.03-105.31c-2.16-2.51-2.02-6.26.32-8.6h0c2.34-2.34,6.09-2.48,8.6-.32l105.31,84.03"/>
</svg>