<?xml version="1.0" encoding="UTF-8"?>
<svg id="icons" xmlns="http://www.w3.org/2000/svg" viewBox="0 0 512 512">
  <defs>
    <style>
      .cls-1 {
        fill: none;
        stroke: #141414;
        stroke-linecap: round;
        stroke-linejoin: round;
        stroke-width: 2px;
      }
    </style>
  </defs>
  <polyline class="cls-1" points="183.88 186.9 133.61 186.9 109.11 162.4"/>
  <line class="cls-1" x1="256" y1="234.98" x2="256" y2="284.25"/>
  <polyline class="cls-1" points="328.12 187.24 378.39 187.24 401.2 161.81"/>
  <line class="cls-1" x1="328.11" y1="204.64" x2="409.43" y2="204.64"/>
  <polyline class="cls-1" points="328.12 222.03 378.39 222.03 401.2 248.15"/>
  <line class="cls-1" x1="411.5" y1="137.07" x2="437.01" y2="137.07"/>
  <line class="cls-1" x1="411.5" y1="259.36" x2="437.01" y2="259.36"/>
  <line class="cls-1" x1="420.7" y1="197.87" x2="446.21" y2="197.87"/>
  <line class="cls-1" x1="183.89" y1="204.3" x2="102.57" y2="204.3"/>
  <polyline class="cls-1" points="183.88 221.69 133.61 221.69 109.64 247.03"/>
  <line class="cls-1" x1="100.5" y1="136.73" x2="74.99" y2="136.73"/>
  <line class="cls-1" x1="100.5" y1="259.02" x2="74.99" y2="259.02"/>
  <line class="cls-1" x1="91.3" y1="197.53" x2="65.79" y2="197.53"/>
  <g>
    <rect class="cls-1" x="183.88" y="174.41" width="144.23" height="60.46"/>
    <circle class="cls-1" cx="298.14" cy="204.64" r="10.01"/>
  </g>
  <rect class="cls-1" x="183.88" y="161.39" width="144.23" height="13.1"/>
  <g>
    <path class="cls-1" d="M304.48,328.17h0l-7.35-.74c-1.12,0-2.06-.94-2.45-2.07-.93-3.38-2.26-6.39-3.95-9.21-.57-1.13-.57-2.46.19-3.39l4.52-5.47c1.13-1.12.94-2.82,0-3.95l-6.96-6.96c-1.13-.94-2.83-1.13-3.96-.19l-5.45,4.71c-.94.76-2.26.76-3.39.19-3-1.69-6.02-3.02-9.42-3.96-1.3-.19-2.06-1.32-2.26-2.45l-.56-6.78c-.19-1.5-1.32-2.63-3-2.63h-9.79c-1.51,0-2.64,1.13-2.83,2.63l-.57,6.78c-.19,1.13-1.12,2.26-2.26,2.45-3.38.94-6.78,2.46-9.78,4.15-.94.57-2.26.57-3.39-.37l-4.9-4.15c-1.13-.94-2.83-.76-3.95.19l-6.78,6.98c-1.14,1.12-1.33,2.82-.2,3.95l4.15,5.09c.76.93.94,2.26.19,3.39-1.69,3-3.02,6.39-3.95,9.77-.38,1.33-1.33,2.26-2.64,2.26l-6.22.57c-1.5.19-2.63,1.32-2.63,2.83v9.98c0,1.5,1.13,2.63,2.63,2.82l6.41.57c1.33.19,2.27.94,2.64,2.26.94,3.39,2.45,6.78,4.15,9.8.74,1.13.56,2.45-.19,3.39l-3.96,4.89c-1.13,1.13-.94,2.83.19,3.96l6.78,6.78c1.13,1.13,2.82,1.32,3.96.19l5.08-4.13c.94-.96,2.26-.96,3.39-.38,3.02,1.69,6.41,3.02,9.79,3.95,1.32.2,2.26,1.33,2.26,2.46l.57,6.59c.19,1.5,1.5,2.63,3,2.63h9.79c1.51,0,2.83-1.13,2.83-2.63l.56-6.98c.2-1.32,1.13-2.26,2.26-2.63,3.2-.94,6.41-2.26,9.42-3.96.94-.74,2.45-.74,3.39.2l5.25,4.32c1.14,1.14,2.83.96,3.96-.19l6.98-6.78c.93-1.13,1.12-2.82.19-4.13l-4.7-5.47c-.76-.93-.94-2.26-.38-3.38,1.7-2.83,2.83-6.03,3.76-9.24.38-1.32,1.33-2.07,2.64-2.26l6.96-.56c1.5-.19,2.64-1.51,2.64-3.02v-9.8c0-1.5-1.14-2.83-2.64-2.83"/>
    <path class="cls-1" d="M255.3,361.24h0c-13.32,0-24.17-10.86-24.17-24.19s10.86-24.16,24.17-24.16,24.18,10.83,24.18,24.16-10.86,24.19-24.18,24.19"/>
  </g>
  <rect class="cls-1" x="400.23" y="124.84" width="55.18" height="37.98" rx="3.38" ry="3.38"/>
  <rect class="cls-1" x="400.23" y="247.14" width="55.18" height="37.98" rx="3.38" ry="3.38"/>
  <rect class="cls-1" x="409.43" y="185.65" width="55.18" height="37.98" rx="3.38" ry="3.38"/>
  <rect class="cls-1" x="56.59" y="124.5" width="55.18" height="37.98" rx="3.38" ry="3.38" transform="translate(168.36 286.98) rotate(180)"/>
  <rect class="cls-1" x="56.59" y="246.79" width="55.18" height="37.98" rx="3.38" ry="3.38" transform="translate(168.36 531.57) rotate(180)"/>
  <rect class="cls-1" x="47.39" y="185.31" width="55.18" height="37.98" rx="3.38" ry="3.38" transform="translate(149.96 408.59) rotate(180)"/>
</svg>