<?xml version="1.0" encoding="UTF-8"?>
<svg id="icons" xmlns="http://www.w3.org/2000/svg" viewBox="0 0 512 512">
  <defs>
    <style>
      .cls-1 {
        fill: none;
        stroke: #141414;
        stroke-linecap: round;
        stroke-linejoin: round;
        stroke-width: 2px;
      }
    </style>
  </defs>
  <line class="cls-1" x1="70.86" y1="256" x2="127.83" y2="256"/>
  <line class="cls-1" x1="246.19" y1="256" x2="147.45" y2="256"/>
  <line class="cls-1" x1="265.81" y1="256" x2="364.55" y2="256"/>
  <line class="cls-1" x1="441.14" y1="256" x2="384.17" y2="256"/>
  <circle class="cls-1" cx="137.64" cy="256" r="9.81"/>
  <line class="cls-1" x1="137.64" y1="203.12" x2="137.64" y2="246.19"/>
  <rect class="cls-1" x="70.86" y="111.5" width="133.56" height="91.92" rx="5" ry="5"/>
  <line class="cls-1" x1="91.58" y1="141.09" x2="129.92" y2="141.09"/>
  <line class="cls-1" x1="144.84" y1="141.09" x2="165.28" y2="141.09"/>
  <circle class="cls-1" cx="374.36" cy="256" r="9.81"/>
  <line class="cls-1" x1="374.36" y1="203.12" x2="374.36" y2="246.19"/>
  <rect class="cls-1" x="307.58" y="111.5" width="133.56" height="91.92" rx="5" ry="5"/>
  <line class="cls-1" x1="328.29" y1="141.09" x2="366.64" y2="141.09"/>
  <line class="cls-1" x1="381.55" y1="141.09" x2="402" y2="141.09"/>
  <g>
    <circle class="cls-1" cx="256" cy="256" r="9.81"/>
    <line class="cls-1" x1="256" y1="307.45" x2="256" y2="265.81"/>
  </g>
  <rect class="cls-1" x="189.22" y="308.58" width="133.56" height="91.92" rx="5" ry="5"/>
  <line class="cls-1" x1="209.93" y1="338.17" x2="248.28" y2="338.17"/>
  <line class="cls-1" x1="263.19" y1="338.17" x2="283.64" y2="338.17"/>
</svg>