<?xml version="1.0" encoding="UTF-8"?>
<svg id="icons" xmlns="http://www.w3.org/2000/svg" viewBox="0 0 512 512">
  <defs>
    <style>
      .cls-1 {
        fill: none;
        stroke: #141414;
        stroke-linecap: round;
        stroke-linejoin: round;
        stroke-width: 2px;
      }
    </style>
  </defs>
  <path class="cls-1" d="M393.48,354.38c28.63-.05,52.57-22.84,52.82-51.46,0-.21,0-.41,0-.62,0-38.15-30.93-69.08-69.08-69.08-1.6,0-3.19.06-4.76.17-5.32-30.89-32.23-54.38-64.63-54.38-14.82,0-28.49,4.92-39.47,13.2-13.12-23.14-39.21-37.97-68.4-34.59-29.54,3.43-54.01,26.11-59.56,55.33-1.33,7.01-1.57,13.86-.89,20.44-1.57-.11-3.15-.16-4.74-.16-38.15,0-69.08,30.93-69.08,69.08,0,1.37.04,2.74.12,4.09,1.61,27.5,25.29,48.54,52.84,48.49l274.84-.49Z"/>
</svg>