<?xml version="1.0" encoding="UTF-8"?>
<svg id="icons" xmlns="http://www.w3.org/2000/svg" viewBox="0 0 512 512">
  <defs>
    <style>
      .cls-1 {
        fill: none;
        stroke: #141414;
        stroke-linecap: round;
        stroke-linejoin: round;
        stroke-width: 2px;
      }
    </style>
  </defs>
  <path class="cls-1" d="M298.98,269.45h0l-15.67-1.59c-2.38,0-4.4-2.01-5.22-4.42-1.99-7.2-4.82-13.64-8.42-19.65-1.22-2.41-1.22-5.24.4-7.23l9.64-11.68c2.41-2.38,2.01-6.01,0-8.42l-14.85-14.86c-2.41-2.01-6.04-2.41-8.45-.4l-11.62,10.04c-2.01,1.62-4.82,1.62-7.23.4-6.41-3.6-12.84-6.43-20.1-8.45-2.78-.4-4.4-2.81-4.82-5.22l-1.19-14.46c-.4-3.2-2.81-5.61-6.41-5.61h-20.89c-3.23,0-5.64,2.41-6.04,5.61l-1.22,14.46c-.4,2.41-2.38,4.82-4.82,5.22-7.2,2.01-14.46,5.24-20.86,8.84-2.01,1.22-4.82,1.22-7.23-.79l-10.46-8.84c-2.41-2.01-6.04-1.62-8.42.4l-14.46,14.88c-2.44,2.38-2.83,6.01-.42,8.42l8.84,10.86c1.62,1.99,2.01,4.82.4,7.23-3.6,6.41-6.43,13.64-8.42,20.84-.82,2.83-2.83,4.82-5.64,4.82l-13.27,1.22c-3.2.4-5.61,2.81-5.61,6.04v21.29c0,3.2,2.41,5.61,5.61,6.01l13.66,1.22c2.83.4,4.85,2.01,5.64,4.82,2.01,7.23,5.22,14.46,8.84,20.89,1.59,2.41,1.19,5.22-.4,7.23l-8.45,10.43c-2.41,2.41-2.01,6.04.4,8.45l14.46,14.46c2.41,2.41,6.01,2.81,8.45.4l10.83-8.82c2.01-2.04,4.82-2.04,7.23-.82,6.43,3.6,13.66,6.43,20.89,8.42,2.81.42,4.82,2.83,4.82,5.24l1.22,14.06c.4,3.2,3.2,5.61,6.41,5.61h20.89c3.23,0,6.04-2.41,6.04-5.61l1.19-14.88c.42-2.81,2.41-4.82,4.82-5.61,6.83-2.01,13.66-4.82,20.1-8.45,2.01-1.59,5.22-1.59,7.23.42l11.2,9.22c2.44,2.44,6.04,2.04,8.45-.4l14.88-14.46c1.99-2.41,2.38-6.01.4-8.82l-10.04-11.68c-1.62-1.99-2.01-4.82-.82-7.2,3.63-6.04,6.04-12.87,8.02-19.7.82-2.81,2.83-4.42,5.64-4.82l14.85-1.19c3.2-.4,5.64-3.23,5.64-6.43v-20.89c0-3.2-2.44-6.04-5.64-6.04"/>
  <path class="cls-1" d="M194.09,339.99h0c-28.4,0-51.56-23.16-51.56-51.6s23.16-51.54,51.56-51.54,51.58,23.11,51.58,51.54-23.16,51.6-51.58,51.6"/>
  <path class="cls-1" d="M357.5,213.25h0c-14.78,0-26.32-11.56-26.32-26.33s11.54-26.7,26.32-26.7,26.71,11.96,26.71,26.7-11.96,26.33-26.71,26.33"/>
  <path class="cls-1" d="M421.89,174.25h0l-9.6-.81c-1.61-.4-2.82-1.61-3.22-3.25-1.19-4.08-3.19-8.57-5.19-12.25-.79-1.61-.79-3.25.4-4.89l5.62-6.9c1.61-1.64,1.19-4.08,0-5.69l-9.2-8.97c-1.61-1.64-3.61-1.64-5.22-.43l-7.17,6.12c-1.21,1.21-3.22,1.21-4.82.4-3.59-2.44-7.99-4.08-12.39-5.29-1.61-.4-2.79-1.64-2.79-3.68l-.79-8.94c0-2.04-2-3.68-4.01-3.68h-12.79c-2,0-4.01,1.64-4.01,3.68l-.79,8.94c0,2.04-1.21,3.28-2.82,3.68-4.8,1.21-8.81,3.25-12.79,5.29-1.61,1.21-3.59.81-4.8,0l-6.41-5.69c-1.58-1.24-4.01-1.24-5.19.4l-9.2,8.97c-1.61,1.61-1.61,4.08-.4,5.69l5.59,6.53c1.21,1.21,1.21,3.25.4,4.46-2.4,4.48-3.98,8.97-5.19,13.45-.4,1.64-2,2.85-3.59,3.28l-8.01.4c-2.4.4-3.59,2.04-3.59,4.05v13.05c0,2.44,1.19,4.08,3.59,4.08l8.41.81c1.58.4,2.79,1.64,3.19,3.25,1.61,4.48,3.22,8.97,5.62,13.05.79,1.61.79,3.25-.42,4.89l-5.19,6.1c-1.19,1.64-1.19,4.08.4,5.72l9.2,8.94c1.21,1.64,3.61,1.64,5.19.43l6.83-5.72c1.19-1.21,2.77-1.21,4.38-.4,4.01,2.44,8.41,4.08,12.81,5.29,1.58.4,3.19,1.64,3.19,3.68l.79,8.54c0,2.07,1.61,3.68,4.01,3.68h12.79c2.03,0,3.61-1.61,4.01-3.68l.79-9.35c0-1.64,1.21-2.87,2.82-3.68,4.4-1.21,8.38-2.85,12.39-5.29,1.21-.81,3.19-.81,4.4.4l7.2,5.69c1.21,1.24,3.59,1.24,5.19,0l9.2-9.37c1.21-1.61,1.61-4.05,0-5.69l-6.01-7.33c-1.19-1.24-1.19-2.85-.4-4.48,2-4.05,3.61-8.14,4.8-12.62.4-1.64,2-2.85,3.61-2.85l9.2-.83c2-.4,3.59-2.04,3.59-4.05v-13.05c0-2.44-1.58-4.08-3.59-4.08"/>
</svg>