<?xml version="1.0" encoding="UTF-8"?>
<svg id="icons" xmlns="http://www.w3.org/2000/svg" viewBox="0 0 512 512">
  <defs>
    <style>
      .cls-1 {
        fill: none;
        stroke: #141414;
        stroke-linecap: round;
        stroke-linejoin: round;
        stroke-width: 2px;
      }

      .cls-2 {
        fill: #141414;
      }
    </style>
  </defs>
  <g>
    <path class="cls-1" d="M55.48,256.52h401.05c1.1,0,2,.9,2,2v92.23c0,2.76-2.24,5-5,5H58.48c-2.76,0-5-2.24-5-5v-92.23c0-1.1.9-2,2-2Z"/>
    <g>
      <path class="cls-1" d="M57.63,156.25h58.3c1.1,0,2,.9,2,2v76.2c0,1.1-.9,2-2,2h-61.3c-1.1,0-2-.9-2-2v-73.2c0-2.76,2.24-5,5-5Z"/>
      <rect class="cls-1" x="137.99" y="156.25" width="65.3" height="80.2" rx="2" ry="2"/>
      <rect class="cls-1" x="223.35" y="156.25" width="65.3" height="80.2" rx="2" ry="2"/>
      <rect class="cls-1" x="308.71" y="156.25" width="65.3" height="80.2" rx="2" ry="2"/>
      <path class="cls-1" d="M396.07,156.25h58.3c2.76,0,5,2.24,5,5v73.2c0,1.1-.9,2-2,2h-61.3c-1.1,0-2-.9-2-2v-76.2c0-1.1.9-2,2-2Z"/>
    </g>
  </g>
  <g>
    <path class="cls-2" d="M158.21,326.86v-41.47h4.23v41.47h-4.23Z"/>
    <path class="cls-2" d="M187.7,327.73c-2.92,0-5.55-.51-7.89-1.53-2.34-1.02-4.33-2.47-5.97-4.35-1.64-1.88-2.89-4.15-3.76-6.81-.86-2.66-1.3-5.63-1.3-8.91,0-4.34.76-8.13,2.26-11.36,1.51-3.24,3.67-5.75,6.49-7.53,2.82-1.79,6.21-2.68,10.17-2.68,4.42,0,8.01,1.04,10.79,3.1,2.77,2.06,4.71,4.83,5.8,8.3l-4.26,1.04c-.9-2.54-2.38-4.56-4.45-6.08-2.07-1.51-4.63-2.28-7.71-2.28-3.24-.02-5.94.71-8.09,2.18-2.15,1.47-3.77,3.52-4.85,6.16-1.08,2.64-1.64,5.69-1.66,9.14-.02,3.46.51,6.49,1.6,9.11,1.08,2.62,2.71,4.68,4.88,6.16,2.17,1.49,4.88,2.24,8.12,2.26,2.98,0,5.44-.57,7.37-1.73,1.94-1.15,3.42-2.8,4.42-4.95,1.01-2.15,1.58-4.69,1.71-7.63h-9.56v-3.63h14c.06.44.09.91.1,1.4.01.49.02.84.02,1.05,0,3.74-.67,7.09-2.02,10.04-1.35,2.95-3.36,5.27-6.06,6.97-2.7,1.7-6.08,2.55-10.15,2.55Z"/>
    <path class="cls-2" d="M211.69,326.86v-41.47h25.92v4.07h-21.69v14.34h18.23v4.06h-18.23v14.95h21.69v4.06h-25.92Z"/>
    <path class="cls-2" d="M245.1,326.86v-41.47h4.23v37.41h19.7v4.06h-23.93Z"/>
    <path class="cls-2" d="M299.35,327.73c-4.13,0-7.61-.92-10.45-2.75-2.84-1.84-4.99-4.38-6.45-7.62-1.46-3.24-2.19-6.99-2.19-11.23s.73-7.99,2.19-11.23,3.61-5.79,6.45-7.62c2.84-1.83,6.33-2.75,10.45-2.75s7.64.92,10.47,2.75c2.83,1.83,4.98,4.37,6.45,7.62,1.47,3.25,2.2,6.99,2.2,11.23s-.74,7.99-2.2,11.23c-1.47,3.24-3.62,5.78-6.45,7.62-2.83,1.84-6.32,2.75-10.47,2.75ZM299.35,323.67c3.25,0,5.95-.74,8.12-2.22,2.17-1.48,3.8-3.54,4.88-6.18,1.08-2.64,1.63-5.69,1.63-9.14s-.54-6.5-1.63-9.13c-1.08-2.64-2.71-4.68-4.88-6.16-2.17-1.48-4.88-2.23-8.12-2.25-3.24,0-5.94.74-8.09,2.22-2.15,1.48-3.77,3.54-4.85,6.18-1.08,2.64-1.64,5.69-1.66,9.14-.02,3.46.51,6.49,1.6,9.11,1.08,2.62,2.71,4.68,4.88,6.16,2.17,1.49,4.88,2.24,8.12,2.26Z"/>
    <path class="cls-2" d="M338.64,327.73c-2.9,0-5.51-.49-7.82-1.45-2.31-.97-4.22-2.35-5.73-4.13-1.51-1.79-2.49-3.91-2.95-6.36l4.32-.72c.69,2.68,2.15,4.79,4.38,6.32,2.23,1.53,4.89,2.29,7.98,2.29,2.03,0,3.86-.32,5.47-.97,1.62-.64,2.88-1.56,3.8-2.75.92-1.19,1.38-2.6,1.38-4.23,0-1.07-.19-1.99-.58-2.75-.38-.76-.89-1.39-1.53-1.89-.63-.5-1.32-.92-2.07-1.25-.75-.33-1.48-.61-2.19-.82l-10.51-3.14c-1.27-.37-2.44-.83-3.51-1.39-1.08-.57-2.01-1.25-2.81-2.05-.8-.8-1.42-1.73-1.86-2.8-.44-1.08-.66-2.31-.66-3.69,0-2.34.61-4.37,1.84-6.07,1.23-1.71,2.91-3.03,5.04-3.95,2.13-.92,4.56-1.37,7.28-1.36,2.76,0,5.24.49,7.42,1.47s3.98,2.38,5.4,4.19c1.42,1.82,2.36,3.96,2.82,6.44l-4.44.8c-.29-1.8-.95-3.37-1.99-4.69-1.04-1.33-2.36-2.35-3.96-3.07-1.6-.72-3.36-1.09-5.28-1.11-1.86,0-3.52.31-4.97.94-1.45.62-2.6,1.47-3.44,2.55-.84,1.07-1.27,2.3-1.27,3.68s.39,2.53,1.17,3.37c.78.84,1.74,1.51,2.88,1.98,1.14.48,2.25.88,3.33,1.18l8.12,2.39c.84.23,1.84.56,2.98.99,1.14.43,2.25,1.05,3.34,1.84,1.08.8,1.98,1.84,2.7,3.13.71,1.29,1.06,2.92,1.06,4.9s-.38,3.64-1.14,5.15c-.76,1.52-1.82,2.8-3.2,3.83-1.37,1.04-2.98,1.83-4.81,2.38-1.83.55-3.84.82-6,.82Z"/>
  </g>
</svg>