<?xml version="1.0" encoding="UTF-8"?>
<svg id="icons" xmlns="http://www.w3.org/2000/svg" viewBox="0 0 512 512">
  <defs>
    <style>
      .cls-1 {
        fill: #141414;
      }
    </style>
  </defs>
  <path class="cls-1" d="M115.55,146v217.33l165.33,34.67V114l-165.33,32ZM198.85,305.21c-52.56-3.39-47.15-98.13,1.23-98.88,51.82,3.42,46.74,98.12-1.23,98.88ZM199.61,224.88c-27.69,1.92-26.45,61.24-.43,61.72,27.57-1.78,25.95-61.26.43-61.72h0ZM309.06,262.66c2.5,1.83,5.5,0,5.5,0-3,1.83,81.89-54.55,81.89-54.55v102.1c0,11.11-7.11,15.78-15.11,15.78h-90.01v-75.5s17.73,12.17,17.73,12.17ZM291.34,174.21v55.55l19.41,12.22c.51.15,1.62.16,2.13,0l83.55-56.33c0-6.67-6.22-11.45-9.73-11.45h-95.37Z"/>
</svg>