<?xml version="1.0" encoding="UTF-8"?>
<svg id="icons" xmlns="http://www.w3.org/2000/svg" viewBox="0 0 512 512">
  <defs>
    <style>
      .cls-1 {
        fill: #141414;
      }
    </style>
  </defs>
  <path class="cls-1" d="M184.75,327.25c0,6.53,5.34,11.87,11.87,11.87h11.87v41.56c0,9.86,7.96,17.81,17.81,17.81s17.81-7.96,17.81-17.81v-41.56h23.75v41.56c0,9.86,7.96,17.81,17.81,17.81s17.81-7.96,17.81-17.81v-41.56h11.87c6.53,0,11.87-5.34,11.87-11.87v-118.75h-142.5v118.75ZM155.06,208.5c-9.86,0-17.81,7.96-17.81,17.81v83.12c0,9.86,7.96,17.81,17.81,17.81s17.81-7.96,17.81-17.81v-83.12c0-9.86-7.96-17.81-17.81-17.81ZM356.94,208.5c-9.86,0-17.81,7.96-17.81,17.81v83.12c0,9.86,7.96,17.81,17.81,17.81s17.81-7.96,17.81-17.81v-83.12c0-9.86-7.96-17.81-17.81-17.81ZM297.92,139.15l15.44-15.44c2.38-2.37,2.38-6.06,0-8.43-2.38-2.37-6.06-2.38-8.43,0l-17.57,17.57c-9.38-4.75-20.07-7.48-31.35-7.48s-22.09,2.73-31.59,7.48l-17.69-17.57c-2.37-2.38-6.06-2.38-8.43,0-2.37,2.38-2.37,6.06,0,8.43l15.56,15.56c-17.58,12.94-29.09,33.73-29.09,57.36h142.5c0-23.63-11.52-44.53-29.33-57.48ZM226.31,172.88h0c-3.28,0-5.94-2.66-5.94-5.94h0c0-3.28,2.66-5.94,5.94-5.94h0c3.28,0,5.94,2.66,5.94,5.94h0c0,3.28-2.66,5.94-5.94,5.94ZM285.69,172.88h0c-3.28,0-5.94-2.66-5.94-5.94h0c0-3.28,2.66-5.94,5.94-5.94h0c3.28,0,5.94,2.66,5.94,5.94h0c0,3.28-2.66,5.94-5.94,5.94Z"/>
</svg>