<?xml version="1.0" encoding="UTF-8"?>
<svg id="icons" xmlns="http://www.w3.org/2000/svg" viewBox="0 0 512 512">
  <defs>
    <style>
      .cls-1 {
        fill: #141414;
        fill-rule: evenodd;
      }
    </style>
  </defs>
  <path class="cls-1" d="M271.03,398l-163.08-30.21.51-223.57,162.57-30.21v284ZM170.42,264.37c9.12,6.56,25.66,15.71,17.05,30.21-10.13,8.8-23.8-1.04-32.92-7.42,0,7.42.51,16.23.51,24.34,14.18,5.87,31.91,10.53,44.91,0,17.05-13.29,15.36-44.2-2.87-55.76-9.62-8.63-28.87-14.5-22.62-30.73,9.12-10.53,22.12-3.45,32.92-.69,0-7.42-.51-15.54-.51-23.13-12.49-1.73-26.17-4.14-38.15,3.45-19.25,12.78-18.74,47.13,1.69,59.73Z"/>
  <path class="cls-1" d="M375.3,280.91c-1.74,0-4.01,0-5.75-.52-7.14,19.08-21.78,34.2-39.9,42.8v4.13c0,15.47-12.89,28.36-28.75,28.36-6.97,0-12.89-2.41-17.6-5.84v-45.21c4.7-3.95,10.63-6.36,17.6-6.36,9.41,0,18.12,5.33,23.35,12.72,15.86-7.39,27.7-20.8,32.93-36.44-6.45-5.16-11.15-13.23-11.15-22.52,0-8.08,4.7-16.16,11.15-21.31-5.92-15.64-17.6-28.36-32.93-35.41-4.53,7.56-13.94,12.2-23.35,12.2-6.97,0-12.89-2.23-17.6-6.36v-44.52c4.7-4.13,10.63-6.36,17.6-6.36,15.86,0,28.75,12.72,28.75,28.88v3.44c18.12,8.77,32.76,24.41,39.9,42.8,1.74-.52,4.01-.52,5.75-.52,15.86,0,28.75,12.72,28.75,27.16,0,15.64-12.89,28.88-28.75,28.88"/>
</svg>