<?xml version="1.0" encoding="UTF-8"?>
<svg id="icons" xmlns="http://www.w3.org/2000/svg" viewBox="0 0 512 512">
  <defs>
    <style>
      .cls-1 {
        fill: none;
        stroke: #141414;
        stroke-linecap: round;
        stroke-linejoin: round;
        stroke-width: 2px;
      }

      .cls-2 {
        fill: #141414;
      }
    </style>
  </defs>
  <polyline class="cls-1" points="276.05 410.37 107.24 410.37 107.16 71 379.37 71 379.37 114.65 379.37 235.57 379.37 313.1"/>
  <line class="cls-1" x1="274.79" y1="209.34" x2="343.96" y2="209.34"/>
  <line class="cls-1" x1="274.79" y1="178.23" x2="342.71" y2="178.23"/>
  <line class="cls-1" x1="181.75" y1="248.99" x2="340.14" y2="248.99"/>
  <line class="cls-1" x1="181.75" y1="282.42" x2="305.71" y2="282.42"/>
  <line class="cls-1" x1="181.75" y1="315.84" x2="257.02" y2="315.84"/>
  <line class="cls-1" x1="181.75" y1="349.27" x2="243.27" y2="349.27"/>
  <g>
    <circle class="cls-1" cx="181.75" cy="149.69" r="20.18"/>
    <path class="cls-1" d="M145.15,206.47c0-20.21,16.39-36.6,36.6-36.6s36.6,16.39,36.6,36.6"/>
  </g>
  <rect class="cls-1" x="142.26" y="106.38" width="78.98" height="102.96"/>
  <g id="Layer_1-2" data-name="Layer 1-2">
    <g>
      <rect class="cls-2" x="329.36" y="100.72" width="4.36" height="11.86" transform="translate(-.52 1.62) rotate(-.28)"/>
      <rect class="cls-2" x="334.82" y="109.04" width="9.29" height="4.36" transform="translate(21.58 274.16) rotate(-45.28)"/>
      <rect class="cls-2" x="321.46" y="106.58" width="4.36" height="9.29" transform="translate(15.42 259.92) rotate(-44.72)"/>
      <rect class="cls-2" x="338.09" y="116.95" width="5.82" height="4.36" transform="translate(-.58 1.67) rotate(-.28)"/>
      <rect class="cls-2" x="274.79" y="117.04" width="4.38" height="24.95"/>
      <path class="cls-2" d="M294.79,131.26h6.67v5.28c-1.53,1.14-3.67,1.89-6.02,1.89-5.1,0-8.48-3.78-8.48-8.91v-.07c0-4.78,3.49-8.8,8.09-8.8,3.17,0,5.06,1.03,6.99,2.67l2.78-3.32c-2.56-2.17-5.24-3.39-9.59-3.39-7.52,0-12.87,5.92-12.87,12.9v.07c0,7.27,5.13,12.83,12.94,12.83,4.42,0,7.95-1.78,10.41-3.89v-11.09h-10.33l-.58,3.81h0Z"/>
      <polygon class="cls-2" points="314.36 131.37 323.98 131.37 323.98 127.45 314.36 127.45 314.36 120.97 325 120.97 325 117.04 309.98 117.04 309.98 141.99 326.13 141.99 326.13 138.07 314.36 138.07 314.36 131.37"/>
      <polygon class="cls-2" points="333.7 117.04 329.32 117.04 329.32 141.99 343.91 141.99 343.91 138 333.7 138 333.7 117.04"/>
    </g>
  </g>
  <g>
    <path class="cls-1" d="M401.13,357.91h0l-10.29-1.04c-1.56,0-2.89-1.32-3.42-2.9-1.3-4.73-3.16-8.95-5.53-12.9-.8-1.58-.8-3.44.26-4.75l6.33-7.67c1.58-1.56,1.32-3.95,0-5.53l-9.75-9.75c-1.58-1.32-3.96-1.58-5.55-.26l-7.63,6.59c-1.32,1.06-3.16,1.06-4.75.26-4.21-2.36-8.43-4.22-13.19-5.55-1.83-.26-2.89-1.84-3.16-3.43l-.78-9.49c-.26-2.1-1.84-3.69-4.21-3.69h-13.72c-2.12,0-3.7,1.58-3.96,3.69l-.8,9.49c-.26,1.58-1.56,3.16-3.16,3.43-4.73,1.32-9.49,3.44-13.7,5.81-1.32.8-3.16.8-4.75-.52l-6.87-5.81c-1.58-1.32-3.96-1.06-5.53.26l-9.49,9.77c-1.6,1.56-1.86,3.95-.28,5.53l5.81,7.13c1.06,1.3,1.32,3.16.26,4.75-2.36,4.21-4.22,8.95-5.53,13.68-.54,1.86-1.86,3.16-3.7,3.16l-8.71.8c-2.1.26-3.69,1.84-3.69,3.96v13.98c0,2.1,1.58,3.69,3.69,3.95l8.97.8c1.86.26,3.18,1.32,3.7,3.16,1.32,4.75,3.42,9.49,5.81,13.72,1.04,1.58.78,3.43-.26,4.75l-5.55,6.85c-1.58,1.58-1.32,3.96.26,5.55l9.49,9.49c1.58,1.58,3.95,1.84,5.55.26l7.11-5.79c1.32-1.34,3.16-1.34,4.75-.54,4.22,2.36,8.97,4.22,13.72,5.53,1.84.28,3.16,1.86,3.16,3.44l.8,9.23c.26,2.1,2.1,3.69,4.21,3.69h13.72c2.12,0,3.96-1.58,3.96-3.69l.78-9.77c.28-1.84,1.58-3.16,3.16-3.69,4.49-1.32,8.97-3.16,13.19-5.55,1.32-1.04,3.42-1.04,4.75.28l7.35,6.05c1.6,1.6,3.96,1.34,5.55-.26l9.77-9.49c1.3-1.58,1.56-3.95.26-5.79l-6.59-7.67c-1.06-1.3-1.32-3.16-.54-4.73,2.38-3.96,3.96-8.45,5.27-12.94.54-1.84,1.86-2.9,3.7-3.16l9.75-.78c2.1-.26,3.7-2.12,3.7-4.22v-13.72c0-2.1-1.6-3.96-3.7-3.96"/>
    <path class="cls-1" d="M332.26,404.23h0c-18.65,0-33.85-15.21-33.85-33.88s15.2-33.84,33.85-33.84,33.87,15.17,33.87,33.84-15.2,33.88-33.87,33.88"/>
  </g>
  <polyline class="cls-1" points="145.15 248.56 152.17 254.47 164.57 239.34"/>
  <polyline class="cls-1" points="145.15 279.67 152.17 285.58 164.57 270.45"/>
  <polyline class="cls-1" points="145.15 310.78 152.17 316.69 164.57 301.56"/>
  <polyline class="cls-1" points="145.15 341.89 152.17 347.79 164.57 332.67"/>
</svg>