<?xml version="1.0" encoding="UTF-8"?>
<svg id="icons" xmlns="http://www.w3.org/2000/svg" viewBox="0 0 512 512">
  <defs>
    <style>
      .cls-1 {
        fill: none;
        stroke: #141414;
        stroke-linecap: round;
        stroke-linejoin: round;
        stroke-width: 2px;
      }
    </style>
  </defs>
  <g>
    <g>
      <circle class="cls-1" cx="124.98" cy="247.71" r="36.97"/>
      <path class="cls-1" d="M57.93,351.73c0-37.03,30.02-67.05,67.05-67.05s67.05,30.02,67.05,67.05"/>
    </g>
    <g>
      <circle class="cls-1" cx="387.02" cy="247.71" r="36.97"/>
      <path class="cls-1" d="M319.96,351.73c0-37.03,30.02-67.05,67.05-67.05s67.05,30.02,67.05,67.05"/>
    </g>
  </g>
  <g>
    <line class="cls-1" x1="201.64" y1="188.23" x2="310.36" y2="188.23"/>
    <line class="cls-1" x1="201.64" y1="204.18" x2="310.36" y2="204.18"/>
    <line class="cls-1" x1="201.64" y1="217.43" x2="256" y2="217.43"/>
  </g>
  <path class="cls-1" d="M322.01,160.27h-132.02c-4.17,0-7.55,3.38-7.55,7.55v66.62c0,4.17,3.38,7.55,7.55,7.55h11.65v19l13.05-19h82.62l13.05,19v-19h11.65c4.17,0,7.55-3.38,7.55-7.55v-66.62c0-4.17-3.38-7.55-7.55-7.55Z"/>
</svg>