<?xml version="1.0" encoding="UTF-8"?>
<svg id="icons" xmlns="http://www.w3.org/2000/svg" viewBox="0 0 512 512">
  <defs>
    <style>
      .cls-1 {
        fill: #141414;
      }
    </style>
  </defs>
  <path class="cls-1" d="M395.25,137.97h-118.35v-23.97l-170.89,30.12v223.76l170.89,30.12v-25.2h118.35c5.93,0,10.74-4.81,10.74-10.74v-213.34c0-5.93-4.81-10.74-10.74-10.74h0ZM309.39,265.79h-32.49s0-54.84,0-54.84h28.67l31,30.99v52.16h-21.03v-22.17c-.04-3.59-2.89-6.11-6.15-6.15ZM316.81,204.81l25.9-25.9,25.9,25.9-25.9,25.9-25.9-25.9ZM276.9,278.09h26.34s0,45.49,0,45.49h-26.34v-45.49ZM192.07,304.26l-20.9-.61-24.59-94.67,18.44-1.23,16.9,71.92,17.52-74.38,20.59-.92-27.97,99.89ZM315.54,329.73v-23.32s27.18,0,27.18,0c3.39,0,6.15-2.75,6.15-6.15v-58.31l32.8-32.8c2.68-2.88,2.14-6.5,0-8.69l-34.6-34.6c-2.4-2.4-6.29-2.4-8.69,0l-32.8,32.8h-28.67v-45.32h113.11v202.86h-113.11v-20.33h32.49c3.48-.07,6.09-2.64,6.15-6.15Z"/>
</svg>