<?xml version="1.0" encoding="UTF-8"?>
<svg id="icons" xmlns="http://www.w3.org/2000/svg" viewBox="0 0 512 512">
  <defs>
    <style>
      .cls-1 {
        fill: none;
        stroke: #141414;
        stroke-linecap: round;
        stroke-linejoin: round;
        stroke-width: 2px;
      }

      .cls-2 {
        fill: #141414;
      }
    </style>
  </defs>
  <path class="cls-1" d="M65.19,112.5h381.62c2.76,0,5,2.24,5,5v242.77H60.19V117.5c0-2.76,2.24-5,5-5Z"/>
  <path class="cls-1" d="M41.71,360.27h428.58v33.64c0,3.09-2.51,5.59-5.59,5.59H47.3c-3.09,0-5.59-2.51-5.59-5.59v-33.64h0Z"/>
  <line class="cls-1" x1="224.69" y1="134.77" x2="287.31" y2="134.77"/>
  <g>
    <path class="cls-2" d="M164.64,272.14v-39.28h4.01v39.28h-4.01Z"/>
    <path class="cls-2" d="M192.57,272.96c-2.76,0-5.25-.48-7.48-1.45-2.22-.96-4.11-2.34-5.66-4.12-1.55-1.78-2.74-3.93-3.56-6.45-.82-2.52-1.23-5.33-1.23-8.45,0-4.11.71-7.7,2.14-10.76,1.43-3.06,3.48-5.44,6.15-7.13s5.88-2.54,9.63-2.54c4.18,0,7.59.98,10.22,2.93,2.63,1.96,4.46,4.58,5.5,7.87l-4.04.98c-.86-2.4-2.26-4.32-4.22-5.76-1.96-1.43-4.39-2.15-7.3-2.15-3.07-.02-5.63.67-7.67,2.06-2.04,1.39-3.57,3.34-4.6,5.84-1.03,2.5-1.55,5.39-1.57,8.66-.02,3.28.49,6.15,1.51,8.64,1.03,2.48,2.57,4.43,4.63,5.84,2.05,1.41,4.62,2.12,7.69,2.14,2.82,0,5.15-.55,6.98-1.64,1.84-1.09,3.23-2.65,4.19-4.69s1.5-4.45,1.62-7.23h-9.06v-3.44h13.26c.06.42.09.86.1,1.32,0,.46.01.8.01,1,0,3.55-.63,6.72-1.91,9.51-1.27,2.79-3.19,4.99-5.74,6.6-2.56,1.61-5.76,2.41-9.62,2.41Z"/>
    <path class="cls-2" d="M215.29,272.14v-39.28h24.55v3.85h-20.54v13.59h17.27v3.85h-17.27v14.16h20.54v3.85h-24.55Z"/>
    <path class="cls-2" d="M246.94,272.14v-39.28h4.01v35.44h18.66v3.85h-22.67Z"/>
    <path class="cls-2" d="M298.34,272.96c-3.91,0-7.21-.87-9.9-2.61-2.69-1.74-4.73-4.14-6.11-7.22s-2.07-6.62-2.07-10.64.69-7.57,2.07-10.64c1.38-3.07,3.42-5.48,6.11-7.22,2.69-1.74,5.99-2.6,9.9-2.6s7.24.87,9.92,2.6c2.68,1.74,4.72,4.14,6.11,7.22,1.39,3.07,2.09,6.62,2.09,10.64s-.7,7.57-2.09,10.64-3.43,5.48-6.11,7.22c-2.68,1.74-5.99,2.61-9.92,2.61ZM298.34,269.11c3.07,0,5.64-.7,7.69-2.1,2.05-1.4,3.59-3.35,4.62-5.85,1.03-2.5,1.54-5.39,1.54-8.66s-.51-6.15-1.54-8.65-2.57-4.44-4.62-5.84c-2.06-1.4-4.62-2.11-7.69-2.13-3.07,0-5.63.7-7.67,2.1-2.04,1.4-3.57,3.35-4.6,5.85-1.03,2.5-1.55,5.39-1.57,8.66-.02,3.28.49,6.15,1.51,8.64,1.03,2.48,2.57,4.43,4.63,5.84,2.05,1.41,4.62,2.12,7.69,2.14Z"/>
    <path class="cls-2" d="M335.55,272.96c-2.74,0-5.21-.46-7.41-1.38-2.19-.92-4-2.22-5.43-3.91-1.43-1.69-2.36-3.7-2.8-6.03l4.09-.68c.65,2.55,2.03,4.54,4.15,5.99,2.11,1.45,4.63,2.17,7.55,2.17,1.93,0,3.66-.31,5.18-.91,1.53-.61,2.73-1.48,3.6-2.61.87-1.13,1.31-2.46,1.31-4.01,0-1.02-.18-1.89-.54-2.61-.37-.72-.85-1.31-1.45-1.79s-1.25-.87-1.96-1.19-1.4-.58-2.07-.78l-9.96-2.97c-1.2-.34-2.31-.79-3.33-1.32-1.02-.54-1.91-1.18-2.66-1.94s-1.34-1.64-1.76-2.66c-.42-1.02-.63-2.18-.63-3.49,0-2.22.58-4.14,1.74-5.76,1.17-1.62,2.76-2.86,4.78-3.74s4.32-1.3,6.9-1.28c2.62,0,4.96.46,7.03,1.39,2.06.93,3.77,2.25,5.11,3.97,1.35,1.72,2.24,3.75,2.67,6.1l-4.2.76c-.27-1.71-.9-3.19-1.88-4.44-.98-1.26-2.23-2.22-3.75-2.91-1.52-.68-3.19-1.03-5.01-1.05-1.77,0-3.33.3-4.71.89-1.37.59-2.46,1.4-3.26,2.42-.8,1.02-1.2,2.18-1.2,3.49s.37,2.39,1.1,3.19c.74.8,1.65,1.43,2.73,1.88,1.08.46,2.13.83,3.15,1.12l7.69,2.26c.8.22,1.74.53,2.83.94,1.08.41,2.14.99,3.16,1.74,1.03.75,1.88,1.74,2.55,2.96.67,1.22,1.01,2.76,1.01,4.64s-.36,3.45-1.08,4.88c-.72,1.44-1.73,2.65-3.03,3.63-1.3.98-2.82,1.73-4.56,2.25-1.74.52-3.63.78-5.69.78Z"/>
  </g>
</svg>