<?xml version="1.0" encoding="UTF-8"?>
<svg id="icons" xmlns="http://www.w3.org/2000/svg" viewBox="0 0 512 512">
  <defs>
    <style>
      .cls-1 {
        fill: none;
        stroke: #141414;
        stroke-linecap: round;
        stroke-linejoin: round;
        stroke-width: 2px;
      }
    </style>
  </defs>
  <path class="cls-1" d="M60.46,353.04c0-108,87.55-195.54,195.54-195.54s195.54,87.55,195.54,195.54"/>
  <g>
    <g id="_Radial_Repeat_" data-name="&amp;lt;Radial Repeat&amp;gt;">
      <line class="cls-1" x1="84.09" y1="354.5" x2="121.77" y2="354.18"/>
    </g>
    <g id="_Radial_Repeat_-2" data-name="&amp;lt;Radial Repeat&amp;gt;">
      <line class="cls-1" x1="106.39" y1="268.35" x2="139.18" y2="286.92"/>
    </g>
    <g id="_Radial_Repeat_-3" data-name="&amp;lt;Radial Repeat&amp;gt;">
      <line class="cls-1" x1="168.78" y1="204.9" x2="187.9" y2="237.37"/>
    </g>
    <g id="_Radial_Repeat_-4" data-name="&amp;lt;Radial Repeat&amp;gt;">
      <line class="cls-1" x1="254.54" y1="181.13" x2="254.86" y2="218.81"/>
    </g>
    <g id="_Radial_Repeat_-5" data-name="&amp;lt;Radial Repeat&amp;gt;">
      <line class="cls-1" x1="340.69" y1="203.44" x2="322.13" y2="236.23"/>
    </g>
    <g id="_Radial_Repeat_-6" data-name="&amp;lt;Radial Repeat&amp;gt;">
      <line class="cls-1" x1="404.15" y1="265.82" x2="371.68" y2="284.94"/>
    </g>
    <g id="_Radial_Repeat_-7" data-name="&amp;lt;Radial Repeat&amp;gt;">
      <line class="cls-1" x1="427.91" y1="351.58" x2="390.23" y2="351.9"/>
    </g>
  </g>
  <path class="cls-1" d="M188,261.61h0l44.72,76.76c5.35,9.18,16.1,14.32,26.38,11.63,4.02-1.05,7.83-3.15,10.99-6.31h0c3.15-3.15,5.26-6.96,6.31-10.99,2.68-10.28-2.45-21.03-11.63-26.38l-76.76-44.72Z"/>
</svg>