<?xml version="1.0" encoding="UTF-8"?>
<svg id="icons" xmlns="http://www.w3.org/2000/svg" viewBox="0 0 512 512">
  <defs>
    <style>
      .cls-1 {
        fill: none;
        stroke: #141414;
        stroke-linecap: round;
        stroke-linejoin: round;
        stroke-width: 2px;
      }
    </style>
  </defs>
  <g>
    <path class="cls-1" d="M114.88,147.98h-12.8c-7.44,0-13.47,6.03-13.47,13.47v220.57c0,7.44,6.03,13.47,13.47,13.47h267.36"/>
    <path class="cls-1" d="M382.91,227.65v-12.42c0-7.44-6.03-13.47-13.47-13.47h-127.37v-40.31c0-7.44-6.03-13.47-13.47-13.47h-12.17"/>
    <path class="cls-1" d="M369.44,395.5H102.08c-7.44,0-12.13-5.23-10.47-11.67l37.15-144.5c1.66-6.45,9.03-11.67,16.47-11.67h267.36c7.44,0,12.13,5.23,10.47,11.67l-37.15,144.5c-1.66,6.45-9.03,11.67-16.47,11.67Z"/>
  </g>
  <g>
    <path class="cls-1" d="M316.43,311.93c-3.71,30.98-31.65,56.09-62.4,56.09s-52.66-25.11-48.95-56.09c3.71-30.98,31.65-56.09,62.4-56.09s52.66,25.11,48.95,56.09Z"/>
    <path class="cls-1" d="M256.52,368.02c-20.16-5.5-33.01-28.51-29.71-56.05,3.32-27.69,21.88-50.79,43.5-56.13"/>
    <path class="cls-1" d="M250.21,368.02c21.48-5.5,39.85-28.51,43.15-56.05,3.32-27.69-9.7-50.79-30.04-56.13"/>
    <line class="cls-1" x1="258.97" y1="326.89" x2="254.04" y2="368.02"/>
    <path class="cls-1" d="M209.86,340.52l12.68,2.04c22.49,3.62,45.83,3.62,69.19,0l13.17-2.04"/>
    <line class="cls-1" x1="219.58" y1="311.94" x2="316.43" y2="311.94"/>
    <line class="cls-1" x1="205.09" y1="311.94" x2="226.81" y2="311.94"/>
    <path class="cls-1" d="M216.78,282.75l13.17-2.04c23.36-3.62,46.7-3.62,69.19,0l12.68,2.04"/>
    <line class="cls-1" x1="267.49" y1="255.85" x2="258.79" y2="328.36"/>
  </g>
  <g>
    <path class="cls-1" d="M159.34,128.09c2.49-6.76,8.99-11.59,16.62-11.59,9.78,0,17.7,7.93,17.7,17.7s-7.93,17.7-17.7,17.7"/>
    <path class="cls-1" d="M175.96,151.91c17.74,0,32.11,14.38,32.11,32.11"/>
    <circle class="cls-1" cx="149.53" cy="153.6" r="17.7"/>
    <path class="cls-1" d="M117.41,203.42c0-17.74,14.38-32.11,32.11-32.11s32.11,14.38,32.11,32.11"/>
  </g>
</svg>