<?xml version="1.0" encoding="UTF-8"?>
<svg id="icons" xmlns="http://www.w3.org/2000/svg" viewBox="0 0 512 512">
  <defs>
    <style>
      .cls-1 {
        fill: #141414;
      }
    </style>
  </defs>
  <path class="cls-1" d="M360.25,209.16c-4.45,0-8.6-.82-12.47-2.47-3.77-1.64-7.1-3.91-10.01-6.82-2.9-2.9-5.17-6.23-6.81-10.01-1.64-3.87-2.47-8.02-2.47-12.47s.82-8.46,2.47-12.32c1.64-3.87,3.92-7.2,6.81-10.01,2.9-2.9,6.24-5.17,10.01-6.81,3.87-1.74,8.02-2.56,12.47-2.47,4.35-.1,8.46.73,12.33,2.47,3.87,1.64,7.25,3.91,10.15,6.81,2.8,2.8,5.08,6.14,6.81,10.01,1.64,3.87,2.46,7.98,2.47,12.32,0,4.45-.82,8.6-2.47,12.47-1.64,3.77-3.92,7.11-6.81,10.01-2.9,2.9-6.28,5.17-10.15,6.82-3.87,1.64-7.98,2.47-12.33,2.47M360.25,163.92c-3.77,0-7.1,1.3-10.01,3.91-2.42,2.61-3.62,5.8-3.62,9.57s1.21,7.01,3.62,9.72c2.9,2.42,6.24,3.62,10.01,3.62s6.96-1.21,9.57-3.62c2.71-2.42,4.06-5.65,4.06-9.72,0-3.77-1.35-6.96-4.06-9.57-2.61-2.61-5.8-3.92-9.57-3.91M401,231.78v67.71c0,6.09-1.16,11.89-3.48,17.4-2.51,5.51-5.75,10.3-9.72,14.35-4.16,4.16-8.99,7.4-14.5,9.72-5.7,2.42-11.55,3.62-17.54,3.62-3.67,0-7.35-.53-11.02-1.6-3.77-.68-7.2-1.88-10.29-3.62-2.32,7.64-5.75,14.6-10.29,20.88-4.54,6.28-9.86,11.65-15.95,16.1-6.09,4.45-12.81,7.83-20.16,10.15-7.35,2.61-14.98,3.92-22.91,3.92-9.28,0-18.03-1.6-26.25-4.78-7.93-3.19-15.18-7.73-21.75-13.63-6.38-5.51-11.65-12.08-15.81-19.72-4.25-7.73-7.01-16.14-8.27-25.23h-70.03c-3.19,0-6.04-1.21-8.55-3.62-2.32-2.32-3.48-5.12-3.48-8.41v-120.93c0-3.29,1.16-6.14,3.48-8.56,2.51-2.32,5.36-3.48,8.55-3.48h103.97c-2.8-5.8-4.2-11.84-4.2-18.12,0-5.9,1.11-11.46,3.33-16.68,2.13-4.83,5.12-9.28,8.99-13.34,3.87-3.77,8.41-6.77,13.63-8.99,4.83-2.22,10.25-3.34,16.24-3.34s11.41,1.11,16.53,3.34c5.12,2.22,9.62,5.22,13.49,8.99,3.87,4.06,6.86,8.51,8.99,13.34,2.22,5.22,3.33,10.78,3.33,16.68s-1.11,11.31-3.33,16.53c-2.13,5.12-5.12,9.57-8.99,13.34-3.87,3.87-8.36,6.91-13.49,9.13-5.12,2.22-10.63,3.33-16.53,3.33-1.45,0-2.95-.1-4.5-.29-1.45-.19-2.95-.44-4.5-.73v13.05h131.37c3.77,0,7.01,1.31,9.72,3.92,2.61,2.61,3.92,5.8,3.92,9.57M265.14,140c-3.38,0-6.43.53-9.14,1.6-3.19,1.26-5.9,3-8.12,5.22-2.13,2.22-3.82,4.78-5.08,7.68-1.26,3-1.88,6.14-1.89,9.43,0,3.38.63,6.52,1.89,9.43,1.26,2.9,2.95,5.46,5.08,7.68,2.22,2.13,4.93,3.87,8.12,5.22,2.71,1.26,5.75,1.89,9.14,1.89s6.38-.63,9.28-1.89c2.9-1.35,5.46-3.09,7.68-5.22,2.22-2.22,3.96-4.78,5.22-7.68,1.35-2.9,2.03-6.04,2.03-9.43s-.68-6.43-2.03-9.43c-1.26-2.9-3-5.46-5.22-7.68-2.22-2.22-4.78-3.96-7.68-5.22-2.9-1.06-5.99-1.6-9.28-1.6M194.81,229.61h27.26v-22.62h-77.14v22.62h27.26v72.5h22.62M319.51,317.91v-81.49h-63.51v78.59c0,3.29-1.16,6.09-3.48,8.41-2.51,2.42-5.37,3.62-8.56,3.62h-32.62c1.26,6.48,3.53,12.52,6.82,18.12,3.29,5.51,7.25,10.29,11.89,14.35,4.64,3.96,9.96,7.1,15.95,9.42,5.9,2.03,12.28,3.04,19.14,3.04,7.44,0,14.45-1.31,21.02-3.92,6.57-2.9,12.37-6.81,17.4-11.74,4.93-4.93,8.8-10.68,11.6-17.26,2.9-6.57,4.35-13.63,4.35-21.17M382.87,299.5v-63.08h-45.24v82.8c2.42,2.42,5.17,4.25,8.26,5.51,2.9,1.16,6.19,1.74,9.86,1.74s7.3-.72,10.58-2.17c3.29-1.45,6.14-3.38,8.56-5.8,2.51-2.42,4.45-5.32,5.8-8.7,1.45-3.29,2.17-6.72,2.17-10.3Z"/>
</svg>