<?xml version="1.0" encoding="UTF-8"?>
<svg id="icons" xmlns="http://www.w3.org/2000/svg" viewBox="0 0 512 512">
  <defs>
    <style>
      .cls-1 {
        fill: #141414;
      }
    </style>
  </defs>
  <path class="cls-1" d="M368.16,265.91h-46.23v-23.12h46.23v23.12ZM368.16,279.12h-46.23v23.12s46.23,0,46.23,0v-23.12ZM368.16,170.14h-46.23v23.12s46.23,0,46.23,0v-23.12ZM368.16,206.47h-46.23v23.12s46.23,0,46.23,0v-23.12ZM368.16,315.44h-46.23v23.12s46.23,0,46.23,0v-23.12ZM400.1,361.01c-1.32,6.87-9.58,7.03-15.09,7.27h-102.7v29.72h-20.51l-151.15-26.42v-231.13l152.04-26.45h19.62v26.32h99.17c5.58.23,11.72-.17,16.58,3.17,3.4,4.89,3.07,11.1,3.3,16.71l-.13,171.92c-.17,9.61.89,19.42-1.12,28.9ZM231.74,309.2c-9.11-18.49-18.39-36.85-27.48-55.35,8.98-18,17.83-36.06,26.65-54.13-7.5.36-14.99.83-22.46,1.35-5.58,13.57-12.09,26.78-16.45,40.82-4.06-13.24-9.44-25.99-14.37-38.9-7.27.4-14.53.83-21.8,1.25,7.66,16.91,15.82,33.58,23.25,50.59-8.75,16.51-16.94,33.25-25.43,49.87,7.23.3,14.46.59,21.7.69,5.15-13.14,11.56-25.79,16.05-39.2,4.03,14.4,10.86,27.71,16.48,41.48,7.96.56,15.88,1.06,23.84,1.52ZM385.6,156h-103.3v14.14s26.42,0,26.42,0v23.12h-26.42v13.21h26.42v23.12h-26.42v13.21h26.42v23.12h-26.42v13.21h26.42v23.12h-26.42v13.21h26.42v23.12h-26.42v15.27h103.3v-197.83Z"/>
</svg>