<?xml version="1.0" encoding="UTF-8"?>
<svg id="icons" xmlns="http://www.w3.org/2000/svg" viewBox="0 0 512 512">
  <defs>
    <style>
      .cls-1 {
        fill: #141414;
        fill-rule: evenodd;
      }
    </style>
  </defs>
  <path class="cls-1" d="M156.07,304.1h0c-15.06,30.22-18.65,54.95-7.17,66.67,10.94,10.99,31.92,9.16,57.92-3.11-23.49-14.29-41.6-37-50.75-63.55ZM387.21,276.99h-168.92c0,9.16,2.51,17.95,6.1,25.82,8.97,16.67,26.54,27.84,46.26,27.84s37.48-11.17,46.44-27.84h64.55c-16.32,48.17-60.97,82.6-113.33,82.6-19.19,0-37.3-4.95-53.62-13.55-34.97,17.4-65.81,20.33-82.66,3.11-21.7-22.16-1.26-109.16,64.02-175.46,1.79-2.56,15.06-15.38,17.39-17.95-24.75,12.27-43.39,28.94-60.97,51.83,13.27-53.11,60.43-92.49,115.84-92.49,3.59,0,6.63,0,9.5.55,40.53-18.5,76.75-20.88,90.02-7.33,14.52,14.84,14.52,38.83,4.12,67.77,10.4,17.95,16.32,38.83,16.32,60.99,0,4.76-.54,9.71-1.08,14.1ZM268.33,196.4h0c-26.54,0-48.24,21.61-50.03,48.72h100.6c-1.79-27.11-23.49-48.72-50.57-48.72ZM367.31,147.69h0c-9.68-10.44-29.59-8.61-54.33,1.83,22.95,9.34,42.14,25.82,55.41,46.89,7.89-21.61,8.43-38.83-1.08-48.72Z"/>
</svg>