<?xml version="1.0" encoding="UTF-8"?>
<svg id="icons" xmlns="http://www.w3.org/2000/svg" viewBox="0 0 512 512">
  <defs>
    <style>
      .cls-1 {
        fill: none;
        stroke: #141414;
        stroke-linecap: round;
        stroke-linejoin: round;
        stroke-width: 2px;
      }

      .cls-2 {
        fill: #141414;
      }
    </style>
  </defs>
  <line class="cls-1" x1="111.49" y1="256" x2="178.18" y2="256"/>
  <circle class="cls-1" cx="91" cy="256" r="20.5"/>
  <polyline class="cls-1" points="178.18 214.74 137.85 214.74 137.85 185.73"/>
  <circle class="cls-1" cx="138.45" cy="165.23" r="20.5"/>
  <polyline class="cls-1" points="178.18 297.26 122.85 297.26 122.85 326.27"/>
  <circle class="cls-1" cx="122.85" cy="346.77" r="20.5"/>
  <line class="cls-1" x1="400.51" y1="256" x2="331.38" y2="256"/>
  <circle class="cls-1" cx="421" cy="256" r="20.5"/>
  <polyline class="cls-1" points="331.95 297.26 374.15 297.26 374.15 326.27"/>
  <circle class="cls-1" cx="373.55" cy="346.77" r="20.5"/>
  <polyline class="cls-1" points="331.44 214.74 389.15 214.74 389.15 185.73"/>
  <circle class="cls-1" cx="389.15" cy="165.23" r="20.5"/>
  <rect class="cls-1" x="179.9" y="181.32" width="150.18" height="150.18" rx="5" ry="5"/>
  <g>
    <path class="cls-2" d="M223.1,277.88v-41.09h4.19v41.09h-4.19Z"/>
    <path class="cls-2" d="M248.72,278.74c-3.06,0-5.68-.69-7.85-2.08-2.17-1.39-3.83-3.31-4.99-5.76-1.16-2.45-1.74-5.27-1.74-8.45s.59-6.07,1.77-8.5c1.18-2.44,2.86-4.33,5.04-5.69,2.18-1.36,4.77-2.04,7.78-2.04s5.71.69,7.89,2.07,3.84,3.29,4.99,5.74c1.15,2.45,1.73,5.26,1.73,8.43s-.58,6.07-1.74,8.52c-1.16,2.44-2.83,4.35-5.02,5.72-2.19,1.37-4.8,2.05-7.85,2.05ZM248.72,274.72c3.42,0,5.97-1.14,7.65-3.41,1.67-2.27,2.51-5.23,2.51-8.86s-.84-6.7-2.53-8.9c-1.68-2.21-4.23-3.31-7.63-3.31-2.3,0-4.2.52-5.69,1.56-1.49,1.04-2.61,2.47-3.34,4.31s-1.1,3.95-1.1,6.35c0,3.71.86,6.68,2.57,8.92,1.71,2.24,4.23,3.35,7.56,3.35Z"/>
    <path class="cls-2" d="M277.11,277.88v-37.07h-14.35v-4.02h32.9v4.02h-14.35v37.07h-4.19Z"/>
  </g>
</svg>