<?xml version="1.0" encoding="UTF-8"?>
<svg id="icons" xmlns="http://www.w3.org/2000/svg" viewBox="0 0 512 512">
  <defs>
    <style>
      .cls-1 {
        fill: none;
        stroke: #141414;
        stroke-linecap: round;
        stroke-linejoin: round;
        stroke-width: 2px;
      }
    </style>
  </defs>
  <path class="cls-1" d="M392.47,194.1v-13.35c0-8-6.49-14.49-14.49-14.49h-165.94v-14.37c0-8-6.49-14.49-14.49-14.49h-107.06c-8,0-14.49,6.49-14.49,14.49v208.21c0,8,6.49,14.49,14.49,14.49h287.49"/>
  <path class="cls-1" d="M377.98,374.59H90.49c-8,0-13.04-5.62-11.26-12.55l39.95-155.38c1.78-6.93,9.71-12.55,17.72-12.55h287.49c8,0,13.04,5.62,11.26,12.55l-39.95,155.38c-1.78,6.93-9.71,12.55-17.72,12.55Z"/>
</svg>