<?xml version="1.0" encoding="UTF-8"?>
<svg id="icons" xmlns="http://www.w3.org/2000/svg" viewBox="0 0 512 512">
  <defs>
    <style>
      .cls-1 {
        fill: #141414;
      }
    </style>
  </defs>
  <path class="cls-1" d="M388.16,143.72h-105.91v-29.72h-18.72l-152.93,26.48v231.1l151.11,26.42h20.54v-33.02h99.1c5.65-.26,11.92.3,16.74-3.2,3.83-5.91,2.9-13.31,3.23-19.98v-185.13c.76-7.6-5.58-13.67-13.17-12.95ZM207.46,266.96c-7.5,3.83-16.08,3.3-24.24,3.04l-.03,38.74-19.65-1.65.03-105.84c17.93.86,39.66-7.1,54.52,6.34,14.23,17.27,10.47,49.04-10.63,59.38ZM385.56,349.39h-103.3v-20.74h79.26v-13.21h-79.26v-16.51h79.26v-13.21h-79.22s-.03-12.95-.07-19.42c13.08,4.06,27.97,3.96,39.66-3.9,12.65-7.5,19.25-21.8,20.34-36.06h-43.46s0-43.13,0-43.13l-16.51,3.34v-27.25h103.3v190.09ZM305.37,176.31c22.95,1.06,42.27,20.46,43.49,43.34h-43.49v-43.34ZM183.19,219.11c6.51-.3,14.56-1.49,18.96,4.62,3.76,6.47,3.57,14.99.43,21.66-3.76,6.8-12.28,6.14-18.86,6.93-.69-11.06-.63-22.13-.53-33.22Z"/>
</svg>