<?xml version="1.0" encoding="UTF-8"?>
<svg id="icons" xmlns="http://www.w3.org/2000/svg" viewBox="0 0 512 512">
  <defs>
    <style>
      .cls-1 {
        fill: none;
        stroke: #141414;
        stroke-linecap: round;
        stroke-linejoin: round;
        stroke-width: 2px;
      }
    </style>
  </defs>
  <line class="cls-1" x1="386.98" y1="122.74" x2="393.33" y2="91"/>
  <line class="cls-1" x1="374.06" y1="122.74" x2="377.99" y2="103.07"/>
  <line class="cls-1" x1="93.3" y1="240.97" x2="116.72" y2="243.8"/>
  <path class="cls-1" d="M421.33,421H116.72v-102.02c0-6.09,4.56-12.18,10.62-12.18h281.87c6.06,0,12.12,6.09,12.12,12.18v102.02h0Z"/>
  <polygon class="cls-1" points="314.28 186.16 369.76 186.16 395.94 148.12 288.09 148.12 314.28 186.16 314.28 186.16"/>
  <path class="cls-1" d="M387.09,306.8v-95.2l39.12-57.09-6.11-28.77c0-1.49-1.52-3-3.09-3h-143.6c-1.52,0-3.09,1.51-3.09,3l-7.62,28.77,41.27,57.09v95.2"/>
  <path class="cls-1" d="M247.47,256.48l18.4-53.04h-22.05l-23.87,27.4h-31.28l22.05-18.27h-23.87l-33.04,18.27h-34.92c-16.52,0-33.1,12.82-33.1,18.33s12.88,7.32,22.05,7.32h40.45l38.57,21.96h27.57l-27.57-21.96h60.62Z"/>
  <rect class="cls-1" x="352.72" y="326.2" width="51.15" height="21.67"/>
  <rect class="cls-1" x="280.51" y="326.2" width="51.15" height="21.67"/>
  <rect class="cls-1" x="208.3" y="326.2" width="51.15" height="21.67"/>
  <rect class="cls-1" x="136.09" y="326.2" width="51.15" height="21.67"/>
  <rect class="cls-1" x="280.51" y="369.79" width="123.36" height="51.21"/>
  <line class="cls-1" x1="342.19" y1="369.79" x2="342.19" y2="420.13"/>
</svg>