<?xml version="1.0" encoding="UTF-8"?>
<svg id="icons" xmlns="http://www.w3.org/2000/svg" viewBox="0 0 512 512">
  <defs>
    <style>
      .cls-1 {
        fill: none;
        stroke: #141414;
        stroke-linecap: round;
        stroke-linejoin: round;
        stroke-width: 2px;
      }

      .cls-2 {
        fill: #141414;
      }
    </style>
  </defs>
  <circle class="cls-1" cx="256" cy="256" r="147"/>
  <path class="cls-1" d="M262.55,403c-54.96-14.43-96.2-74.71-96.2-146.88s41.68-133.11,97.09-147.12"/>
  <path class="cls-1" d="M245.9,403c54.96-14.43,96.2-74.71,96.2-146.88s-41.68-133.11-97.09-147.12"/>
  <line class="cls-1" x1="256" y1="295.18" x2="256" y2="403"/>
  <path class="cls-1" d="M130.63,330.91l34.12,5.35c60.53,9.48,122.17,9.48,182.69,0l34.12-5.35"/>
  <line class="cls-1" x1="342.09" y1="256" x2="403" y2="256"/>
  <line class="cls-1" x1="109" y1="256" x2="166.36" y2="256"/>
  <path class="cls-1" d="M130.63,179.52l34.12-5.35c60.53-9.48,122.17-9.48,182.69,0l34.12,5.35"/>
  <line class="cls-1" x1="256" y1="109" x2="256" y2="215.55"/>
  <g>
    <path class="cls-2" d="M200.26,273.9l-9.23-30.23,4.11.03,7.16,23.47,7.19-23.47h3.75l7.19,23.47,7.21-23.47h4.09l-9.23,30.21h-3.58l-7.55-24.05-7.52,24.05h-3.58Z"/>
    <path class="cls-2" d="M244.87,273.9l-9.23-30.23,4.11.03,7.16,23.47,7.19-23.47h3.75l7.19,23.47,7.21-23.47h4.09l-9.23,30.21h-3.58l-7.55-24.05-7.52,24.05h-3.58Z"/>
    <path class="cls-2" d="M289.48,273.9l-9.23-30.23,4.11.03,7.16,23.47,7.19-23.47h3.75l7.19,23.47,7.21-23.47h4.09l-9.23,30.21h-3.58l-7.55-24.05-7.52,24.05h-3.58Z"/>
  </g>
</svg>