<?xml version="1.0" encoding="UTF-8"?>
<svg id="icons" xmlns="http://www.w3.org/2000/svg" viewBox="0 0 512 512">
  <defs>
    <style>
      .cls-1 {
        fill: none;
        stroke: #141414;
        stroke-linecap: round;
        stroke-linejoin: round;
        stroke-width: 2px;
      }
    </style>
  </defs>
  <rect class="cls-1" x="144.77" y="204.98" width="43.27" height="132.47"/>
  <rect class="cls-1" x="234.36" y="204.98" width="43.27" height="132.47"/>
  <rect class="cls-1" x="323.96" y="204.98" width="43.27" height="132.47"/>
  <path class="cls-1" d="M132.1,352.91h0v-11.63c0-1.92,1.48-3.84,3-3.84h59.51c2.95,0,4.43,1.92,4.43,3.84v11.63"/>
  <path class="cls-1" d="M219.18,352.91h0v-11.63c0-1.92,1.66-3.84,3.32-3.84h66.94c1.71,0,3.37,1.92,3.37,3.84v11.63"/>
  <path class="cls-1" d="M306.27,352.91h0v-11.63c0-1.92,1.62-3.84,4.87-3.84h65.46c1.68,0,3.3,1.92,3.3,3.84v11.63"/>
  <path class="cls-1" d="M132.1,189.52h0v11.63c0,1.92,1.48,3.84,3,3.84h59.51c2.95,0,4.43-1.92,4.43-3.84v-11.63"/>
  <path class="cls-1" d="M219.18,189.52h0v11.63c0,1.92,1.66,3.84,3.32,3.84h66.94c1.71,0,3.37-1.92,3.37-3.84v-11.63"/>
  <path class="cls-1" d="M306.27,189.52h0v11.63c0,1.92,1.62,3.84,4.87,3.84h65.46c1.68,0,3.3-1.92,3.3-3.84v-11.63"/>
  <rect class="cls-1" x="114.19" y="352.88" width="283.62" height="22.61"/>
  <rect class="cls-1" x="90.47" y="375.5" width="331.06" height="45.5"/>
  <polygon class="cls-1" points="421.53 150.73 255.43 91 90.47 150.73 90.47 189.52 421.53 189.52 421.53 150.73"/>
  <circle class="cls-1" cx="256" cy="142.3" r="20.77"/>
</svg>