<?xml version="1.0" encoding="UTF-8"?>
<svg id="icons" xmlns="http://www.w3.org/2000/svg" viewBox="0 0 512 512">
  <defs>
    <style>
      .cls-1 {
        fill: none;
        stroke: #141414;
        stroke-linecap: round;
        stroke-linejoin: round;
        stroke-width: 2px;
      }
    </style>
  </defs>
  <rect class="cls-1" x="70.11" y="119.5" width="371.79" height="273"/>
  <rect class="cls-1" x="94.05" y="185.46" width="323.89" height="181.77"/>
  <circle class="cls-1" cx="105.19" cy="153.1" r="11.14"/>
  <circle class="cls-1" cx="147.14" cy="153.1" r="11.14"/>
  <circle class="cls-1" cx="189.1" cy="153.1" r="11.14"/>
  <line class="cls-1" x1="417.95" y1="153.1" x2="382.28" y2="153.1"/>
  <circle class="cls-1" cx="255.14" cy="276.35" r="66.76"/>
  <path class="cls-1" d="M258.12,343.1c-24.96-6.55-43.68-33.93-43.68-66.7s18.93-60.45,44.09-66.81"/>
  <path class="cls-1" d="M250.55,343.1c24.96-6.55,43.68-33.93,43.68-66.7s-18.93-60.45-44.09-66.81"/>
  <line class="cls-1" x1="255.14" y1="209.59" x2="255.14" y2="343.1"/>
  <line class="cls-1" x1="255.14" y1="209.59" x2="255.14" y2="343.1"/>
  <path class="cls-1" d="M198.21,310.36l15.5,2.43c27.49,4.31,55.48,4.31,82.96,0l15.5-2.43"/>
  <line class="cls-1" x1="188.39" y1="276.35" x2="321.9" y2="276.35"/>
  <path class="cls-1" d="M198.21,241.62l15.5-2.43c27.49-4.31,55.48-4.31,82.96,0l15.5,2.43"/>
</svg>