<?xml version="1.0" encoding="UTF-8"?>
<svg id="icons" xmlns="http://www.w3.org/2000/svg" viewBox="0 0 512 512">
  <defs>
    <style>
      .cls-1 {
        fill: none;
        stroke: #141414;
        stroke-linecap: round;
        stroke-linejoin: round;
        stroke-width: 2px;
      }
    </style>
  </defs>
  <path class="cls-1" d="M68.5,301.39h177.66v25.48c0,1.1-.9,2-2,2H70.5c-1.1,0-2-.9-2-2v-25.48h0Z"/>
  <path class="cls-1" d="M265.84,301.39h177.66v25.48c0,1.1-.9,2-2,2h-173.66c-1.1,0-2-.9-2-2v-25.48h0Z"/>
  <path class="cls-1" d="M477.25,207.26h.34v-7.09c0-9.41-7.63-17.04-17.04-17.04H51.46c-9.41,0-17.04,7.63-17.04,17.04v7.09h.34c5.46,0,9.89,4.43,9.89,9.89s-4.43,9.89-9.89,9.89h-.34v57.31c0,9.41,7.63,17.04,17.04,17.04h409.09c9.41,0,17.04-7.63,17.04-17.04v-57.31h-.34c-5.46,0-9.89-4.43-9.89-9.89s4.43-9.89,9.89-9.89Z"/>
  <rect class="cls-1" x="78.73" y="207.26" width="42.77" height="69.99" rx="2" ry="2"/>
  <rect class="cls-1" x="182.65" y="207.26" width="42.77" height="69.99" rx="2" ry="2"/>
  <rect class="cls-1" x="286.58" y="207.26" width="42.77" height="69.99" rx="2" ry="2"/>
  <rect class="cls-1" x="390.5" y="207.26" width="42.77" height="69.99" rx="2" ry="2"/>
</svg>