<?xml version="1.0" encoding="UTF-8"?>
<svg id="icons" xmlns="http://www.w3.org/2000/svg" viewBox="0 0 512 512">
  <defs>
    <style>
      .cls-1 {
        fill: none;
        stroke: #141414;
        stroke-linecap: round;
        stroke-linejoin: round;
        stroke-width: 2px;
      }
    </style>
  </defs>
  <rect class="cls-1" x="67.79" y="142" width="376.42" height="228" rx="5" ry="5"/>
  <g>
    <line class="cls-1" x1="99.38" y1="207.69" x2="260.27" y2="207.69"/>
    <line class="cls-1" x1="99.38" y1="239.9" x2="260.27" y2="239.9"/>
    <line class="cls-1" x1="99.38" y1="272.1" x2="260.27" y2="272.1"/>
    <line class="cls-1" x1="99.38" y1="304.31" x2="179.83" y2="304.31"/>
  </g>
  <g>
    <circle class="cls-1" cx="353.07" cy="228.19" r="37.5"/>
    <polyline class="cls-1" points="391.33 277.33 391.33 345.21 354.96 324.72 318.59 345.21 318.59 279.65"/>
    <path class="cls-1" d="M411.47,209.22c-2.14-6.59-6.93-11.55-12.8-14.15-.66-6.38-3.9-12.48-9.51-16.55-5.6-4.07-12.4-5.27-18.67-3.93-4.29-4.78-10.49-7.8-17.42-7.8s-13.13,3.02-17.42,7.8c-6.28-1.34-13.07-.14-18.67,3.93-5.6,4.07-8.84,10.16-9.51,16.54-5.87,2.6-10.66,7.57-12.8,14.15-2.14,6.59-1.18,13.42,2.03,18.97-3.22,5.56-4.17,12.39-2.03,18.97,2.14,6.59,6.93,11.55,12.8,14.15.66,6.38,3.91,12.47,9.51,16.54,5.6,4.07,12.4,5.27,18.67,3.93,4.29,4.78,10.49,7.8,17.42,7.8s13.13-3.02,17.42-7.8c6.28,1.34,13.07.14,18.67-3.93,5.6-4.07,8.84-10.16,9.51-16.55,5.87-2.6,10.66-7.57,12.8-14.15,2.14-6.59,1.18-13.42-2.03-18.97,3.22-5.55,4.17-12.39,2.03-18.97Z"/>
  </g>
</svg>