<?xml version="1.0" encoding="UTF-8"?>
<svg id="icons" xmlns="http://www.w3.org/2000/svg" viewBox="0 0 512 512">
  <defs>
    <style>
      .cls-1 {
        fill: none;
        stroke: #141414;
        stroke-linecap: round;
        stroke-linejoin: round;
        stroke-width: 2px;
      }
    </style>
  </defs>
  <line class="cls-1" x1="112.28" y1="374.82" x2="257.08" y2="230.02"/>
  <path class="cls-1" d="M355.91,161.63h0c0,8.18-6.74,15.03-15.12,15.03s-15.12-6.86-15.12-15.03,6.74-15.2,15.12-15.2,15.12,6.86,15.12,15.2"/>
  <path class="cls-1" d="M244.18,216.04h0c-13.36-31.81-3.38-72.02,26.72-93.77,28.33-21.8,70.08-20.08,98.52,1.67,38.31,30.2,40.03,87.1,6.65,120.58-23.4,23.47-56.77,28.48-86.82,18.41l-15.02,15.07c-1.66,1.67-3.33,1.67-4.99,1.67h-15.08c-4.94,0-8.32,5.06-8.32,10.07v13.4c0,3.34-1.66,5.06-3.33,6.67l-15.08,15.07c-1.61,1.67-3.27,3.39-6.65,3.39h-13.36c-4.94,0-9.98,3.34-9.98,8.34v15.07c0,1.67,0,3.34-1.66,5.06l-15.08,15.02c-1.66,1.67-4.94,3.39-6.65,3.39h-15.02c-4.99,0-8.32,5.01-8.32,8.34v10.01c0,5.06-3.38,8.45-8.32,10.12l-20.07,1.61c-4.99,0-10.03-5.01-10.03-10.01v-40.21c0-3.34,1.66-8.4,3.38-11.68l128.51-127.31"/>
</svg>