<?xml version="1.0" encoding="UTF-8"?>
<svg id="icons" xmlns="http://www.w3.org/2000/svg" viewBox="0 0 512 512">
  <defs>
    <style>
      .cls-1 {
        fill: #141414;
      }
    </style>
  </defs>
  <path class="cls-1" d="M163.05,151.97c24.67-22.06,57.24-35.47,92.95-35.47,53.54,0,100.03,30.15,123.41,74.4h-123.41c-27.05,0-50.24,16.49-60.07,39.97l-32.88-78.9Z"/>
  <path class="cls-1" d="M148.97,166.52c-20.27,24.22-32.47,55.42-32.47,89.48,0,61.83,40.21,114.25,95.91,132.56l52.28-68.03c-2.84.38-5.74.57-8.69.57-30.94,0-56.84-21.59-63.46-50.52-.36-.52-.67-1.09-.93-1.7l-42.65-102.35Z"/>
  <path class="cls-1" d="M232.1,393.46c7.77,1.34,15.75,2.04,23.9,2.04,77.05,0,139.5-62.45,139.5-139.5,0-16.34-2.81-32.02-7.97-46.59-.43.06-.88.09-1.33.09h-84.64c12.06,11.82,19.54,28.28,19.54,46.5,0,17.17-6.65,32.79-17.51,44.42-.07.1-.15.2-.22.3l-71.27,92.73Z"/>
  <path class="cls-1" d="M209.5,256c0-25.68,20.82-46.5,46.5-46.5s46.5,20.82,46.5,46.5-20.82,46.5-46.5,46.5-46.5-20.82-46.5-46.5Z"/>
</svg>