<?xml version="1.0" encoding="UTF-8"?>
<svg id="icons" xmlns="http://www.w3.org/2000/svg" viewBox="0 0 512 512">
  <defs>
    <style>
      .cls-1 {
        fill: #141414;
      }
    </style>
  </defs>
  <path class="cls-1" d="M387.82,140.78h-105.61s0-26.34,0-26.34h-19.69l-151.43,26.4v230.38l150.54,26.34h20.58v-26.24h98.83c5.6-.26,11.82.16,16.62-3.26,3.85-5.89,2.86-13.27,3.19-19.92v-194.59c.69-7.51-5.53-13.53-13.04-12.77ZM220.91,300.74c-5.5,2.86-13.73-.13-20.25.33-4.38-21.79-9.48-43.45-13.4-65.35-3.85,21.27-8.86,42.34-13.27,63.47-6.32-.33-12.67-.72-19.03-1.15-5.46-28.97-11.88-57.74-16.99-86.78,5.63-.26,11.29-.49,16.92-.69,3.39,20.97,7.24,41.84,10.21,62.84,4.64-21.53,9.38-43.06,13.99-64.59,6.25-.36,12.51-.63,18.76-.95,4.38,22.22,8.86,44.41,13.6,66.53,3.72-22.85,7.83-45.63,11.82-68.44,6.58-.23,13.17-.59,19.72-.99-7.44,31.9-13.96,64.06-22.09,95.76ZM385.19,355.68h-102.98v-20.68h85.59v-13.17h-85.59v-16.46h85.59v-13.17h-85.59v-16.46h85.59v-13.17h-85.59v-16.46h85.59v-13.17h-85.59v-16.46h85.59v-13.17h-85.59v-16.46h85.59v-13.17h-85.59v-17.38h102.98v199.37Z"/>
</svg>