<?xml version="1.0" encoding="UTF-8"?>
<svg id="icons" xmlns="http://www.w3.org/2000/svg" viewBox="0 0 512 512">
  <defs>
    <style>
      .cls-1 {
        fill: none;
        stroke: #141414;
        stroke-linecap: round;
        stroke-linejoin: round;
        stroke-width: 2px;
      }

      .cls-2 {
        fill: #141414;
      }
    </style>
  </defs>
  <path class="cls-1" d="M428.94,121.78h.53v-11.1c0-14.73-11.94-26.68-26.68-26.68H109.21c-14.73,0-26.68,11.94-26.68,26.68v11.1h.53c8.55,0,15.47,6.93,15.47,15.47s-6.93,15.47-15.47,15.47h-.53v248.6c0,14.73,11.94,26.68,26.68,26.68h293.59c14.73,0,26.68-11.94,26.68-26.68v-248.6h-.53c-8.55,0-15.47-6.93-15.47-15.47s6.93-15.47,15.47-15.47Z"/>
  <rect class="cls-1" x="124.68" y="124.68" width="262.63" height="262.63" rx="2" ry="2"/>
  <rect class="cls-1" x="163.66" y="163.66" width="184.69" height="184.69" rx="2" ry="2"/>
  <g>
    <path class="cls-2" d="M213.77,281.62c-4.66,0-8.6-1.04-11.81-3.11s-5.64-4.94-7.28-8.6c-1.65-3.66-2.47-7.89-2.47-12.68s.82-9.02,2.47-12.68c1.65-3.66,4.08-6.53,7.28-8.6s7.14-3.11,11.81-3.11c5.44,0,9.89,1.4,13.34,4.18,3.45,2.79,5.81,6.52,7.09,11.21l-4.88,1.27c-1-3.71-2.79-6.65-5.37-8.81-2.58-2.17-5.97-3.25-10.18-3.25-3.66,0-6.71.84-9.14,2.5-2.43,1.67-4.26,4-5.48,6.98-1.23,2.98-1.86,6.42-1.9,10.33-.02,3.9.58,7.34,1.81,10.31,1.22,2.97,3.07,5.3,5.53,6.98,2.46,1.68,5.52,2.52,9.19,2.52,4.21,0,7.6-1.09,10.18-3.27,2.58-2.18,4.37-5.11,5.37-8.8l4.88,1.27c-1.28,4.68-3.64,8.42-7.09,11.21-3.45,2.78-7.89,4.18-13.34,4.18Z"/>
    <path class="cls-2" d="M241.35,280.64v-46.84h18.08c.45,0,.97.01,1.54.05.57.03,1.15.1,1.74.21,2.45.37,4.53,1.22,6.23,2.55,1.7,1.33,2.99,3.01,3.87,5.02.88,2.02,1.32,4.25,1.32,6.7s-.44,4.65-1.33,6.67-2.19,3.69-3.89,5.03c-1.7,1.33-3.77,2.18-6.2,2.55-.59.09-1.17.15-1.74.19-.58.04-1.09.07-1.54.07h-13.3v17.79h-4.78ZM246.13,258.3h13.17c.39,0,.85-.02,1.37-.07.52-.04,1.03-.12,1.53-.23,1.6-.35,2.92-1.01,3.95-1.98,1.03-.97,1.8-2.13,2.31-3.48.51-1.34.76-2.74.76-4.2s-.26-2.86-.76-4.21c-.51-1.36-1.28-2.52-2.31-3.5-1.03-.98-2.35-1.64-3.95-1.98-.5-.11-1.01-.18-1.53-.21-.52-.03-.98-.05-1.37-.05h-13.17v19.9Z"/>
    <path class="cls-2" d="M298.92,281.62c-3.58,0-6.74-.74-9.48-2.21-2.74-1.47-4.89-3.56-6.46-6.24-1.56-2.69-2.34-5.83-2.34-9.43v-29.89l4.81-.03v29.3c0,2.43.41,4.53,1.24,6.29.82,1.77,1.9,3.22,3.24,4.36,1.33,1.14,2.79,1.98,4.37,2.52,1.58.54,3.12.82,4.62.82s3.07-.27,4.65-.82c1.58-.54,3.04-1.38,4.36-2.52,1.32-1.14,2.4-2.59,3.22-4.36.82-1.77,1.24-3.86,1.24-6.29v-29.3h4.81v29.92c0,3.6-.78,6.74-2.34,9.42s-3.71,4.76-6.46,6.25-5.9,2.23-9.48,2.23Z"/>
  </g>
</svg>