<?xml version="1.0" encoding="UTF-8"?>
<svg id="icons" xmlns="http://www.w3.org/2000/svg" viewBox="0 0 512 512">
  <defs>
    <style>
      .cls-1 {
        fill: none;
        stroke: #141414;
        stroke-linecap: round;
        stroke-linejoin: round;
        stroke-width: 2px;
      }
    </style>
  </defs>
  <path class="cls-1" d="M346.9,371.51h50.87c30.32,0,55.13-24.81,55.13-55.13h0c0-25.32-17.3-46.78-40.67-53.18.02-.65.05-1.3.05-1.95,0-32.49-26.34-58.82-58.82-58.82-6.57,0-12.89,1.09-18.79,3.08-9.6-37.39-43.53-65.03-83.92-65.03-45.94,0-83.53,35.76-86.45,80.97-4.39-1.35-9.04-2.08-13.87-2.08-24.61,0-44.81,18.87-46.93,42.94-25.23,5.03-44.4,27.42-44.4,54.07h0c0,30.32,24.81,55.13,55.13,55.13h232.66Z"/>
</svg>