<?xml version="1.0" encoding="UTF-8"?>
<svg id="icons" xmlns="http://www.w3.org/2000/svg" viewBox="0 0 512 512">
  <defs>
    <style>
      .cls-1 {
        fill: none;
        stroke: #141414;
        stroke-linecap: round;
        stroke-linejoin: round;
        stroke-width: 2px;
      }
    </style>
  </defs>
  <path class="cls-1" d="M274.71,183.14c6.81-18.51,24.61-31.71,45.48-31.71,26.76,0,48.45,21.69,48.45,48.45s-21.69,48.45-48.45,48.45"/>
  <path class="cls-1" d="M320.19,248.33c48.54,0,87.89,39.35,87.89,87.89"/>
  <path class="cls-1" d="M229.94,183.14c-6.81-18.51-24.61-31.71-45.48-31.71-26.76,0-48.45,21.69-48.45,48.45s21.69,48.45,48.45,48.45"/>
  <path class="cls-1" d="M184.45,248.33c-48.54,0-87.89,39.35-87.89,87.89"/>
  <circle class="cls-1" cx="252.32" cy="246.16" r="48.45"/>
  <path class="cls-1" d="M164.43,382.5c0-48.54,39.35-87.89,87.89-87.89s87.89,39.35,87.89,87.89"/>
  <path class="cls-1" d="M139.74,157.95c-6.13-4.12-13.51-6.53-21.46-6.53-21.27,0-38.52,17.24-38.52,38.52s17.24,38.52,38.52,38.52"/>
  <path class="cls-1" d="M118.28,228.46c-38.59,0-69.87,31.28-69.87,69.87"/>
  <path class="cls-1" d="M372.26,157.95c6.13-4.12,13.51-6.53,21.46-6.53,21.27,0,38.52,17.24,38.52,38.52s-17.24,38.52-38.52,38.52"/>
  <path class="cls-1" d="M393.72,228.46c38.59,0,69.87,31.28,69.87,69.87"/>
  <path class="cls-1" d="M221.12,144.82c7.21-9.32,18.5-15.32,31.2-15.32s24.3,6.17,31.49,15.7"/>
</svg>