<?xml version="1.0" encoding="UTF-8"?>
<svg id="icons" xmlns="http://www.w3.org/2000/svg" viewBox="0 0 512 512">
  <defs>
    <style>
      .cls-1 {
        fill: none;
        stroke: #141414;
        stroke-linecap: round;
        stroke-linejoin: round;
        stroke-width: 2px;
      }
    </style>
  </defs>
  <path class="cls-1" d="M375.39,352.67H64.52c-8.2,0-14.85-6.65-14.85-14.85V111.3c0-8.2,6.65-14.85,14.85-14.85h350.78c8.2,0,14.85,6.65,14.85,14.85v71.43"/>
  <path class="cls-1" d="M375.39,352.67H66.28c-9.17,0-16.61-7.44-16.61-16.61v-29.46h325.72"/>
  <polygon class="cls-1" points="287.29 415.54 192.53 415.54 203.8 352.67 276.02 352.67 287.29 415.54"/>
  <line class="cls-1" x1="147.26" y1="415.54" x2="332.55" y2="415.54"/>
  <circle class="cls-1" cx="239.91" cy="329.63" r="9.94"/>
  <g id="Rectangle_58" data-name="Rectangle 58">
    <polyline class="cls-1" points="449.22 368.09 449.22 415.54 375.39 415.54 375.39 182.74 449.22 182.74 449.22 391.92"/>
  </g>
  <line class="cls-1" x1="398.28" y1="220.62" x2="426.33" y2="220.62"/>
  <line class="cls-1" x1="398.28" y1="246.69" x2="426.33" y2="246.69"/>
  <line class="cls-1" x1="398.28" y1="388.16" x2="426.33" y2="388.16"/>
  <line class="cls-1" x1="362.28" y1="415.54" x2="462.33" y2="415.54"/>
</svg>