<?xml version="1.0" encoding="UTF-8"?>
<svg id="icons" xmlns="http://www.w3.org/2000/svg" viewBox="0 0 512 512">
  <defs>
    <style>
      .cls-1 {
        fill: #141414;
        fill-rule: evenodd;
      }
    </style>
  </defs>
  <path class="cls-1" d="M379.18,364.39h0c-.49-.66-1.15-.66-1.65-1.16-.66,0-.66-.5-1.15-.5-2.14-1.66-3.95-3.32-6.09-5.14-1.65-1-3.79-3.32-5.6-5.47-2.14-2.32-3.79-5.14-3.79-7.79-.66-1.16-.66-2.32-.66-3.48v-1.66c-.49-1.66-.49-2.82-.99-3.81-1.15-2.32-1.15-2.82-2.8-3.32-.49,2.16-2.8,4.31-3.95,6.14-3.79,5.47-9.39,9.45-15.48,11.61-3.79,1.16-8.23,1.66-12.18,0-2.14-.5-5.6-1.66-6.59-3.32-2.31-2.16-3.46-3.81-4.45-7.3-.66-2.82,0-7.79.49-11.11h-2.14c-1.15,0-1.65.5-2.31.5-.49.66-.49,1.16-.99,2.32v3.81c.99,9.62.49,18.41,0,26.87-.66,4.98-1.81,9.95-2.31,14.43v1.16c-1.15,4.98-2.14,10.61-2.14,16.25,0,3.32.49,6.14,1.65,7.79.99,1.66,3.29,3.32,6.59,4.98,3.95,1.66,8.4,2.32,11.69,1.66,3.29-.5,6.59-1.66,9.39-3.81,2.14-1.66,4.45-3.48,6.09-5.64.49-.5,1.65-1.16,2.14-1.66,3.46-3.98,7.24-6.8,10.54-8.96,4.45-2.82,8.89-4.98,13.34-7.3,1.65-.5,3.29-1.66,4.45-2.16,3.29-1.66,6.59-3.32,8.89-6.14,1.15-1.16,1.65-2.32,2.14-3.32,0-1.16,0-1.66-.49-2.82-.49-.66-.49-1.16-1.65-1.66ZM302.12,317.96h0c1.65-1.66,3.29-2.16,6.09-2.16,1.65-.5,7.24.5,7.74.5,3.95-17.74,3.29-40.63-4.94-58.54-2.8-6.14-6.59-11.61-11.03-16.09-1.65-8.46-3.95-16.75-7.24-24.54-2.8-5.64-6.09-11.28-8.4-16.75-.99-2.32-1.65-4.48-2.63-6.8-.66.66-1.65,1.16-2.31,1.66-1.15,0-1.65.66-2.8.66,0,.5-.49.5-.99.5-3.29,1.16-5.6,3.32-8.89,5.64-1.65,1-3.29,2.65-4.94,3.81-2.8,1.66-12.84,6.14-17.78,6.14-4.45.66-8.4-1-11.03-3.32-2.8-1.66-5.1-4.48-6.75-7.3-.49-.5-.99-1-1.65-1.66-1.15-1.66-1.65-2.82-2.8-3.81v2.16c-.49,3.32,0,6.14-.99,9.45-1.15,3.98-3.46,7.3-5.6,10.12-3.95,5.64-7.74,11.11-9.39,17.91-1.65,3.81-1.65,7.79-1.65,12.27-3.95,6.14-7.74,12.77-11.2,20.07-4.45,10.61-7.74,22.22-8.89,34-.49,5.64-.49,11.11,0,16.75.66,1.16,1.15,2.16,1.81,2.82,6.09,8.29,10.54,14.93,14.32,21.72,1.15,1.66,2.31,3.32,2.8,4.98,2.8,4.48,5.43,8.96,8.23,12.94,1.15,1.66,2.8,3.32,3.95,4.98,1.65,2.16,3.29,3.81,4.45,5.47,2.14,2.82,3.79,5.64,4.94,8.46,15.48,6.14,34.41,5.64,49.4-2.16,8.23-4.48,15.48-11.28,22.06-17.91,1.15-.5,1.65-1.16,2.31-2.32.99-8.29.99-17.74.49-27.86-.49-1.66-.49-3.32,0-5.64,0-2.65,1.65-4.98,3.29-6.14ZM257.83,157.92h0v-3.32c.49-6.14,4.94-11.28,10.04-10.61,4.94.5,8.23,6.14,7.74,12.27-.66,3.32-1.65,6.14-3.95,8.29,1.65.66,3.29,1.16,4.94,1.16l.66.5c.99,0,2.14,0,2.8.66,2.14-3.32,3.29-6.8,3.79-11.28,1.15-11.61-4.94-21.72-13.83-22.89-8.23-.5-15.97,7.96-17.78,20.23v2.65c.66,0,1.15.66,1.81.66,1.65.5,2.63,1.16,3.79,1.66ZM248.45,170.2h0c1.65-.5,3.79-.5,5.6.5.99.66,3.29,1.16,3.29,2.82,0,1.16-2.31,1.16-3.29,1.16-1.15,0-1.81-1.16-2.8-1.66-1.15-.66-3.46,0-3.46-1.66-.49,0,0-.66.66-1.16ZM227.87,173.01h0v.5c-2.14,1.16-3.29,2.82-4.94,4.48-.49,1.16-1.15,1.66-1.65,2.82,0,.5-.49,1.16-.49,1.16h.99c1.15,0,2.31.99,3.46,1.66,4.28,2.65,11.03,4.98,13.17,4.98,2.8,0,11.69-1.66,13.83-2.32,3.46-1.66,4.45-2.16,7.24-4.31,1.15-1.16,2.8-1.82,3.95-2.32,2.14-1.16,5.43,1.66,4.45,3.98,0,.5-3.95,2.16-4.45,2.65-3.46,2.82-6.75,4.48-10.04,5.64-2.14,1.16-4.45,1.66-6.59,2.32-3.29.5-7.24,1.66-9.55,1-1.65,0-5.93-1.66-8.73-3.32h.49c.49.66.49,1.16,1.15,2.32,1.65,2.16,3.29,4.48,5.43,5.47,1.65,1.66,3.95,2.32,6.09,2.32,2.8.5,5.6,0,8.4-.66,2.8-1,4.94-2.16,7.24-3.32,1.65-1.16,3.29-2.16,4.94-3.32,2.8-2.16,5.6-4.48,8.89-5.64.49-.5,1.15-.5,1.15-.5.99-.5,1.65-.5,2.14-.5.49-.66,1.15-1.16,1.65-1.82,1.15-1.66,1.65-8.29.49-10.45-.49,0-.99-.66-1.65-.66-.49-.5-2.63-1.16-2.63-1.16-3.95-1-7.9-2.16-11.69-3.81-1.15-.5-2.31-1.66-3.29-2.32-.66,0-1.15-.5-1.65-.5-1.15-1.16-3.46-1.66-5.1-2.16-3.29-1.16-7.74-1.16-11.53.5-4.45,1.16-7.74,3.98-11.2,7.3ZM222.93,168.54h0c1.15-1.16,1.65-1.16,2.31-1.66.49-1.16,1.65-1.66,2.14-2.32-2.14-1.66-3.95-4.48-4.45-7.79-1.15-4.98,1.15-9.95,4.94-10.61,3.95-.99,7.74,2.82,8.89,8.46v3.32c.49,0,1.65-.5,2.31-.5.49-.66,1.65-.66,2.14-.66,0-1.66,0-2.82-.49-3.81-1.65-10.61-8.4-18.41-14.49-17.41-6.09,1.16-9.39,10.61-7.74,21.23,1.15,4.48,2.8,8.46,4.45,11.77ZM211.23,375.5h0c-.99-1.66-2.14-3.32-3.29-4.98-1.65-1.66-2.8-3.32-4.45-5.14-2.8-3.81-4.94-8.29-7.74-12.27-.49-1.66-1.65-2.65-2.14-4.31-3.95-6.14-7.74-12.44-13.34-19.57-1.65-2.82-3.95-5.64-6.09-7.3-1.15-.5-2.31-1.16-3.95-1.16-.99-.5-2.14-.5-3.29,0-.49.66-1.65,1.16-2.8,2.32-.49,1-1.65,2.16-2.14,3.81l-.66.66c-.49,1-.99,2.82-2.14,3.81-1.65,2.32-2.8,3.32-4.45,4.48-2.14,1.16-3.79,1.66-6.59,1.66h-6.75c-.99,0-2.14,0-3.29.66-1.15,0-2.14.5-3.29,1-1.15,1.16-1.65,2.82-1.65,3.98-.49,1.66,0,3.32,0,4.98s0,3.98.49,5.64c0,2.16.66,4.48.66,7.3,0,5.47-.66,9.95-1.65,13.93-.66,1-1.15,2.16-1.81,3.32-.99,1.16-1.65,2.82-1.65,3.81-.49,1.16-.49,1.82-.49,2.82v2.32c1.15,1,2.14,1.66,2.8,1.66,1.15.5,2.14,1,3.79,1.66h.66c2.14.5,4.45,1.16,6.59,2.16,1.15,0,2.8.66,4.45,1.16,4.45,1.66,9.39,2.82,14.32,3.98,7.24,1,14.49,3.32,21.73,6.14.99.5,2.8.5,3.79,1,4.45,2.32,8.4,3.98,12.84,3.98,2.8,0,6.09-.5,9.39-2.32,2.8-1.66,4.94-4.31,6.59-7.13,1.65-4.48,2.31-9.62,1.15-13.93-1.15-2.82-2.8-6.14-5.6-10.12ZM393.01,369.37h0c-2.8,9.45-12.68,13.93-21.08,17.91-9.88,4.98-18.77,10.61-26.51,18.41-7.74,7.3-16.14,13.93-27.17,13.27-10.04-.5-21.08-5.47-23.87-16.09-22.06-5.64-44.79-8.46-67.51-4.48-3.95,15.59-20.09,23.38-34.41,18.41-7.74-2.82-14.32-6.14-22.23-8.29-7.74-2.32-15.97-3.48-24.37-5.64-3.79-1.16-7.08-2.82-11.03-3.98-3.29-1-7.24-1.66-10.54-3.32-7.24-3.81-6.59-11.61-3.29-18.41,2.8-6.63,3.79-12.27,3.29-20.07-.49-6.63-2.8-15.09.49-21.72,3.95-7.79,12.18-6.8,19.43-7.3,8.89,0,10.04-7.79,14.98-13.43-2.8-7.79-.49-14.43,3.29-21.06,3.95-7.3,7.24-14.1,10.54-21.23,2.8-7.3,4.45-15.09,6.75-22.39,2.63-7.79,8.23-13.93,13.83-20.56,3.79-5.14,7.74-10.12,12.18-15.09,3.29-4.48,6.59-9.62,7.08-15.09,0-8.46-.99-17.25-.99-25.71-.66-8.29-1.15-17.25-1.15-25.71-.49-15.59,1.65-31.68,13.83-43.45,10.54-9.45,25.52-12.27,39.35-11.11,18.28,1.66,31.61,13.93,37.71,30.68,3.29,8.29,4.94,17.74,5.43,26.7,0,9.45.66,19.07,1.15,28.52.66,2.82.66,4.48,1.65,6.63.66,2.32,2.31,3.98,2.8,6.14,2.8,4.48,4.45,9.45,6.59,13.93,4.45,9.45,10.54,17.91,17.78,25.71,7.24,7.79,12.18,16.25,16.14,25.71,7.74,18.91,14.98,42.95,7.08,63.02,11.69,3.81,6.75,17.25,12.84,25.04,3.29,3.98,8.23,7.79,12.68,10.61,4.45,3.48,8.89,7.3,7.24,13.43Z"/>
</svg>