<?xml version="1.0" encoding="UTF-8"?>
<svg id="icons" xmlns="http://www.w3.org/2000/svg" viewBox="0 0 512 512">
  <defs>
    <style>
      .cls-1 {
        fill: none;
        stroke: #141414;
        stroke-linecap: round;
        stroke-linejoin: round;
        stroke-width: 2px;
      }
    </style>
  </defs>
  <g>
    <path class="cls-1" d="M359.33,389.77v15.84c0,7.45-5.93,13.39-14.86,13.39"/>
    <path class="cls-1" d="M344.47,419h-206.17c-8.92,0-14.86-5.94-14.86-13.39V135.57c0-7.41,5.93-13.34,14.86-13.34h14.37"/>
  </g>
  <g>
    <path class="cls-1" d="M373.7,389.77h-206.17c-8.92,0-14.86-5.94-14.86-13.39V106.34c0-7.41,5.93-13.34,14.86-13.34h140.89l80.13,72.7v210.68c0,7.45-5.93,13.39-14.86,13.39"/>
    <path class="cls-1" d="M307.95,93h0v59.16c0,7.77,6.24,13.99,14.04,13.99h65.54"/>
  </g>
  <line class="cls-1" x1="194.26" y1="203.09" x2="346.98" y2="203.09"/>
  <line class="cls-1" x1="194.26" y1="232.33" x2="346.98" y2="232.33"/>
  <line class="cls-1" x1="194.26" y1="261.56" x2="346.98" y2="261.56"/>
  <line class="cls-1" x1="194.26" y1="290.79" x2="346.98" y2="290.79"/>
  <line class="cls-1" x1="194.26" y1="320.02" x2="288.23" y2="320.02"/>
</svg>