<?xml version="1.0" encoding="UTF-8"?>
<svg id="icons" xmlns="http://www.w3.org/2000/svg" viewBox="0 0 512 512">
  <defs>
    <style>
      .cls-1 {
        fill: none;
        stroke: #141414;
        stroke-linecap: round;
        stroke-linejoin: round;
        stroke-width: 2px;
      }

      .cls-2 {
        fill: #141414;
      }
    </style>
  </defs>
  <circle class="cls-1" cx="256" cy="256" r="153"/>
  <path class="cls-1" d="M262.82,409c-57.21-15.01-100.12-77.76-100.12-152.88s43.38-138.55,101.06-153.12"/>
  <path class="cls-1" d="M245.49,409c57.21-15.01,100.12-77.76,100.12-152.88s-43.38-138.55-101.06-153.12"/>
  <line class="cls-1" x1="256" y1="296.78" x2="256" y2="409"/>
  <path class="cls-1" d="M125.52,333.97l35.52,5.57c63,9.87,127.15,9.87,190.15,0l35.52-5.57"/>
  <line class="cls-1" x1="345.61" y1="256" x2="409" y2="256"/>
  <line class="cls-1" x1="103" y1="256" x2="162.7" y2="256"/>
  <path class="cls-1" d="M125.52,176.4l35.52-5.57c63-9.87,127.15-9.87,190.15,0l35.52,5.57"/>
  <line class="cls-1" x1="256" y1="103" x2="256" y2="213.9"/>
  <g>
    <path class="cls-2" d="M200.9,274.64v-41.92h12.72c.45,0,1.21.01,2.29.03,1.08.02,2.11.1,3.1.23,3.18.45,5.84,1.63,7.98,3.55,2.13,1.92,3.73,4.37,4.8,7.34,1.07,2.97,1.6,6.24,1.6,9.81s-.53,6.84-1.6,9.81c-1.07,2.97-2.67,5.41-4.8,7.34-2.14,1.92-4.8,3.11-7.98,3.55-.97.12-2.01.19-3.11.22-1.11.03-1.86.04-2.27.04h-12.72ZM205.32,270.53h8.29c.79,0,1.65-.02,2.58-.07.92-.05,1.71-.14,2.37-.27,2.45-.43,4.42-1.42,5.92-2.97,1.51-1.55,2.61-3.5,3.3-5.84.7-2.34,1.05-4.91,1.05-7.7s-.35-5.4-1.05-7.74-1.8-4.29-3.32-5.82-3.48-2.52-5.91-2.94c-.66-.13-1.46-.23-2.4-.27-.94-.05-1.79-.07-2.55-.07h-8.29v33.71Z"/>
    <path class="cls-2" d="M241.74,274.64v-41.92h4.31l23.09,34.35v-34.35h4.31v41.92h-4.31l-23.09-34.38v34.38h-4.31Z"/>
    <path class="cls-2" d="M297.89,275.51c-2.93,0-5.56-.49-7.9-1.47-2.34-.98-4.27-2.37-5.79-4.18-1.52-1.8-2.52-3.95-2.98-6.43l4.37-.73c.7,2.72,2.17,4.85,4.42,6.39,2.25,1.54,4.94,2.31,8.06,2.31,2.06,0,3.9-.33,5.53-.98,1.63-.65,2.91-1.58,3.84-2.78.93-1.21,1.4-2.63,1.4-4.28,0-1.09-.2-2.01-.58-2.78s-.9-1.4-1.54-1.91c-.64-.5-1.34-.93-2.1-1.26-.76-.34-1.49-.62-2.21-.83l-10.63-3.17c-1.28-.37-2.46-.84-3.55-1.41s-2.03-1.26-2.84-2.07c-.81-.8-1.43-1.75-1.88-2.84s-.67-2.33-.67-3.73c0-2.37.62-4.41,1.86-6.14,1.24-1.73,2.94-3.06,5.1-3.99,2.15-.93,4.61-1.39,7.36-1.37,2.8,0,5.29.5,7.5,1.49,2.2.99,4.02,2.4,5.46,4.24,1.43,1.83,2.39,4,2.85,6.5l-4.48.81c-.29-1.82-.96-3.4-2.01-4.74-1.05-1.34-2.38-2.37-4-3.1-1.62-.73-3.4-1.1-5.34-1.12-1.88,0-3.56.32-5.02.95s-2.63,1.49-3.48,2.57c-.85,1.09-1.28,2.33-1.28,3.73s.39,2.55,1.18,3.41,1.76,1.52,2.91,2.01c1.15.49,2.27.88,3.36,1.19l8.21,2.42c.85.23,1.86.57,3.01,1s2.28,1.06,3.38,1.86c1.09.8,2,1.86,2.72,3.16.72,1.3,1.08,2.95,1.08,4.95s-.38,3.68-1.15,5.21-1.84,2.82-3.23,3.87c-1.39,1.05-3.01,1.85-4.86,2.4-1.86.55-3.88.83-6.07.83Z"/>
  </g>
</svg>