<?xml version="1.0" encoding="UTF-8"?>
<svg id="icons" xmlns="http://www.w3.org/2000/svg" viewBox="0 0 512 512">
  <defs>
    <style>
      .cls-1 {
        fill: #141414;
      }
    </style>
  </defs>
  <path class="cls-1" d="M272,132.33l10.18,16,10.18-16v21.82h14.55v-43.65h-14.55l-10.18,16-8.73-16.01h-16.01v43.65h14.55v-21.82ZM349.12,154.15v-14.55h-20.37v-29.1h-14.55v43.65h34.92ZM223.99,154.15h14.55v-29.1h13.09v-14.55h-40.74v14.55h13.09v29.1ZM177.43,139.6h13.1v14.55h14.55v-43.65h-14.55v14.55h-13.1v-14.55h-14.55v43.65h14.55v-14.55ZM154.15,168.7l17.46,209.52,84.39,23.28,84.39-23.28,17.46-209.52h-203.7ZM318.56,235.63h-98.94l2.91,26.19h93.12l-7.27,80.03-52.38,14.55-52.38-14.55-4.37-42.19h26.19l1.46,21.82,29.1,7.27,29.1-7.27,2.91-33.47h-90.21l-7.27-77.12h130.95l-2.91,24.73Z"/>
</svg>