<?xml version="1.0" encoding="UTF-8"?>
<svg id="icons" xmlns="http://www.w3.org/2000/svg" viewBox="0 0 512 512">
  <defs>
    <style>
      .cls-1 {
        fill: none;
        stroke: #141414;
        stroke-linecap: round;
        stroke-linejoin: round;
        stroke-width: 2px;
      }
    </style>
  </defs>
  <path class="cls-1" d="M250.35,281.48l-60.81,60.81c4.28,15.2.46,32.19-11.5,44.15-14.65,14.65-36.85,17.07-54.04,7.36l32.49-32.49-17.1-17.1-32.49,32.49c-9.72-17.2-7.29-39.39,7.36-54.04,11.96-11.96,28.95-15.77,44.15-11.5l60.81-60.81"/>
  <path class="cls-1" d="M250.35,219.21l60.81-60.81c-4.28-15.2-.46-32.19,11.5-44.15,14.65-14.65,36.85-17.07,54.04-7.36l-32.49,32.49,17.1,17.1,32.49-32.49c9.72,17.2,7.29,39.39-7.36,54.04-11.96,11.96-28.95,15.77-44.15,11.5l-60.81,60.81"/>
  <polygon class="cls-1" points="161.82 113.51 121.52 101.81 101.81 121.52 113.51 161.82 137.73 168.86 267.17 298.3 298.3 267.17 168.86 137.73 161.82 113.51"/>
  <path class="cls-1" d="M296.32,261.3h76.34c2.76,0,5,2.24,5,5v127.28c0,7.79-6.32,14.11-14.11,14.11h-58.12c-7.79,0-14.11-6.32-14.11-14.11v-127.28c0-2.76,2.24-5,5-5Z" transform="translate(-138.55 334.49) rotate(-45)"/>
  <rect class="cls-1" x="312.25" y="302.55" width="16.52" height="83.53" transform="translate(-149.59 327.48) rotate(-45)"/>
  <rect class="cls-1" x="336.05" y="278.75" width="16.52" height="83.53" transform="translate(-125.79 337.34) rotate(-45)"/>
</svg>