<?xml version="1.0" encoding="UTF-8"?>
<svg id="icons" xmlns="http://www.w3.org/2000/svg" viewBox="0 0 512 512">
  <defs>
    <style>
      .cls-1 {
        fill: none;
        stroke: #141414;
        stroke-linecap: round;
        stroke-linejoin: round;
        stroke-width: 2px;
      }
    </style>
  </defs>
  <path class="cls-1" d="M281.45,155.73c8.21-22.31,29.66-38.23,54.82-38.23,32.25,0,58.4,26.15,58.4,58.4s-26.15,58.4-58.4,58.4"/>
  <path class="cls-1" d="M336.28,234.3c58.51,0,105.94,47.43,105.94,105.94"/>
  <path class="cls-1" d="M230.55,155.73c-8.21-22.31-29.66-38.23-54.82-38.23-32.25,0-58.4,26.15-58.4,58.4s26.15,58.4,58.4,58.4"/>
  <path class="cls-1" d="M175.72,234.3c-58.51,0-105.94,47.43-105.94,105.94"/>
  <circle class="cls-1" cx="256" cy="230.16" r="58.4"/>
  <path class="cls-1" d="M150.06,394.5c0-58.51,47.43-105.94,105.94-105.94s105.94,47.43,105.94,105.94"/>
</svg>