<?xml version="1.0" encoding="UTF-8"?>
<svg id="icons" xmlns="http://www.w3.org/2000/svg" viewBox="0 0 512 512">
  <defs>
    <style>
      .cls-1 {
        fill: none;
        stroke: #141414;
        stroke-linecap: round;
        stroke-linejoin: round;
        stroke-width: 2px;
      }

      .cls-2 {
        fill: #141414;
      }
    </style>
  </defs>
  <g>
    <circle class="cls-1" cx="206.75" cy="292.48" r="33.53"/>
    <path class="cls-1" d="M145.93,386.83c0-33.59,27.23-60.81,60.81-60.81s60.81,27.23,60.81,60.81"/>
  </g>
  <circle class="cls-1" cx="145.96" cy="144.94" r="11.37"/>
  <circle class="cls-1" cx="187.12" cy="144.94" r="11.37"/>
  <circle class="cls-1" cx="228.27" cy="144.94" r="11.37"/>
  <g id="Layer_1-2" data-name="Layer 1-2">
    <g>
      <rect class="cls-2" x="366.53" y="119.76" width="4.18" height="11.36" transform="translate(-.61 1.8) rotate(-.28)"/>
      <rect class="cls-2" x="371.76" y="127.73" width="8.9" height="4.18" transform="translate(19.25 305.79) rotate(-45.28)"/>
      <rect class="cls-2" x="358.97" y="125.37" width="4.18" height="8.9" transform="translate(13.16 291.63) rotate(-44.72)"/>
      <rect class="cls-2" x="374.9" y="135.31" width="5.57" height="4.18" transform="translate(-.67 1.85) rotate(-.28)"/>
      <rect class="cls-2" x="314.27" y="135.39" width="4.2" height="23.9"/>
      <path class="cls-2" d="M333.43,149.01h6.39v5.05c-1.47,1.09-3.52,1.81-5.77,1.81-4.88,0-8.13-3.62-8.13-8.53v-.07c0-4.57,3.34-8.43,7.75-8.43,3.04,0,4.85.99,6.69,2.56l2.66-3.18c-2.46-2.08-5.02-3.24-9.18-3.24-7.2,0-12.32,5.67-12.32,12.36v.07c0,6.96,4.92,12.29,12.39,12.29,4.23,0,7.61-1.71,9.97-3.72v-10.62h-9.9l-.56,3.65h0Z"/>
      <polygon class="cls-2" points="352.17 149.12 361.38 149.12 361.38 145.36 352.17 145.36 352.17 139.15 362.36 139.15 362.36 135.39 347.97 135.39 347.97 159.29 363.44 159.29 363.44 155.53 352.17 155.53 352.17 149.12"/>
      <polygon class="cls-2" points="370.69 135.39 366.49 135.39 366.49 159.29 380.47 159.29 380.47 155.46 370.69 155.46 370.69 135.39"/>
    </g>
  </g>
  <rect class="cls-1" x="134.59" y="232.36" width="144.32" height="154.46"/>
  <g>
    <line class="cls-1" x1="318.47" y1="344.64" x2="377.41" y2="344.64"/>
    <line class="cls-1" x1="318.47" y1="366.78" x2="377.41" y2="366.78"/>
    <line class="cls-1" x1="318.47" y1="322.5" x2="377.41" y2="322.5"/>
  </g>
  <line class="cls-1" x1="137.69" y1="207.63" x2="196.63" y2="207.63"/>
  <rect class="cls-1" x="318.47" y="232.36" width="58.94" height="55.66"/>
  <rect class="cls-1" x="71" y="71" width="370" height="370" rx="49.25" ry="49.25"/>
</svg>