<?xml version="1.0" encoding="UTF-8"?>
<svg id="icons" xmlns="http://www.w3.org/2000/svg" viewBox="0 0 512 512">
  <defs>
    <style>
      .cls-1 {
        fill: none;
        stroke: #141414;
        stroke-linecap: round;
        stroke-linejoin: round;
        stroke-width: 2px;
      }

      .cls-2 {
        fill: #141414;
      }
    </style>
  </defs>
  <path class="cls-1" d="M311.9,380.37h-181.05c-22.56,0-40.85-18.29-40.85-40.85V111.85c0-22.56,18.29-40.85,40.85-40.85h227.67c22.56,0,40.85,18.29,40.85,40.85v179.17"/>
  <g>
    <g>
      <circle class="cls-1" cx="168.23" cy="152.76" r="25.07"/>
      <circle class="cls-1" cx="244.68" cy="152.76" r="25.07"/>
    </g>
    <g>
      <circle class="cls-1" cx="168.23" cy="231.38" r="25.07"/>
      <circle class="cls-1" cx="244.68" cy="231.38" r="25.07"/>
      <circle class="cls-1" cx="321.13" cy="231.38" r="25.07"/>
    </g>
    <g>
      <circle class="cls-1" cx="168.23" cy="310.01" r="25.07"/>
      <circle class="cls-1" cx="244.68" cy="310.01" r="25.07"/>
    </g>
  </g>
  <g id="Layer_1-2" data-name="Layer 1-2">
    <g>
      <rect class="cls-2" x="337.11" y="128.86" width="3.49" height="9.5" transform="translate(-.65 1.66) rotate(-.28)"/>
      <rect class="cls-2" x="341.47" y="135.52" width="7.44" height="3.49" transform="translate(4.77 285.96) rotate(-45.28)"/>
      <rect class="cls-2" x="330.78" y="133.55" width="3.49" height="7.44" transform="translate(-.34 273.71) rotate(-44.72)"/>
      <rect class="cls-2" x="344.1" y="141.86" width="4.66" height="3.49" transform="translate(-.7 1.69) rotate(-.28)"/>
      <rect class="cls-2" x="293.41" y="141.93" width="3.51" height="19.98"/>
      <path class="cls-2" d="M309.42,153.32h5.34v4.22c-1.23.91-2.94,1.51-4.82,1.51-4.08,0-6.79-3.02-6.79-7.13v-.06c0-3.83,2.8-7.05,6.48-7.05,2.54,0,4.05.83,5.59,2.14l2.23-2.65c-2.05-1.74-4.2-2.71-7.68-2.71-6.02,0-10.3,4.74-10.3,10.33v.06c0,5.82,4.11,10.28,10.36,10.28,3.54,0,6.37-1.43,8.33-3.11v-8.88h-8.27l-.46,3.05h0Z"/>
      <polygon class="cls-2" points="325.1 153.41 332.79 153.41 332.79 150.27 325.1 150.27 325.1 145.07 333.62 145.07 333.62 141.93 321.59 141.93 321.59 161.91 334.52 161.91 334.52 158.77 325.1 158.77 325.1 153.41"/>
      <polygon class="cls-2" points="340.58 141.93 337.07 141.93 337.07 161.91 348.76 161.91 348.76 158.71 340.58 158.71 340.58 141.93"/>
    </g>
  </g>
  <g>
    <path class="cls-1" d="M341.44,397.29c-6.57,1.46-13.71.22-19.58-4.05-.83-.6-1.6-1.26-2.33-1.95l-19.17,33.21,20.31-2.19,8.26,18.68,21.55-37.32c-3.48-1.43-6.58-3.62-9.03-6.4Z"/>
    <path class="cls-1" d="M397.45,393.24c-5.87,4.27-13.01,5.5-19.58,4.05-2.46,2.78-5.55,4.97-9.03,6.4l21.55,37.32,8.26-18.68,20.31,2.19-19.18-33.21c-.73.68-1.5,1.34-2.33,1.95Z"/>
    <circle class="cls-1" cx="359.66" cy="341.22" r="38.26"/>
    <path class="cls-1" d="M418.61,341.22c3.41-5.8,4.44-12.97,2.2-19.87-2.24-6.9-7.29-12.1-13.46-14.78-.65-6.7-4.03-13.1-9.9-17.37-5.87-4.27-13.01-5.5-19.58-4.05-4.46-5.04-10.96-8.23-18.22-8.23s-13.76,3.19-18.22,8.23c-6.57-1.45-13.71-.22-19.58,4.05-5.87,4.27-9.25,10.67-9.9,17.37-6.17,2.68-11.22,7.88-13.46,14.78-2.24,6.9-1.21,14.07,2.2,19.87-3.41,5.8-4.44,12.97-2.2,19.87,2.24,6.9,7.29,12.1,13.46,14.78.65,6.7,4.03,13.1,9.9,17.37,5.87,4.27,13.01,5.5,19.58,4.05,4.46,5.04,10.96,8.23,18.22,8.23s13.76-3.19,18.22-8.23c6.57,1.45,13.7.22,19.58-4.05,5.87-4.27,9.25-10.67,9.9-17.37,6.17-2.68,11.22-7.88,13.46-14.78,2.24-6.9,1.21-14.07-2.2-19.87Z"/>
    <polyline class="cls-1" points="342.2 345.79 354.92 356.49 378.58 327.63"/>
  </g>
</svg>