<?xml version="1.0" encoding="UTF-8"?>
<svg id="icons" xmlns="http://www.w3.org/2000/svg" viewBox="0 0 512 512">
  <defs>
    <style>
      .cls-1 {
        fill: none;
        stroke: #141414;
        stroke-linecap: round;
        stroke-linejoin: round;
        stroke-width: 2px;
      }
    </style>
  </defs>
  <path class="cls-1" d="M436.2,163.2h0c0,19.71-78.23,32.66-176.67,32.66s-183.73-12.94-183.73-32.66"/>
  <path class="cls-1" d="M436.2,160.42h0c0-23.76-81.58-40.92-180.14-40.92s-180.26,17.16-180.26,40.92v191.16c0,23.88,81.58,40.92,180.26,40.92s180.14-17.04,180.14-40.92v-191.16"/>
  <line class="cls-1" x1="75.8" y1="222.35" x2="75.8" y2="288.27"/>
  <line class="cls-1" x1="436.2" y1="218.82" x2="436.2" y2="283.37"/>
  <path class="cls-1" d="M436.2,283.37h0c0,21.78-78.23,43.57-176.67,43.57s-183.73-14.52-183.73-39.87"/>
  <path class="cls-1" d="M436.2,217.82h0c0,21.72-78.23,43.57-176.67,43.57s-183.73-18.27-183.73-39.99"/>
</svg>