<?xml version="1.0" encoding="UTF-8"?>
<svg id="icons" xmlns="http://www.w3.org/2000/svg" viewBox="0 0 512 512">
  <defs>
    <style>
      .cls-1 {
        fill: #141414;
      }
    </style>
  </defs>
  <path class="cls-1" d="M269.45,100.46l-.56,1.13-90.19,90.55c-5.78,7.03-4.89,17.99,1.13,24.6l22.29,22.35-16.75,16.75-24.63-24.55c-14.02-16.74-13.04-41.98,2.07-57.68,21.74-19.85,41.44-43.88,63.33-63.33,12.16-10.81,27.51-14.42,43.3-9.82Z"/>
  <path class="cls-1" d="M242.6,306.9l.56-1.13,87.92-87.9c7.84-8.15,8.08-19.03.76-27.62l-22.31-22.3,16.82-16.82,24.58,24.57c13.74,16.37,13.49,40.41-.56,56.54l-65.98,65.98c-11.53,9.99-27.15,12.99-41.79,8.68Z"/>
  <path class="cls-1" d="M284.13,190.92c27.03-.8,26.35,40.72-1.28,39.59l-61.61,61.27-17.23-17.19-.19-.95,61.46-61.83c-.85-10.88,7.95-20.56,18.85-20.88Z"/>
  <path class="cls-1" d="M290.49,115.61l17.9,17.55-61.62,62.02c.98,14.56-13.48,25.23-27.11,19.53-20.22-8.44-12.93-38.84,8.76-37.51l62.07-61.6Z"/>
  <path class="cls-1" d="M269.45,368.91h-11.34c-.24-1.58.85-4.87-1.33-5.28l-35.46.08c-.39.09-.82.17-1.05.54-.93,1.48-.28,10.39.03,12.6h37.62c5.31,0,10.85,5.21,11.49,10.44.46,3.79.45,15.72-1.02,18.93-1.87,4.08-6.05,6.56-10.45,6.94-12.15,1.05-25.84-.78-38.16-.06-3.9.41-10.82-5.61-10.82-9.22v-7.37h10.97c.24,1.58-.85,4.87,1.33,5.28l34.79.03,2.06-.4v-12.29l-.57-.57h-38.19c-4.34,0-9.78-5.44-10.36-9.67-.45-3.25-.41-14,.14-17.19,1.01-5.86,6.57-9.03,12.11-9.45,9.81-.74,25.73-.68,35.57,0,4.35.3,7.47,1.44,10.2,4.93.75.96,2.45,4.02,2.45,5.11v6.62Z"/>
  <path class="cls-1" d="M151.02,352.39c11.8-1.15,24.99.62,36.94-.11,6.08.51,10.65,3.93,11.92,10.01-1.04,12.98,1.38,28.12,0,40.84-.6,5.51-5.9,9.54-11.16,10.01-11.93,1.07-25.35-.8-37.44.02-6.29-.41-11.29-4.78-11.89-11.17-1.15-12.32.82-26.39.03-38.9,1.07-6.25,5.35-10.09,11.6-10.7ZM188.53,364h-37.81v37.43h37.81v-37.43Z"/>
  <path class="cls-1" d="M311.42,413.15v-25.14c0-.15.89-2.4,1.06-2.72,1.99-3.87,6-5.14,10.08-5.42,12.99-.9,27.01.7,40.1.02,1.25-.03,2.47-.92,2.75-2.17.41-1.85.38-13.36.06-15.4-.21-1.3-1.3-2.38-2.52-2.78l-41.87-.06c-2.75.59-3.06,3.23-2.86,5.65h-6.81c-.87-6.67,2.76-12.17,9.65-12.85,13.27,1.08,28.94-1.48,41.93.04,6.4.75,9.28,5.48,9.7,11.48.56,8.01,1.49,22.18-9.28,23.26l-42.93.17c-1.34.58-2.01,1.65-2.21,3.08-.37,2.65-.3,9.33-.05,12.08.11,1.2,1.19,3.57,2.48,3.57h51.42l.57.57v6.05l-.57.57h-60.69Z"/>
  <polygon class="cls-1" points="292.14 413.15 292.14 360.59 282.87 371.56 273.99 371.56 290.06 352.28 298.75 352.28 299.32 352.84 299.32 412.58 298.75 413.15 292.14 413.15"/>
</svg>