<?xml version="1.0" encoding="UTF-8"?>
<svg id="icons" xmlns="http://www.w3.org/2000/svg" viewBox="0 0 512 512">
  <defs>
    <style>
      .cls-1 {
        fill: none;
        stroke: #141414;
        stroke-linecap: round;
        stroke-linejoin: round;
        stroke-width: 2px;
      }

      .cls-2 {
        fill: #141414;
      }
    </style>
  </defs>
  <g>
    <g>
      <circle class="cls-1" cx="164.57" cy="168.78" r="29.98"/>
      <circle class="cls-1" cx="256" cy="168.78" r="29.98"/>
    </g>
    <g>
      <circle class="cls-1" cx="164.57" cy="262.81" r="29.98"/>
      <circle class="cls-1" cx="256" cy="262.81" r="29.98"/>
      <circle class="cls-1" cx="347.43" cy="262.81" r="29.98"/>
    </g>
    <g>
      <circle class="cls-1" cx="164.57" cy="356.84" r="29.98"/>
      <circle class="cls-1" cx="256" cy="356.84" r="29.98"/>
    </g>
  </g>
  <rect class="cls-1" x="71" y="71" width="370" height="370" rx="50.04" ry="50.04"/>
  <g>
    <circle class="cls-1" cx="164.57" cy="262.81" r="29.98"/>
    <circle class="cls-1" cx="256" cy="262.81" r="29.98"/>
    <circle class="cls-1" cx="347.43" cy="262.81" r="29.98"/>
    <g>
      <circle class="cls-1" cx="164.57" cy="356.84" r="29.98"/>
      <circle class="cls-1" cx="256" cy="356.84" r="29.98"/>
      <circle class="cls-1" cx="347.43" cy="356.84" r="29.98"/>
    </g>
  </g>
  <g id="Layer_1-2" data-name="Layer 1-2">
    <g>
      <rect class="cls-2" x="366.53" y="140.2" width="4.18" height="11.36" transform="translate(-.71 1.8) rotate(-.28)"/>
      <rect class="cls-2" x="371.76" y="148.17" width="8.9" height="4.18" transform="translate(4.73 311.84) rotate(-45.28)"/>
      <rect class="cls-2" x="358.97" y="145.81" width="4.18" height="8.9" transform="translate(-1.22 297.55) rotate(-44.72)"/>
      <rect class="cls-2" x="374.9" y="155.75" width="5.57" height="4.18" transform="translate(-.77 1.85) rotate(-.28)"/>
      <rect class="cls-2" x="314.27" y="155.83" width="4.2" height="23.9"/>
      <path class="cls-2" d="M333.43,169.45h6.39v5.05c-1.47,1.09-3.52,1.81-5.77,1.81-4.88,0-8.13-3.62-8.13-8.53v-.07c0-4.57,3.34-8.43,7.75-8.43,3.04,0,4.85.99,6.69,2.56l2.66-3.18c-2.46-2.08-5.02-3.24-9.18-3.24-7.2,0-12.32,5.67-12.32,12.36v.07c0,6.96,4.92,12.29,12.39,12.29,4.23,0,7.61-1.71,9.97-3.72v-10.62h-9.9l-.56,3.65h0Z"/>
      <polygon class="cls-2" points="352.17 169.56 361.38 169.56 361.38 165.8 352.17 165.8 352.17 159.59 362.36 159.59 362.36 155.83 347.97 155.83 347.97 179.73 363.44 179.73 363.44 175.97 352.17 175.97 352.17 169.56"/>
      <polygon class="cls-2" points="370.69 155.83 366.49 155.83 366.49 179.73 380.47 179.73 380.47 175.9 370.69 175.9 370.69 155.83"/>
    </g>
  </g>
</svg>