<?xml version="1.0" encoding="UTF-8"?>
<svg id="Layer_2" data-name="Layer 2" xmlns="http://www.w3.org/2000/svg" viewBox="0 0 42.08 37.38">
  <defs>
    <style>
      .cls-1 {
        fill: #141414;
      }
    </style>
  </defs>
  <g id="Layer_1-2" data-name="Layer 1">
    <g id="Paragraph_Body_Copy" data-name="Paragraph Body Copy">
      <path class="cls-1" d="M17.86.36l-1.08,7.52c-2.22-.19-3.98.18-5.28,1.12-1.3.94-2.18,2.27-2.64,3.98-.46,1.71-.54,3.65-.25,5.82h9.25v18.58H0v-19.31C0,11.76,1.49,6.98,4.48,3.72,7.47.47,11.93-.65,17.86.36ZM42.08.36l-1.08,7.52c-2.22-.19-3.98.18-5.28,1.12s-2.18,2.27-2.64,3.98c-.46,1.71-.54,3.65-.25,5.82h9.25v18.58h-17.86v-19.31c0-6.31,1.49-11.1,4.48-14.35C31.69.47,36.15-.65,42.08.36Z"/>
    </g>
  </g>
</svg>