<svg width="240" height="198" xmlns="http://www.w3.org/2000/svg" xmlns:xlink="http://www.w3.org/1999/xlink" xml:space="preserve" overflow="hidden"><g transform="translate(-1548 -735)"><path d="M1697.59 843.471 1697.59 843.471 1686.74 842.38C1685.09 842.38 1683.7 840.995 1683.13 839.338 1681.76 834.386 1679.79 829.961 1677.3 825.808 1676.46 824.151 1676.46 822.202 1677.58 820.837L1684.25 812.805C1685.92 811.167 1685.64 808.671 1684.25 807.014L1673.97 796.798C1672.3 795.414 1669.79 795.142 1668.12 796.525L1660.07 803.427C1658.68 804.538 1656.73 804.538 1655.07 803.7 1650.63 801.224 1646.18 799.274 1641.15 797.89 1639.23 797.617 1638.11 795.96 1637.82 794.303L1636.99 784.36C1636.72 782.157 1635.05 780.5 1632.56 780.5L1618.09 780.5C1615.85 780.5 1614.19 782.157 1613.91 784.36L1613.07 794.303C1612.79 795.96 1611.42 797.617 1609.73 797.89 1604.75 799.274 1599.72 801.497 1595.29 803.973 1593.89 804.811 1591.95 804.811 1590.28 803.427L1583.04 797.345C1581.37 795.96 1578.86 796.233 1577.21 797.617L1567.2 807.853C1565.51 809.49 1565.24 811.986 1566.91 813.643L1573.03 821.11C1574.15 822.474 1574.42 824.424 1573.31 826.081 1570.81 830.487 1568.85 835.459 1567.48 840.43 1566.91 842.38 1565.51 843.744 1563.57 843.744L1554.39 844.583C1552.17 844.856 1550.5 846.513 1550.5 848.735L1550.5 863.377C1550.5 865.58 1552.17 867.237 1554.39 867.509L1563.85 868.348C1565.81 868.621 1567.2 869.732 1567.75 871.662 1569.14 876.634 1571.36 881.605 1573.87 886.031 1574.97 887.688 1574.7 889.618 1573.6 891.002L1567.75 898.177C1566.08 899.833 1566.36 902.329 1568.03 903.986L1578.03 913.929C1579.7 915.586 1582.2 915.859 1583.88 914.202L1591.38 908.138C1592.77 906.735 1594.72 906.735 1596.39 907.573 1600.84 910.049 1605.84 911.999 1610.85 913.364 1612.79 913.656 1614.19 915.313 1614.19 916.97L1615.03 926.64C1615.3 928.843 1617.25 930.5 1619.46 930.5L1633.93 930.5C1636.17 930.5 1638.11 928.843 1638.11 926.64L1638.93 916.405C1639.23 914.475 1640.6 913.091 1642.27 912.545 1647 911.16 1651.73 909.23 1656.18 906.735 1657.58 905.643 1659.8 905.643 1661.19 907.027L1668.94 913.364C1670.63 915.04 1673.12 914.767 1674.79 913.091L1685.09 903.148C1686.47 901.491 1686.74 899.015 1685.37 897.085L1678.42 889.052C1677.3 887.688 1677.03 885.738 1677.85 884.1 1680.36 879.948 1682.03 875.249 1683.41 870.551 1683.97 868.621 1685.37 867.509 1687.31 867.237L1697.59 866.418C1699.81 866.145 1701.5 864.195 1701.5 861.992L1701.5 847.624C1701.5 845.421 1699.81 843.471 1697.59 843.471" stroke="#FFFFFF" stroke-width="4.58333" stroke-linecap="round" stroke-linejoin="round" stroke-miterlimit="10" fill="none" fill-rule="evenodd"/><path d="M1624.99 892.5 1624.99 892.5C1605.45 892.5 1589.5 876.32 1589.5 856.48 1589.5 836.641 1605.43 820.5 1624.99 820.5 1644.55 820.5 1660.5 836.641 1660.5 856.48 1660.5 876.32 1644.57 892.5 1624.99 892.5" stroke="#FFFFFF" stroke-width="4.58333" stroke-linecap="round" stroke-linejoin="round" stroke-miterlimit="10" fill="none" fill-rule="evenodd"/><path d="M1737.86 804.5 1737.86 804.5C1727.54 804.5 1719.5 796.432 1719.5 786.129 1719.5 775.825 1727.54 767.5 1737.86 767.5 1748.18 767.5 1756.5 775.845 1756.5 786.129 1756.5 796.412 1748.16 804.5 1737.86 804.5" stroke="#FFCE00" stroke-width="4.58333" stroke-linecap="round" stroke-linejoin="round" stroke-miterlimit="10" fill="none" fill-rule="evenodd"/><path d="M1783.02 777.894 1783.02 777.894 1776.36 777.345C1775.24 777.07 1774.4 776.226 1774.12 775.087 1773.3 772.261 1771.9 769.16 1770.53 766.608 1769.98 765.489 1769.98 764.351 1770.8 763.212L1774.69 758.423C1775.81 757.285 1775.52 755.597 1774.69 754.478L1768.31 748.256C1767.19 747.118 1765.81 747.118 1764.69 747.961L1759.72 752.201C1758.88 753.045 1757.48 753.045 1756.38 752.476 1753.89 750.788 1750.84 749.649 1747.79 748.805 1746.67 748.531 1745.85 747.667 1745.85 746.254L1745.3 740.052C1745.3 738.638 1743.9 737.5 1742.53 737.5L1733.67 737.5C1732.27 737.5 1730.9 738.638 1730.9 740.052L1730.35 746.254C1730.35 747.667 1729.5 748.531 1728.38 748.805 1725.06 749.649 1722.27 751.063 1719.52 752.476 1718.4 753.32 1717.02 753.026 1716.2 752.476L1711.76 748.531C1710.66 747.667 1708.99 747.667 1708.16 748.805L1701.78 755.028C1700.66 756.147 1700.66 757.854 1701.5 758.973L1705.37 763.487C1706.22 764.331 1706.22 765.745 1705.65 766.569 1703.98 769.67 1702.88 772.791 1702.05 775.892 1701.78 777.031 1700.66 777.855 1699.56 778.169L1694 778.444C1692.33 778.719 1691.5 779.857 1691.5 781.251L1691.5 790.299C1691.5 791.987 1692.33 793.125 1694 793.125L1699.83 793.675C1700.93 793.95 1701.78 794.814 1702.05 795.932 1703.17 799.034 1704.29 802.154 1705.94 804.981 1706.49 806.1 1706.49 807.238 1705.65 808.376L1702.05 812.597C1701.23 813.735 1701.23 815.423 1702.33 816.562L1708.71 822.764C1709.56 823.902 1711.21 823.902 1712.31 823.058L1717.04 819.093C1717.87 818.249 1718.97 818.249 1720.07 818.819 1722.84 820.507 1725.91 821.645 1728.95 822.489 1730.05 822.764 1731.17 823.627 1731.17 825.041L1731.72 830.949C1731.72 832.382 1732.84 833.5 1734.49 833.5L1743.35 833.5C1744.77 833.5 1745.85 832.382 1746.12 830.949L1746.67 824.471C1746.67 823.333 1747.52 822.489 1748.64 821.92 1751.68 821.076 1754.45 819.957 1757.23 818.249 1758.07 817.7 1759.45 817.7 1760.27 818.524L1765.26 822.47C1766.11 823.333 1767.76 823.333 1768.86 822.47L1775.24 815.972C1776.09 814.854 1776.36 813.166 1775.24 812.027L1771.08 806.944C1770.25 806.08 1770.25 804.981 1770.8 803.842 1772.2 801.036 1773.3 798.209 1774.12 795.108 1774.4 793.97 1775.52 793.145 1776.62 793.145L1783 792.576C1784.4 792.301 1785.5 791.163 1785.5 789.769L1785.5 780.721C1785.5 779.033 1784.4 777.894 1783 777.894" stroke="#FFCE00" stroke-width="4.58333" stroke-linecap="round" stroke-linejoin="round" stroke-miterlimit="10" fill="none" fill-rule="evenodd"/></g></svg>