<svg width="148" height="223" xmlns="http://www.w3.org/2000/svg" xmlns:xlink="http://www.w3.org/1999/xlink" xml:space="preserve" overflow="hidden"><g transform="translate(-1593 -1204)"><path d="M1681.5 1345.77C1681.5 1337.9 1675.02 1331.5 1667 1331.5 1658.98 1331.5 1652.5 1337.88 1652.5 1345.77 1652.5 1351.59 1656.03 1356.57 1661.08 1358.79L1661.08 1369.69C1661.08 1372.91 1663.73 1375.5 1666.98 1375.5L1666.98 1375.5C1670.25 1375.5 1672.88 1372.89 1672.88 1369.69L1672.88 1358.79C1677.93 1356.57 1681.46 1351.59 1681.46 1345.77Z" stroke="#FFCE00" stroke-width="4.58333" stroke-linecap="round" stroke-linejoin="round" stroke-miterlimit="10" fill="none" fill-rule="evenodd"/><path d="M1718.15 1243.99C1711.47 1222.28 1691.33 1206.5 1667.5 1206.5L1667.5 1206.5C1638.23 1206.5 1614.5 1230.32 1614.5 1259.71L1614.5 1281.5 1720.5 1281.5" stroke="#FFCE00" stroke-width="4.58333" stroke-linecap="round" stroke-linejoin="round" stroke-miterlimit="10" fill="none" fill-rule="evenodd"/><path d="M1728.72 1281.5C1734.12 1281.5 1738.5 1285.88 1738.5 1291.28L1738.5 1414.72C1738.5 1420.12 1734.12 1424.5 1728.72 1424.5L1605.28 1424.5C1599.88 1424.5 1595.5 1420.12 1595.5 1414.72L1595.5 1291.28C1595.5 1285.88 1599.88 1281.5 1605.28 1281.5Z" stroke="#FFFFFF" stroke-width="4.58333" stroke-linecap="round" stroke-linejoin="round" stroke-miterlimit="10" fill="none" fill-rule="evenodd"/></g></svg>