<?xml version="1.0" encoding="UTF-8"?>
<svg width="1200pt" height="1200pt" version="1.1" viewBox="0 0 1200 1200" xmlns="http://www.w3.org/2000/svg">
 <path d="m1096.4 910.25-423.24-707.79c-17.352-29.027-44.711-45.684-75.035-45.684-30.324 0-57.684 16.656-75.047 45.684l-423.34 707.79c-17.652 29.52-19.141 61.68-4.0781 88.234 15.059 26.555 43.43 41.785 77.809 41.785h849.19c34.379 0 62.746-15.238 77.809-41.785 15.066-26.566 13.578-58.723-4.0703-88.234zm-73.73 72.184h-849.2c-27.238 0-38.09-19.129-24.109-42.504l423.32-707.8c6.9961-11.688 16.211-17.531 25.414-17.531s18.434 5.8438 25.414 17.531l423.25 707.8c13.984 23.375 3.1367 42.504-24.094 42.504z" fill="#b4121a"/>
 <path d="m596.32 432.2c-26.676 0-60.516 19.5-60.516 72.109 0 14.387 0.69531 26.676 5.0508 50.41l35.281 228.01h43.992l30.289-228.01c5.0391-36.77 5.7461-41.062 5.7461-51.91 0-47.57-29.555-70.609-59.844-70.609z" fill="#b4121a"/>
 <path d="m651.84 867.47c0 29.113-23.602 52.715-52.715 52.715-29.117 0-52.719-23.602-52.719-52.715s23.602-52.715 52.719-52.715c29.113 0 52.715 23.602 52.715 52.715z" fill="#b4121a"/>
</svg>
